<?xml version="1.0" encoding="UTF-8"?>
<!DOCTYPE svg PUBLIC "-//W3C//DTD SVG 1.1//EN" "http://www.w3.org/Graphics/SVG/1.1/DTD/svg11.dtd">
<!-- Creator: CorelDRAW -->
<svg xmlns="http://www.w3.org/2000/svg" xml:space="preserve" width="60px" height="0px" style="shape-rendering:geometricPrecision; text-rendering:geometricPrecision; image-rendering:optimizeQuality; fill-rule:evenodd; clip-rule:evenodd"
viewBox="0 0 1.24057 1.24054"
 xmlns:xlink="http://www.w3.org/1999/xlink">
 <defs>
  <style type="text/css">
   <![CDATA[
    .fil0 {fill:white}
   ]]>
  </style>
 </defs>
 <g id="Слой_x0020_1">
  <metadata id="CorelCorpID_0Corel-Layer"/>
  <path class="fil0" d="M0.0960444 0l1.04848 0c0.0528208,0 0.0960444,0.0432237 0.0960444,0.0960444l0 1.04845c0,0.0528208 -0.0432237,0.0960444 -0.0960444,0.0960444l-0.281515 0 0 -0.478977 0.154873 0 0.0244201 -0.190477 -0.179293 0 0 -0.13646c0,-0.0404642 0.0331137,-0.0735779 0.0735779,-0.0735779l0.114872 0 0 -0.169793c-0.0509648,-0.00273506 -0.103175,-0.00422468 -0.156216,-0.00485961 -0.129817,0 -0.236021,0.106203 -0.236021,0.235996l0 0.148694 -0.156094 0 0 0.190477 0.156094 0 0 0.478977 -0.563177 0c-0.0528208,0 -0.0960444,-0.0432237 -0.0960444,-0.0960444l0 -1.04845c0,-0.0528208 0.0432237,-0.0960444 0.0960444,-0.0960444z"/>
 </g>
</svg>
