<?xml version="1.0" encoding="UTF-8"?>
<!DOCTYPE svg PUBLIC "-//W3C//DTD SVG 1.1//EN" "http://www.w3.org/Graphics/SVG/1.1/DTD/svg11.dtd">
<!-- Creator: CorelDRAW -->
<svg xmlns="http://www.w3.org/2000/svg" xml:space="preserve" width="1500px" height="300px" style="shape-rendering:geometricPrecision; text-rendering:geometricPrecision; image-rendering:optimizeQuality; fill-rule:evenodd; clip-rule:evenodd"
viewBox="0 0 487.041 88.5334"
 xmlns:xlink="http://www.w3.org/1999/xlink">
 <defs>
  <style type="text/css">
   <![CDATA[
    .str0 {stroke:#7C7C7C;stroke-width:4.21253}
    .fil3 {fill:none;fill-rule:nonzero}
    .fil0 {fill:#7C7C7C}
    .fil1 {fill:#7C7C7C;fill-rule:nonzero}
    .fil2 {fill:#7C7C7C;fill-opacity:0.941176}
   ]]>
  </style>
 </defs>
 <g id="Слой_x0020_1">
  <metadata id="CorelCorpID_0Corel-Layer"/>
  <path class="fil0" d="M115.517 4.72098c23.1407,0 41.9066,18.766 41.9066,41.9058 0,23.1407 -18.766,41.9066 -41.9066,41.9066 -23.1398,0 -41.9058,-18.766 -41.9058,-41.9066 0,-23.1398 18.766,-41.9058 41.9058,-41.9058zm-6.16545 54.9533c-2.27519,-2.78911 -3.41299,-6.16588 -3.41299,-10.1294 0,-2.27561 0.495393,-4.34901 1.4866,-6.22064 0.990786,-1.87205 2.18335,-3.39488 3.57854,-4.56975 1.39435,-1.17445 2.78869,-2.23812 4.18346,-3.19267 1.39435,-0.954137 2.58776,-1.92681 3.57854,-2.91802 0.990365,-0.990786 1.4866,-1.96304 1.4866,-2.9176 0,-2.86241 -2.16566,-4.29383 -6.49614,-4.29383 -4.40462,0 -8.25824,1.9087 -11.5613,5.72567l-10.5701 -12.1114c2.93613,-3.37676 6.55174,-5.94556 10.8456,-7.70724 4.29425,-1.76168 8.75279,-2.64252 13.3773,-2.64252 7.19373,0 12.9186,1.61466 17.1762,4.84398 4.25718,3.23017 6.38619,7.48735 6.38619,12.7724 0,2.93571 -0.587226,5.542 -1.76168,7.81719 -1.17445,2.27561 -2.58776,4.1287 -4.23907,5.56054 -1.65131,1.431 -3.32158,2.73393 -5.00954,3.90838 -1.6888,1.17445 -3.1198,2.42262 -4.29425,3.74367 -1.17445,1.32063 -1.76168,2.71582 -1.76168,4.18346 0,1.83498 0.550577,3.30346 1.65131,4.40462l-14.6436 3.74325zm13.9831 21.8002c-2.05529,2.05529 -4.47749,3.08315 -7.26661,3.08315 -2.78911,0 -5.21132,-1.02786 -7.26661,-3.08315 -2.05529,-2.05487 -3.08315,-4.47749 -3.08315,-7.26661 0,-2.78911 1.02786,-5.21132 3.08315,-7.26661 2.05529,-2.05571 4.47749,-3.08315 7.26661,-3.08315 2.78911,0 5.21132,1.02744 7.26661,3.08315 2.05529,2.05529 3.08315,4.47749 3.08315,7.26661 0,2.78911 -1.02786,5.21174 -3.08315,7.26661z"/>
  <path class="fil1" d="M16.1382 23.5497c-1.74314,0 -3.02038,0.510558 -3.83171,1.53252 -0.811333,1.02154 -1.217,2.67453 -1.217,4.95857l0 6.22064c0,2.52457 0.525723,4.26771 1.57759,5.22901 1.05187,0.96172 2.5094,1.44279 4.3726,1.44279l3.87679 0 0 -19.3835 -4.77827 0zm-16.1382 54.0935c0.481071,-1.20226 0.781424,-2.38935 0.901902,-3.56127 0.120057,-1.17193 0.180296,-2.53931 0.180296,-4.10216l0 -9.73684c0,-3.30557 0.465484,-6.11533 1.3973,-8.42927 0.93139,-2.31436 2.65937,-3.9821 5.18394,-5.00364 -4.32753,-2.04392 -6.49108,-6.31121 -6.49108,-12.8023l0 -4.95857c0,-4.86842 1.15676,-8.50467 3.4707,-10.9092 2.31436,-2.40409 6.05551,-3.60592 11.2247,-3.60592l14.9658 0 0 63.1091 -9.91713 0 0 -25.6943 -3.42605 0c-2.28403,0 -3.93661,0.600706 -4.95857,1.80296 -1.02196,1.20226 -1.53252,3.27566 -1.53252,6.22064l0 9.91713c0,1.26249 -0.0151651,2.31436 -0.045074,3.1556 -0.0303302,0.841663 -0.0901481,1.53252 -0.180296,2.07341 -0.0901481,0.54131 -0.195461,0.99205 -0.315518,1.35264 -0.120478,0.360592 -0.240535,0.751094 -0.360592,1.17193l-10.0978 0zm51.0284 -25.1534l-3.06503 5.7699 0 19.3835 -9.91713 0 0 -63.1091 9.91713 0 0 27.4973 13.1629 -27.4973 9.73684 0 -13.7939 28.1287 13.7939 34.9804 -10.1876 0 -9.64711 -25.1534z"/>
  <g id="_90022304">
   <path id="_90021856" class="fil1" d="M169.17 20.4624c0,-1.10073 -0.181139,-1.84382 -0.544258,-2.23011 -0.362699,-0.38671 -0.848824,-0.579644 -1.45753,-0.579644 -0.60871,0 -1.09484,0.18156 -1.45753,0.544258 -0.36312,0.36312 -0.544258,0.989523 -0.544258,1.87921l0 2.63409 -3.6531 0 0 -2.3885c0,-1.99 0.486126,-3.51788 1.45753,-4.58323 0.97183,-1.06535 2.4062,-1.59823 4.30268,-1.59823 1.89648,0 3.33085,0.532885 4.30268,1.59823 0.97183,1.06535 1.45753,2.59323 1.45753,4.58323l0 0.6323c0,2.62272 -0.901481,4.30857 -2.70444,5.05798 0.983204,0.421253 1.67996,1.07125 2.08983,1.94914 0.409879,0.877891 0.614608,1.94914 0.614608,3.21374l0 1.93186c0,1.99 -0.485704,3.51788 -1.45753,4.58323 -0.97183,1.06535 -2.4062,1.59823 -4.30268,1.59823 -1.89648,0 -3.33085,-0.532885 -4.30268,-1.59823 -0.971409,-1.06535 -1.45753,-2.59323 -1.45753,-4.58323l0 -3.09115 3.6531 0 0 3.33674c0,0.890107 0.181139,1.51609 0.544258,1.87921 0.362699,0.36312 0.848824,0.544258 1.45753,0.544258 0.60871,0 1.09484,-0.187036 1.45753,-0.561951 0.36312,-0.374494 0.544258,-1.11211 0.544258,-2.21242l0 -1.93186c0,-1.14749 -0.198831,-1.95546 -0.596915,-2.42347 -0.398084,-0.468433 -1.04176,-0.70265 -1.93186,-0.70265l-0.596915 0 0 -3.51198 0.807963 0c0.725818,0 1.29367,-0.187457 1.70312,-0.561951 0.409879,-0.374915 0.614608,-1.05397 0.614608,-2.03718l0 -1.36991zm12.012 -6.04119c1.94366,0 3.3894,0.515192 4.33764,1.54558 0.94824,1.02996 1.42257,2.54058 1.42257,4.53057l0 3.19647c0,1.99 -0.474331,3.50061 -1.42257,4.53057 -0.94824,1.03038 -2.39398,1.54558 -4.33764,1.54558l-1.82613 0 0 9.23723 -3.86373 0 0 -24.586 5.68986 0zm-1.82613 3.51241l0 8.32395 1.82613 0c0.60871,0 1.07714,-0.163867 1.40488,-0.491602 0.327735,-0.327735 0.492023,-0.936866 0.492023,-1.82655l0 -3.68765c0,-0.890107 -0.164289,-1.49882 -0.492023,-1.82655 -0.327735,-0.327735 -0.796168,-0.491602 -1.40488,-0.491602l-1.82613 0zm12.8549 15.4187c0,0.890107 0.18156,1.51609 0.544258,1.87921 0.36312,0.36312 0.848824,0.544258 1.45753,0.544258 0.60871,0 1.09484,-0.181139 1.45753,-0.544258 0.36312,-0.36312 0.54468,-0.989101 0.54468,-1.87921l0 -13.2762c0,-0.889686 -0.18156,-1.51609 -0.54468,-1.87921 -0.362699,-0.362699 -0.848824,-0.544258 -1.45753,-0.544258 -0.60871,0 -1.09441,0.18156 -1.45753,0.544258 -0.362699,0.36312 -0.544258,0.989523 -0.544258,1.87921l0 13.2762zm-3.86373 -13.0306c0,-1.99 0.503397,-3.51788 1.51061,-4.58323 1.00679,-1.06535 2.45843,-1.59823 4.35491,-1.59823 1.8969,0 3.34854,0.532885 4.35533,1.59823 1.00679,1.06535 1.51019,2.59323 1.51019,4.58323l0 12.785c0,1.99 -0.503397,3.51788 -1.51019,4.58323 -1.00679,1.06535 -2.45843,1.59823 -4.35533,1.59823 -1.89648,0 -3.34812,-0.532885 -4.35491,-1.59823 -1.00722,-1.06535 -1.51061,-2.59323 -1.51061,-4.58323l0 -12.785zm18.0536 3.33674l1.82613 0c1.94366,0 3.3894,0.515192 4.33764,1.54558 0.94824,1.03038 1.42257,2.54058 1.42257,4.53057l0 3.19647c0,1.99 -0.474331,3.50061 -1.42257,4.53057 -0.94824,1.03038 -2.39398,1.54558 -4.33764,1.54558l-5.68986 0 0 -24.586 10.2209 0 0 3.51241 -6.35712 0 0 5.72482zm1.82613 11.8364c0.60871,0 1.07714,-0.163867 1.40488,-0.491602 0.327735,-0.327735 0.492023,-0.936445 0.492023,-1.82655l0 -3.68765c0,-0.889686 -0.164289,-1.49882 -0.492023,-1.82655 -0.327735,-0.327735 -0.796168,-0.491602 -1.40488,-0.491602l-1.82613 0 0 8.32395 1.82613 0zm12.012 3.51241l-3.96904 0 0 -24.586 3.44206 0 0 14.7165 3.96904 -14.7165 4.84693 0 0 24.586 -3.47744 0 0 -17.8072 -4.81155 17.8072zm10.0452 -24.586l11.9417 0 0 3.51241 -4.03897 0 0 21.0736 -3.86373 0 0 -21.0736 -4.03897 0 0 -3.51241zm17.6669 24.586l-3.96904 0 0 -24.586 3.44206 0 0 14.7165 3.96904 -14.7165 4.84693 0 0 24.586 -3.47744 0 0 -17.8072 -4.81155 17.8072z"/>
   <path id="_90022920" class="fil1" d="M169.17 58.817c0,-1.10073 -0.181139,-1.84382 -0.544258,-2.23011 -0.362699,-0.38671 -0.848824,-0.579644 -1.45753,-0.579644 -0.60871,0 -1.09484,0.18156 -1.45753,0.544258 -0.36312,0.36312 -0.544258,0.989523 -0.544258,1.87921l0 2.63409 -3.6531 0 0 -2.3885c0,-1.99 0.486126,-3.51788 1.45753,-4.58323 0.97183,-1.06535 2.4062,-1.59823 4.30268,-1.59823 1.89648,0 3.33085,0.532885 4.30268,1.59823 0.97183,1.06535 1.45753,2.59323 1.45753,4.58323l0 0.6323c0,2.62272 -0.901481,4.30857 -2.70444,5.05798 0.983204,0.421253 1.67996,1.07125 2.08983,1.94914 0.409879,0.877891 0.614608,1.94914 0.614608,3.21374l0 1.93186c0,1.99 -0.485704,3.51788 -1.45753,4.58323 -0.97183,1.06535 -2.4062,1.59823 -4.30268,1.59823 -1.89648,0 -3.33085,-0.532885 -4.30268,-1.59823 -0.971409,-1.06535 -1.45753,-2.59323 -1.45753,-4.58323l0 -3.09115 3.6531 0 0 3.33674c0,0.890107 0.181139,1.51609 0.544258,1.87921 0.362699,0.36312 0.848824,0.544258 1.45753,0.544258 0.60871,0 1.09484,-0.187036 1.45753,-0.561951 0.36312,-0.374494 0.544258,-1.11211 0.544258,-2.21242l0 -1.93186c0,-1.14749 -0.198831,-1.95546 -0.596915,-2.42347 -0.398084,-0.468433 -1.04176,-0.70265 -1.93186,-0.70265l-0.596915 0 0 -3.51198 0.807963 0c0.725818,0 1.29367,-0.187457 1.70312,-0.561951 0.409879,-0.374915 0.614608,-1.05397 0.614608,-2.03718l0 -1.36991zm18.7908 18.5448l-3.89869 0 -0.667264 -4.46064 -4.74162 0 -0.667264 4.46064 -3.54737 0 3.93366 -24.586 5.6549 0 3.93366 24.586zm-8.81598 -7.79739l3.72303 0 -1.86152 -12.4333 -1.86152 12.4333zm18.7908 0.667264l2.63451 -17.4559 5.3735 0 0 24.586 -3.65268 0 0 -17.6315 -2.66948 17.6315 -3.65268 0 -2.8801 -17.3859 0 17.3859 -3.37171 0 0 -24.586 5.37392 0 2.84472 17.4559zm14.3302 1.47523c0,0.890107 0.18156,1.51609 0.544258,1.87921 0.36312,0.36312 0.848824,0.544258 1.45753,0.544258 0.60871,0 1.09484,-0.181139 1.45753,-0.544258 0.36312,-0.36312 0.54468,-0.989101 0.54468,-1.87921l0 -13.2762c0,-0.889686 -0.18156,-1.51609 -0.54468,-1.87921 -0.362699,-0.362699 -0.848824,-0.544258 -1.45753,-0.544258 -0.60871,0 -1.09441,0.18156 -1.45753,0.544258 -0.362699,0.36312 -0.544258,0.989523 -0.544258,1.87921l0 13.2762zm-3.86373 -13.0306c0,-1.99 0.503397,-3.51788 1.51061,-4.58323 1.00679,-1.06535 2.45843,-1.59823 4.35491,-1.59823 1.8969,0 3.34854,0.532885 4.35533,1.59823 1.00679,1.06535 1.51019,2.59323 1.51019,4.58323l0 12.785c0,1.99 -0.503397,3.51788 -1.51019,4.58323 -1.00679,1.06535 -2.45843,1.59823 -4.35533,1.59823 -1.89648,0 -3.34812,-0.532885 -4.35491,-1.59823 -1.00722,-1.06535 -1.51061,-2.59323 -1.51061,-4.58323l0 -12.785zm20.0205 -5.90049c2.01359,0 3.47112,0.468433 4.3726,1.40488 0.901481,0.936866 1.35222,2.35312 1.35222,4.25002l0 0.877891c0,1.2646 -0.198831,2.30636 -0.596915,3.12612 -0.398084,0.819337 -1.03038,1.42805 -1.8969,1.82613 1.05397,0.398084 1.79706,1.04808 2.23053,1.94956 0.433048,0.901481 0.649572,2.00769 0.649572,3.31905l0 2.00179c0,1.8969 -0.491602,3.34264 -1.47523,4.33764 -0.983204,0.99542 -2.44664,1.49292 -4.3903,1.49292l-6.07615 0 0 -24.586 5.83056 0zm-1.96683 13.5222l0 7.55138 2.21242 0c0.65589,0 1.15339,-0.175662 1.49292,-0.526566 0.33953,-0.351325 0.509295,-0.983625 0.509295,-1.8969l0 -2.14249c0,-1.14707 -0.193355,-1.93144 -0.579644,-2.35312 -0.386289,-0.421253 -1.02449,-0.6323 -1.91417,-0.6323l-1.72082 0zm0 -10.0098l0 6.49782 1.51019 0c0.725818,0 1.29367,-0.187457 1.70355,-0.561951 0.409458,-0.374915 0.614608,-1.05397 0.614608,-2.03718l0 -1.36991c0,-0.889686 -0.158391,-1.53378 -0.474331,-1.93186 -0.31594,-0.398084 -0.81386,-0.596915 -1.4925,-0.596915l-1.86152 0zm21.2143 0l-4.49603 0 0 14.9621c0,1.24101 -0.152072,2.2596 -0.456638,3.05577 -0.304144,0.796168 -0.714023,1.42257 -1.22922,1.87921 -0.515192,0.456638 -1.10621,0.778475 -1.77347,0.965932 -0.667264,0.187036 -1.36402,0.280976 -2.08983,0.280976 -0.351325,0 -0.667264,0 -0.94824,0 -0.280976,0 -0.585541,-0.0235902 -0.913276,-0.0703492l0 -3.51241c0.210626,0.0235902 0.433048,0.0353852 0.667264,0.0353852 0.234217,0 0.456638,0 0.667264,0 0.60871,0 1.1298,-0.152493 1.56285,-0.456638 0.433469,-0.304566 0.649993,-0.936866 0.649993,-1.8969l0 -18.7554 12.2226 0 0 24.586 -3.86331 0 0 -21.0736zm10.5368 6.84873l5.30315 0 0 3.51241 -5.30315 0 0 7.20005 6.67306 0 0 3.51241 -10.5368 0 0 -24.586 10.5368 0 0 3.51241 -6.67306 0 0 6.84873zm12.82 14.2249l-3.86373 0 0 -24.586 3.86373 0 0 10.5368 4.3903 0 0 -10.5368 3.93366 0 0 24.586 -3.93366 0 0 -10.5368 -4.3903 0 0 10.5368zm14.9974 0l-3.86373 0 0 -24.586 3.86373 0 0 10.5368 4.3903 0 0 -10.5368 3.93366 0 0 24.586 -3.93366 0 0 -10.5368 -4.3903 0 0 10.5368zm16.7183 -21.0736c-0.679059,0 -1.17656,0.198831 -1.4925,0.596915 -0.316361,0.398084 -0.474331,1.04218 -0.474331,1.93186l0 2.42347c0,0.983625 0.204729,1.66226 0.614608,2.03718 0.409879,0.374494 0.977728,0.561951 1.70355,0.561951l1.51019 0 0 -7.55138 -1.86152 0zm-6.28678 21.0736c0.187036,-0.468433 0.304144,-0.930547 0.350904,-1.38719 0.0467591,-0.456638 0.0703492,-0.989523 0.0703492,-1.59823l0 -3.79338c0,-1.28777 0.18156,-2.38261 0.544258,-3.28409 0.36312,-0.901481 1.03628,-1.55105 2.01991,-1.94914 -1.68627,-0.796168 -2.5292,-2.45843 -2.5292,-4.98721l0 -1.93186c0,-1.8969 0.45074,-3.31315 1.35222,-4.25002 0.901481,-0.936445 2.35944,-1.40488 4.37302,-1.40488l5.83014 0 0 24.586 -3.86331 0 0 -10.0098 -1.33453 0c-0.890107,0 -1.53378,0.233795 -1.93186,0.702228 -0.398084,0.468433 -0.596915,1.27597 -0.596915,2.42347l0 3.86373c0,0.491602 -0.00589754,0.901481 -0.0176926,1.22922 -0.0117951,0.327735 -0.0353852,0.596915 -0.0703492,0.807541 -0.034964,0.211048 -0.0762467,0.38671 -0.123006,0.526987 -0.0467591,0.140698 -0.0935181,0.292771 -0.140277,0.456638l-3.93366 0z"/>
  </g>
  <path class="fil1" d="M383.803 49.284l-2.74657 0 0 -17.4774 8.66348 0 0 17.4774 -2.79628 0 0 -14.9806 -3.12064 0 0 14.9806zm11.9594 -17.4774c1.38129,0 2.40914,0.366069 3.08315,1.09863 0.674426,0.732137 1.01143,1.80591 1.01143,3.2209l0 2.27182c0,1.41499 -0.337002,2.48876 -1.01143,3.2209 -0.674004,0.732558 -1.70186,1.09863 -3.08315,1.09863l-1.2983 0 0 6.56649 -2.74657 0 0 -17.4774 4.04487 0zm-1.2983 2.49676l0 5.91734 1.2983 0c0.432627,0 0.765416,-0.116687 0.998369,-0.34964 0.233374,-0.232953 0.34964,-0.665579 0.34964,-1.2983l0 -2.62146c0,-0.632722 -0.116266,-1.06535 -0.34964,-1.2983 -0.232953,-0.232953 -0.565742,-0.34964 -0.998369,-0.34964l-1.2983 0zm9.13823 10.961c0,0.6323 0.128903,1.07756 0.38671,1.33537 0.258228,0.258228 0.603655,0.387131 1.03628,0.387131 0.433048,0 0.778054,-0.128903 1.03628,-0.387131 0.257807,-0.257807 0.387131,-0.703071 0.387131,-1.33537l0 -9.43817c0,-0.6323 -0.129325,-1.07756 -0.387131,-1.33537 -0.258228,-0.258228 -0.603234,-0.387131 -1.03628,-0.387131 -0.432627,0 -0.778054,0.128903 -1.03628,0.387131 -0.257807,0.257807 -0.38671,0.703071 -0.38671,1.33537l0 9.43817zm-2.74657 -9.26335c0,-1.41457 0.358065,-2.50098 1.07377,-3.25797 0.715708,-0.757412 1.74778,-1.13612 3.09579,-1.13612 1.34843,0 2.3805,0.378706 3.09621,1.13612 0.715708,0.756991 1.07335,1.8434 1.07335,3.25797l0 9.08853c0,1.41457 -0.357644,2.50098 -1.07335,3.25797 -0.715708,0.757412 -1.74778,1.13612 -3.09621,1.13612 -1.34801,0 -2.38008,-0.378706 -3.09579,-1.13612 -0.715708,-0.756991 -1.07377,-1.8434 -1.07377,-3.25797l0 -9.08853zm18.0267 6.76658l0 2.32194c0,1.41457 -0.345427,2.50098 -1.03628,3.25797 -0.690854,0.757412 -1.71029,1.13612 -3.05872,1.13612 -1.34801,0 -2.36744,-0.378706 -3.05829,-1.13612 -0.690854,-0.756991 -1.03628,-1.8434 -1.03628,-3.25797l0 -9.08853c0,-1.41457 0.345427,-2.50098 1.03628,-3.25797 0.690854,-0.757412 1.71029,-1.13612 3.05829,-1.13612 1.34843,0 2.36786,0.378706 3.05872,1.13612 0.690854,0.756991 1.03628,1.8434 1.03628,3.25797l0 1.69807 -2.5966 0 0 -1.87289c0,-0.6323 -0.129325,-1.07756 -0.387131,-1.33537 -0.258228,-0.258228 -0.603234,-0.387131 -1.03628,-0.387131 -0.432627,0 -0.778054,0.128903 -1.03628,0.387131 -0.257807,0.257807 -0.38671,0.703071 -0.38671,1.33537l0 9.43817c0,0.6323 0.128903,1.07335 0.38671,1.32315 0.258228,0.249803 0.603655,0.374494 1.03628,0.374494 0.433048,0 0.778054,-0.124691 1.03628,-0.374494 0.257807,-0.249803 0.387131,-0.690854 0.387131,-1.32315l0 -2.49676 2.5966 0zm0.99879 -10.961l8.48908 0 0 2.49676 -2.87168 0 0 14.9806 -2.74615 0 0 -14.9806 -2.87126 0 0 -2.49676zm12.5584 17.4774l-2.82113 0 0 -17.4774 2.44664 0 0 10.4614 2.82155 -10.4614 3.44543 0 0 17.4774 -2.47191 0 0 -12.6586 -3.42057 12.6586zm17.0532 -17.4774l-2.87126 8.48908 3.07093 8.98827 -2.89611 0 -2.24738 -6.91613 -2.27182 6.91613 -2.57175 0 3.07093 -8.98827 -2.87126 -8.48908 2.8464 0 2.07214 6.4418 2.12227 -6.4418 2.54689 0z"/>
  <path class="fil0" d="M441.844 76.9692l-3.536 0 0 -21.9085 3.06714 0 0 13.1136 3.536 -13.1136 4.31953 0 0 21.9085 -3.09873 0 0 -15.8682 -4.28793 15.8682zm-11.9867 -8.73257l-1.06408 2.00306 0 6.72951 -3.4429 0 0 -21.9085 3.4429 0 0 9.54517 4.56975 -9.54517 3.37971 0 -4.7888 9.76506 4.7888 12.1435 -3.53642 0 -3.34896 -8.73257zm-17.1517 -7.91829c0,-1.7739 0.448634,-3.13496 1.3459,-4.08404 0.89769,-0.949504 2.19136,-1.42426 3.881,-1.42426 1.69007,0 2.98373,0.474752 3.881,1.42426 0.897268,0.949082 1.3459,2.31015 1.3459,4.08404l0 11.3924c0,1.77347 -0.448634,3.13538 -1.3459,4.08447 -0.897268,0.949925 -2.19094,1.42426 -3.881,1.42426 -1.68964,0 -2.98331,-0.474331 -3.881,-1.42426 -0.897268,-0.949082 -1.3459,-2.31099 -1.3459,-4.08447l0 -11.3924zm3.4429 11.6118c0,0.792376 0.161761,1.35054 0.484862,1.67448 0.323522,0.323522 0.75657,0.485283 1.29914,0.485283 0.542995,0 0.9752,-0.161761 1.29914,-0.485283 0.323101,-0.323943 0.485283,-0.882103 0.485283,-1.67448l0 -11.8309c0,-0.793219 -0.162182,-1.35138 -0.485283,-1.67448 -0.323943,-0.323101 -0.756149,-0.485283 -1.29914,-0.485283 -0.542573,0 -0.975621,0.162182 -1.29914,0.485283 -0.323101,0.323101 -0.484862,0.881261 -0.484862,1.67448l0 11.8309zm-11.4551 -13.7404l0 7.41826 1.62772 0c0.542152,0 0.959614,-0.146175 1.25154,-0.438524 0.292349,-0.291928 0.438103,-0.834502 0.438103,-1.62772l0 -3.28577c0,-0.793219 -0.145753,-1.33537 -0.438103,-1.62772 -0.291928,-0.291928 -0.70939,-0.438524 -1.25154,-0.438524l-1.62772 0zm1.62772 -3.12907c1.73135,0 3.02038,0.458744 3.86499,1.37708 0.845033,0.917488 1.26755,2.26339 1.26755,4.03686l0 2.84851c0,1.77347 -0.422516,3.11938 -1.26755,4.03771 -0.844612,0.91791 -2.13364,1.37708 -3.86499,1.37708l-1.62772 0 0 8.23128 -3.44248 0 0 -21.9085 5.0702 0zm-13.5209 13.1759l-1.06408 2.00306 0 6.72951 -3.44248 0 0 -21.9085 3.44248 0 0 9.54517 4.56975 -9.54517 3.37971 0 -4.7888 9.76506 4.7888 12.1435 -3.53642 0 -3.34896 -8.73257z"/>
  <path class="fil2" d="M408.353 15.0539c5.28335,-8.64705 15.2165,-14.4047 25.3506,-14.8374 4.63968,-0.685378 9.26924,0.432627 13.8773,0.906957 7.36055,1.37118 14.9317,3.04776 21.28,7.20216 3.71208,2.50982 6.8125,5.81034 9.62773,9.25871 4.48171,5.48345 5.55717,12.7703 6.48519,19.5613 0.92802,6.53784 0.347955,13.2867 -2.23559,19.3924 1.43437,0.601128 2.86831,1.21279 4.30268,1.83498 -2.29878,3.08947 -5.00912,5.87353 -8.22538,7.98274 -5.40973,3.66953 -9.8809,8.49919 -14.7843,12.7488 -1.60287,1.86657 -3.58528,-0.0631879 -3.89111,-1.8771 -1.50766,-5.46238 -1.23385,-11.2196 -2.58354,-16.714 -0.92802,-3.62741 -2.02454,-7.21269 -3.17414,-10.7874 3.36412,0.210626 6.72783,0.432205 10.1025,0.611659 0.379549,-13.1498 -0.105734,-27.7231 -8.61546,-38.5425 -1.55021,-1.92976 -3.42731,-5.18815 -6.34828,-3.60634 -7.85594,2.95298 -14.5311,8.57334 -19.9514,14.8896 -6.99153,-2.83672 -14.7738,-4.01749 -21.2168,-8.02444m24.5704 -12.0638c-0.938551,0.643253 -1.118,3.34264 0.463799,3.04734 0.959614,-0.632722 1.08641,-3.33211 -0.463799,-3.04734m2.14038 -0.569534c-0.0206414,4.00696 -0.221579,7.99327 -0.474331,11.9901l1.0228 -0.200938c-0.158391,-3.97494 0.189985,-7.95072 0.601128,-11.8945l-1.1496 0.105313m2.07762 10.2815c0.980676,-3.63794 1.56074,-7.39214 1.66605,-11.1674 -2.07762,3.34306 -1.56074,7.43427 -1.66605,11.1674m3.16319 -9.90197c-0.811754,2.0039 -1.09652,4.67169 -0.210626,6.66464 1.46554,-1.11758 1.40235,-5.47292 0.210626,-6.66464m2.15134 6.88622c2.24612,-2.04602 1.68712,-5.16709 1.52915,-7.85636 -1.74019,2.25707 -1.60287,5.15655 -1.52915,7.85636m-12.8967 -6.8542c0.221579,5.68354 -0.23211,11.4307 0.685378,17.0721 0.991208,-1.9087 0.453689,-3.97536 0.337423,-5.96831 -0.379549,-3.72261 0.39008,-7.42374 0.759519,-11.1148l-1.78232 0.0109526m-6.27414 8.01391c0.147438,3.16361 -0.527408,6.81208 2.05613,9.22712 -0.0105313,-5.49398 0.0947819,-10.988 -0.0210626,-16.4819 -2.8047,1.41288 -1.83498,4.73446 -2.03507,7.25481m27.4172 -7.13897c6.66464,6.01085 11.937,13.8668 13.6663,22.7881 1.60287,8.35176 2.55195,16.851 2.56248,25.3611 -2.64673,1.97188 -6.81208,-0.0214839 -9.99675,0.179032 3.11095,8.10911 3.31105,16.8619 5.55759,25.1606 7.26535,-5.31495 14.0142,-11.3043 20.51,-17.5363 -0.885894,-0.305829 -2.64673,-0.938551 -3.53263,-1.25491 3.00564,-5.52557 4.42905,-11.7896 3.87005,-18.0743 -0.643253,-7.8353 -1.44448,-16.4824 -6.93845,-22.5981 -2.79459,-3.24786 -5.81034,-6.422 -9.59614,-8.51015 -4.92487,-2.95256 -10.6084,-4.13375 -16.1024,-5.51504m-29.9692 2.01443c-0.422095,4.30225 -1.04429,8.9314 0.959614,12.9493 0.358486,-4.32374 0.337423,-8.77343 -0.959614,-12.9493m-5.1039 7.318c-0.432205,-0.189564 -1.30757,-0.559002 -1.74019,-0.748566 -0.896005,0.685378 -1.7819,1.39182 -2.66779,2.09826 1.31852,0.453689 2.6362,0.906957 3.96483,1.36065 0.232531,-0.137328 0.696331,-0.411564 0.91791,-0.548892 1.07546,0.474752 1.87668,1.40277 2.82576,2.08815 -0.274236,-2.99469 -0.39008,-6.01043 -0.643253,-9.00554 -2.56248,0.580065 -0.706441,4.90338 -2.65726,4.75594m11.8001 5.62077c-0.411564,1.47607 0.126376,2.00348 1.59234,1.57085 0.40019,-1.47607 -0.137328,-2.00348 -1.59234,-1.57085z"/>
  <path class="fil3 str0" d="M328.219 59.9784c2.51656,2.12311 5.26903,3.8334 8.25697,5.13044 2.98837,1.29788 5.89796,1.94661 8.72878,1.94661 3.69607,0 6.70339,-0.590175 9.02323,-1.76926 2.32026,-1.17993 3.47997,-2.94919 3.47997,-5.30778 0,-1.41583 -0.294877,-2.67369 -0.884631,-3.77485 -0.589754,-1.10073 -1.67111,-2.04476 -3.24365,-2.83082 -1.57296,-0.786479 -3.69607,-1.37623 -6.36976,-1.76968 -2.67369,-0.392608 -6.09426,-0.589333 -10.2617,-0.589333l0 -14.1549c6.76237,0 11.52,-0.766259 14.2725,-2.30004 2.75204,-1.53336 4.12828,-3.5975 4.12828,-6.19284 0,-2.28024 -0.826077,-3.99053 -2.47697,-5.13044 -1.65131,-1.14033 -3.97115,-1.71071 -6.95952,-1.71071 -2.75204,0 -5.26861,0.511401 -7.54885,1.53336 -2.28066,1.02238 -4.71845,2.55574 -7.31337,4.60008l-10.1442 -12.2669c3.8532,-3.06714 7.92292,-5.44553 12.2087,-7.13644 4.2854,-1.69049 8.86568,-2.53594 13.7413,-2.53594 4.325,0 8.25697,0.471803 11.7955,1.41541 3.53852,0.943606 6.56607,2.30004 9.08221,4.0693 2.51656,1.76926 4.46317,3.97157 5.83898,6.60566 1.37623,2.63409 2.06414,5.64226 2.06414,9.02365 0,3.6173 -1.15971,6.76237 -3.47955,9.43606 -2.31984,2.67369 -5.72061,4.91518 -10.2027,6.72361l0 0.471803c4.63926,1.33663 8.47266,3.47955 11.5002,6.42832 3.02754,2.94919 4.54153,6.78259 4.54153,11.501 0,3.53852 -0.845454,6.66422 -2.53594,9.37709 -1.69091,2.71329 -3.95177,5.01291 -6.78259,6.90054 -2.83082,1.88721 -6.09426,3.30262 -9.79033,4.24623 -3.69565,0.943606 -7.54927,1.41541 -11.5592,1.41541 -6.36976,0 -11.9332,-0.943606 -16.6913,-2.83082 -4.75721,-1.88763 -8.6302,-4.48213 -11.6181,-7.78517l9.20016 -12.7387z"/>
 </g>
</svg>
