<?xml version="1.0" encoding="UTF-8"?>
<!DOCTYPE svg PUBLIC "-//W3C//DTD SVG 1.1//EN" "http://www.w3.org/Graphics/SVG/1.1/DTD/svg11.dtd">
<!-- Creator: CorelDRAW -->
<svg xmlns="http://www.w3.org/2000/svg" xml:space="preserve" width="60px" height="0px" style="shape-rendering:geometricPrecision; text-rendering:geometricPrecision; image-rendering:optimizeQuality; fill-rule:evenodd; clip-rule:evenodd"
viewBox="0 0 1.24057 1.24054"
 xmlns:xlink="http://www.w3.org/1999/xlink">
 <defs>
  <style type="text/css">
   <![CDATA[
    .fil0 {fill:white}
   ]]>
  </style>
 </defs>
 <g id="Слой_x0020_1">
  <metadata id="CorelCorpID_0Corel-Layer"/>
  <path class="fil0" d="M0.620296 0c0.342493,0 0.620272,0.277755 0.620272,0.620272 0,0.342517 -0.277779,0.620272 -0.620272,0.620272 -0.342517,0 -0.620296,-0.277755 -0.620296,-0.620272 0,-0.342517 0.277779,-0.620272 0.620296,-0.620272zm-0.365277 0.505766c0.0637366,0.189989 0.21961,0.394361 0.38596,0.506083 0.0594386,0.0399269 0.120709,0.0619783 0.191625,0.0572164 0.0653971,-0.00439563 0.12928,-0.0245667 0.155239,-0.0675461 0.00598294,-0.00991458 0.00996342,-0.0210502 0.0114775,-0.03348l0.00578757 -0.0475949c0.00429795,-0.0353115 -0.0773874,-0.0710382 -0.133481,-0.103273 -0.0505985,-0.0290844 -0.0540662,-0.0461541 -0.109085,-0.0166301 -0.0330893,0.0177534 -0.0771677,0.0407816 -0.085788,0.039756 -0.0556535,-0.0067888 -0.25502,-0.268182 -0.246814,-0.32364 0.00126985,-0.00859589 0.0351406,-0.0450063 0.0610259,-0.0722104 0.0430283,-0.0452749 0.0274727,-0.0531382 0.0128206,-0.109622 -0.0162638,-0.0626132 -0.0291088,-0.150843 -0.0642982,-0.156045l-0.0474239 -0.00700858c-0.012381,-0.00183151 -0.0241759,-0.000927965 -0.0353115,0.00222223 -0.0483275,0.0136753 -0.0846891,0.0699393 -0.106203,0.131844 -0.0233701,0.0671066 -0.0182907,0.13204 0.00446889,0.199928z"/>
 </g>
</svg>
