<?xml version="1.0" encoding="UTF-8"?>
<!DOCTYPE svg PUBLIC "-//W3C//DTD SVG 1.1//EN" "http://www.w3.org/Graphics/SVG/1.1/DTD/svg11.dtd">
<!-- Creator: CorelDRAW -->
<svg xmlns="http://www.w3.org/2000/svg" xml:space="preserve" width="8.4668mm" height="8.4668mm" style="shape-rendering:geometricPrecision; text-rendering:geometricPrecision; image-rendering:optimizeQuality; fill-rule:evenodd; clip-rule:evenodd"
viewBox="0 0 0.979768 0.979768"
 xmlns:xlink="http://www.w3.org/1999/xlink">
 <defs>
  <style type="text/css">
   <![CDATA[
    .fil1 {fill:none}
    .fil0 {fill:white;fill-rule:nonzero}
   ]]>
  </style>
 </defs>
 <g id="Слой_x0020_1">
  <metadata id="CorelCorpID_0Corel-Layer"/>
  <g id="_173925224">
   <path id="_155385992" class="fil0" d="M0.0497475 0.160097l0.880308 0c0.0127522,0 0.0230975,0.0103453 0.0230975,0.0231091l0 0.613368c0,0.0127638 -0.0103453,0.0231091 -0.0230975,0.0231091l-0.880308 0c-0.0127638,0 -0.0231091,-0.0103453 -0.0231091,-0.0231091l0 -0.613368c0,-0.0127638 0.0103453,-0.0231091 0.0231091,-0.0231091zm0.656103 0.163777c-0.012162,-0.00373772 -0.0189895,-0.0166288 -0.0152517,-0.0287908 0.00373772,-0.012162 0.0166172,-0.0189895 0.0287793,-0.0152517l0.104737 0.0322161c0.00628353,0.00171264 0.0118033,0.0060521 0.0148004,0.0124051 0.00266153,0.00564708 0.00283511,0.011838 0.000960466,0.0173115l-0.0322161 0.104749c-0.00373772,0.012162 -0.0166288,0.019001 -0.0287908,0.0152633 -0.012162,-0.00373772 -0.0189895,-0.0166288 -0.0152517,-0.0287908l0.0170454 -0.0554525 -0.555474 0.263376 0.0487639 0.0149972c0.012162,0.00373772 0.0189895,0.0166288 0.0152517,0.0287908 -0.00373772,0.012162 -0.0166288,0.0189895 -0.0287908,0.0152517l-0.104726 -0.0322161c-0.0062951,-0.00170107 -0.0118149,-0.0060521 -0.014812,-0.0124051 -0.00266153,-0.00564708 -0.00283511,-0.011838 -0.000960466,-0.0173115l0.0322277 -0.104749c0.00373772,-0.012162 0.0166172,-0.0189895 0.0287793,-0.0152517 0.012162,0.00373772 0.0189895,0.0166288 0.0152517,0.0287908l-0.0170454 0.0554409 0.555474 -0.263376 -0.0487523 -0.0149972zm0.201096 -0.11757l-0.834101 0 0 0.567173 0.834101 0 0 -0.567173z"/>
   <rect id="_177719272" class="fil1" width="0.979757" height="0.979757"/>
  </g>
 </g>
</svg>
