<?xml version="1.0" encoding="UTF-8"?>
<!DOCTYPE svg PUBLIC "-//W3C//DTD SVG 1.1//EN" "http://www.w3.org/Graphics/SVG/1.1/DTD/svg11.dtd">
<!-- Creator: CorelDRAW -->
<svg xmlns="http://www.w3.org/2000/svg" xml:space="preserve" width="8.4668mm" height="8.4668mm" style="shape-rendering:geometricPrecision; text-rendering:geometricPrecision; image-rendering:optimizeQuality; fill-rule:evenodd; clip-rule:evenodd"
viewBox="0 0 1.46245 1.46245"
 xmlns:xlink="http://www.w3.org/1999/xlink">
 <defs>
  <style type="text/css">
   <![CDATA[
    .fil1 {fill:none}
    .fil0 {fill:white;fill-rule:nonzero}
   ]]>
  </style>
 </defs>
 <g id="Слой_x0020_1">
  <metadata id="CorelCorpID_0Corel-Layer"/>
  <g id="_157325552">
   <path id="_155387112" class="fil0" d="M0.165784 0.186926l0.373161 0.11628 0.373161 -0.11628 0.000155455 -6.90911e-005 1.72728e-005 0 0.000328183 -0.000120909 0.000155455 -5.18183e-005 0.000172728 -5.18183e-005 0.000172728 -6.90911e-005 0.000328183 -0.000103637 0.000172728 -6.90911e-005 0.000172728 -5.18183e-005 0.000345455 -0.000103637 0.000172728 -5.18183e-005 0.000155455 -5.18183e-005 0.000172728 -5.18183e-005 0.000172728 -5.18183e-005 0.000172728 -3.45455e-005 0.000172728 -5.18183e-005 0.000172728 -5.18183e-005 0.000172728 -3.45455e-005 0.000172728 -5.18183e-005 0.00019 -3.45455e-005 0.000172728 -5.18183e-005 0.000345455 -8.63638e-005 0.000172728 -3.45455e-005 0.000172728 -3.45455e-005 0.00019 -3.45455e-005 0.000120909 -3.45455e-005 5.18183e-005 0 0.000172728 -5.18183e-005 0.000172728 -1.72728e-005 0.00019 -3.45455e-005 0 -1.72728e-005 0.000345455 -5.18183e-005 0.00019 -3.45455e-005 0.000172728 -3.45455e-005 0.00019 -1.72728e-005 8.63638e-005 -1.72728e-005 8.63638e-005 -1.72728e-005 0.000172728 -1.72728e-005 0.000345455 -5.18183e-005 1.72728e-005 0 0.000172728 -3.45455e-005 1.72728e-005 0 0.000172728 -1.72728e-005 0.00019 -1.72728e-005 0.00019 -1.72728e-005 0.000172728 -3.45455e-005 6.90911e-005 0 0.000120909 -1.72728e-005 0.000362728 -3.45455e-005 0.00019 -1.72728e-005 0.000138182 0 3.45455e-005 0 0.00019 -1.72728e-005 0.00019 -1.72728e-005 0.000172728 0 0.00019 -1.72728e-005 3.45455e-005 0 0.000155455 -1.72728e-005 0.00019 0 0.000172728 0 0.00019 -1.72728e-005 0.000120909 0 6.90911e-005 0 0.000742729 -1.72728e-005 0.000760002 1.72728e-005 6.90911e-005 0 0.000120909 0 0.000172728 1.72728e-005 0.00019 0 0.00019 0 0.000155455 1.72728e-005 3.45455e-005 0 0.000172728 1.72728e-005 0.00019 0 0.00019 1.72728e-005 0.000172728 1.72728e-005 5.18183e-005 0 0.000138182 0 0.00019 1.72728e-005 0.000362728 3.45455e-005 0.000120909 1.72728e-005 6.90911e-005 0 0.000172728 3.45455e-005 0.00019 1.72728e-005 0.000172728 1.72728e-005 0.00019 1.72728e-005 0 0 0.000172728 3.45455e-005 3.45455e-005 0 0.000328183 5.18183e-005 0.00019 1.72728e-005 8.63638e-005 1.72728e-005 8.63638e-005 1.72728e-005 0.00019 1.72728e-005 0.000172728 3.45455e-005 0.000172728 3.45455e-005 0.000362728 5.18183e-005 0 1.72728e-005 0.000172728 3.45455e-005 0.00019 1.72728e-005 0.000172728 5.18183e-005 5.18183e-005 0 0.000120909 3.45455e-005 0.000172728 3.45455e-005 0.000172728 3.45455e-005 0.00019 3.45455e-005 0.000345455 8.63638e-005 0.000172728 5.18183e-005 0.000172728 3.45455e-005 0.000172728 5.18183e-005 0.000172728 3.45455e-005 0.000172728 5.18183e-005 0.000172728 5.18183e-005 0.000172728 3.45455e-005 0.000172728 5.18183e-005 0.000172728 5.18183e-005 0.000172728 5.18183e-005 0.000172728 5.18183e-005 0.000345455 0.000103637 0.000172728 5.18183e-005 0.000155455 6.90911e-005 0.000345455 0.000103637 0.000172728 6.90911e-005 0.000155455 5.18183e-005 0.000172728 5.18183e-005 0.00031091 0.000120909 3.45455e-005 0 0.000155455 6.90911e-005 0.382661 0.119251c0.01368,0.0042491 0.0224546,0.0168755 0.0224546,0.0305037l5.18183e-005 0 0 0.90891c0,0.01767 -0.0143364,0.0320064 -0.0320064,0.0320064 -0.00400728,0 -0.00784184,-0.000742729 -0.0113828,-0.00209l-0.373161 -0.11628 -0.373161 0.11628 -0.000155455 6.90911e-005 -1.72728e-005 0 -0.000328183 0.000120909 -0.000155455 5.18183e-005 -0.000172728 6.90911e-005 -0.000172728 5.18183e-005 -0.000328183 0.000120909 -0.000172728 5.18183e-005 -0.000172728 5.18183e-005 -0.000345455 0.000103637 -0.000172728 5.18183e-005 -0.000155455 5.18183e-005 -0.000172728 5.18183e-005 -0.000172728 5.18183e-005 -0.000172728 5.18183e-005 -0.000172728 3.45455e-005 -0.000172728 5.18183e-005 -0.00019 5.18183e-005 -0.000172728 3.45455e-005 -0.000172728 5.18183e-005 -0.000172728 3.45455e-005 -0.000345455 8.63638e-005 -0.000172728 3.45455e-005 -0.000172728 3.45455e-005 -0.00019 5.18183e-005 -0.000120909 1.72728e-005 -5.18183e-005 1.72728e-005 -0.000172728 3.45455e-005 -0.00019 3.45455e-005 -0.000172728 3.45455e-005 -3.45455e-005 0 -0.000328183 5.18183e-005 -0.000172728 3.45455e-005 -0.000172728 3.45455e-005 -0.00019 1.72728e-005 -8.63638e-005 1.72728e-005 -8.63638e-005 1.72728e-005 -0.00019 3.45455e-005 -0.000328183 3.45455e-005 -3.45455e-005 1.72728e-005 -0.000172728 1.72728e-005 0 0 -0.00019 1.72728e-005 -0.000172728 1.72728e-005 -0.00019 3.45455e-005 -0.000172728 1.72728e-005 -6.90911e-005 0 -0.000120909 1.72728e-005 -0.000362728 3.45455e-005 -0.00019 1.72728e-005 -0.000138182 0 -3.45455e-005 1.72728e-005 -0.00019 0 -0.00019 1.72728e-005 -0.000172728 1.72728e-005 -0.00019 0 -3.45455e-005 0 -0.000155455 1.72728e-005 -0.00019 0 -0.000172728 1.72728e-005 -0.00019 0 -0.000120909 0 -6.90911e-005 0 -0.000742729 1.72728e-005 -0.000760002 -1.72728e-005 -6.90911e-005 0 -0.000120909 0 -0.000172728 0 -0.00019 -1.72728e-005 -0.00019 0 -0.000155455 -1.72728e-005 -3.45455e-005 0 -0.000172728 0 -0.00019 -1.72728e-005 -0.00019 -1.72728e-005 -0.00019 0 -3.45455e-005 -1.72728e-005 -0.000138182 0 -0.00019 -1.72728e-005 -0.000362728 -3.45455e-005 -0.000120909 -1.72728e-005 -6.90911e-005 0 -0.000172728 -1.72728e-005 -0.00019 -3.45455e-005 -0.000172728 -1.72728e-005 -0.00019 -1.72728e-005 0 0 -0.000172728 -1.72728e-005 -3.45455e-005 -1.72728e-005 -0.000328183 -3.45455e-005 -0.00019 -3.45455e-005 -8.63638e-005 -1.72728e-005 -8.63638e-005 -1.72728e-005 -0.00019 -1.72728e-005 -0.000172728 -3.45455e-005 -0.000172728 -3.45455e-005 -0.000328183 -5.18183e-005 -3.45455e-005 0 -0.000172728 -3.45455e-005 -0.00019 -3.45455e-005 -0.000172728 -3.45455e-005 -5.18183e-005 -1.72728e-005 -0.000120909 -1.72728e-005 -0.000172728 -5.18183e-005 -0.00019 -3.45455e-005 -0.000172728 -3.45455e-005 -0.000345455 -8.63638e-005 -0.000172728 -3.45455e-005 -0.000172728 -5.18183e-005 -0.000172728 -3.45455e-005 -0.000172728 -5.18183e-005 -0.00019 -5.18183e-005 -0.000172728 -3.45455e-005 -0.000172728 -5.18183e-005 -0.000155455 -5.18183e-005 -0.000172728 -5.18183e-005 -0.000172728 -5.18183e-005 -0.000172728 -5.18183e-005 -0.000345455 -0.000103637 -0.000172728 -5.18183e-005 -0.000172728 -5.18183e-005 -0.000328183 -0.000120909 -0.000172728 -5.18183e-005 -0.000172728 -6.90911e-005 -0.000155455 -5.18183e-005 -0.000328183 -0.000120909 -1.72728e-005 0 -0.000155455 -6.90911e-005 -0.382661 -0.119251c-0.01368,-0.0042491 -0.0224546,-0.0168755 -0.0224546,-0.0304864l-5.18183e-005 0 0 -0.908928c0,-0.01767 0.0143364,-0.0320064 0.0320064,-0.0320064 0.00400728,0 0.00784184,0.000742729 0.0113828,0.00209zm0.789694 0.0733574l0 0.841996 0.320531 0.0998711 0 -0.841978 -0.320531 -0.0998884zm-0.384544 0.0998884l0 0.841978 0.320548 -0.0998711 0 -0.841996 -0.320548 0.0998884zm-0.0639956 0l-0.320531 -0.0998884 0 0.841996 0.320531 0.0998711 0 -0.841978z"/>
   <rect id="_173925280" class="fil1" width="1.46243" height="1.46243"/>
  </g>
 </g>
</svg>
