<?xml version="1.0" encoding="UTF-8"?>
<!DOCTYPE svg PUBLIC "-//W3C//DTD SVG 1.1//EN" "http://www.w3.org/Graphics/SVG/1.1/DTD/svg11.dtd">
<!-- Creator: CorelDRAW -->
<svg xmlns="http://www.w3.org/2000/svg" xml:space="preserve" width="38.9463mm" height="22.7938mm" style="shape-rendering:geometricPrecision; text-rendering:geometricPrecision; image-rendering:optimizeQuality; fill-rule:evenodd; clip-rule:evenodd"
viewBox="0 0 0.145689 0.0852661"
 xmlns:xlink="http://www.w3.org/1999/xlink">
 <defs>
  <style type="text/css">
   <![CDATA[
    .fil0 {fill:white;fill-rule:nonzero}
   ]]>
  </style>
 </defs>
 <g id="Слой_x0020_1">
  <metadata id="CorelCorpID_0Corel-Layer"/>
  <path class="fil0" d="M0.00363265 0l0.138423 0c0.00200617,0 0.00363265,0.00162648 0.00363265,0.00363265l0 0.0780004c0,0.00200654 -0.00162648,0.00363302 -0.00363265,0.00363302l-0.138423 0c-0.00200617,0 -0.00363265,-0.00162648 -0.00363265,-0.00363302l0 -0.0780004c0,-0.00200617 0.00162648,-0.00363265 0.00363265,-0.00363265zm0.0329845 0.0419919c-0.00200617,0 -0.00363265,-0.00162648 -0.00363265,-0.00363302 0,-0.00200617 0.00162648,-0.00363265 0.00363265,-0.00363265l0.0724544 0c0.00200617,0 0.00363265,0.00162648 0.00363265,0.00363265 0,0.00200654 -0.00162648,0.00363302 -0.00363265,0.00363302l-0.0724544 0zm0.0552222 0.0300129c-0.00200617,0 -0.00363265,-0.00162648 -0.00363265,-0.00363265 0,-0.00200654 0.00162648,-0.00363302 0.00363265,-0.00363302l0.0364919 0c0.00200617,0 0.00363302,0.00162648 0.00363302,0.00363302 0,0.00200617 -0.00162686,0.00363265 -0.00363302,0.00363265l-0.0364919 0zm0 -0.011348c-0.00200617,0 -0.00363265,-0.00162648 -0.00363265,-0.00363265 0,-0.00200654 0.00162648,-0.00363302 0.00363265,-0.00363302l0.0364919 0c0.00200617,0 0.00363302,0.00162648 0.00363302,0.00363302 0,0.00200617 -0.00162686,0.00363265 -0.00363302,0.00363265l-0.0364919 0zm-0.0434639 -0.0301404c-0.00200617,0 -0.00363265,-0.00162648 -0.00363265,-0.00363265 0,-0.00200617 0.00162648,-0.00363265 0.00363265,-0.00363265l0.0489377 0c0.00200617,0 0.00363265,0.00162648 0.00363265,0.00363265 0,0.00200617 -0.00162648,0.00363265 -0.00363265,0.00363265l-0.0489377 0zm0.0900479 -0.0232511l-0.131158 0 0 0.0707351 0.131158 0 0 -0.0707351z"/>
 </g>
</svg>
