<?xml version="1.0" encoding="UTF-8"?>
<!DOCTYPE svg PUBLIC "-//W3C//DTD SVG 1.1//EN" "http://www.w3.org/Graphics/SVG/1.1/DTD/svg11.dtd">
<!-- Creator: CorelDRAW -->
<svg xmlns="http://www.w3.org/2000/svg" xml:space="preserve" width="8.4668mm" height="8.4668mm" style="shape-rendering:geometricPrecision; text-rendering:geometricPrecision; image-rendering:optimizeQuality; fill-rule:evenodd; clip-rule:evenodd"
viewBox="0 0 8.64758 8.64758"
 xmlns:xlink="http://www.w3.org/1999/xlink">
 <defs>
  <style type="text/css">
   <![CDATA[
    .fil1 {fill:none}
    .fil0 {fill:white;fill-rule:nonzero}
   ]]>
  </style>
 </defs>
 <g id="Слой_x0020_1">
  <metadata id="CorelCorpID_0Corel-Layer"/>
  <g id="_157377464">
   <path id="_155385880" class="fil0" d="M0.932596 2.48566l0 4.2814c0,0.0860999 0.0356452,0.164438 0.0930451,0.221225 0.0574,0.0568893 0.137168,0.092228 0.225208,0.092228l6.14588 0c0.0880405,0 0.167808,-0.0353388 0.225208,-0.092228 0.0574,-0.0567871 0.0930451,-0.135125 0.0930451,-0.221225l0 -4.2814c0,-0.0860999 -0.0356452,-0.164335 -0.0930451,-0.221123 -0.0575021,-0.0568893 -0.137168,-0.092228 -0.225208,-0.092228l-0.601474 0c0.0102135,0.0359516 0.0238996,0.0697583 0.0405477,0.100705 0.00183843,0.0034726 0.00367687,0.00684306 0.00561743,0.0101114 0.0183843,-0.00388114 0.0374836,-0.00602597 0.0568893,-0.00602597 0.0775206,0 0.147585,0.0327854 0.198346,0.0857935 0.0505569,0.0528039 0.0819124,0.125831 0.0819124,0.206313 0,0.0805846 -0.0313555,0.153611 -0.0819124,0.206415 -0.0507612,0.0530081 -0.120928,0.0857935 -0.198346,0.0857935 -0.0774184,0 -0.147483,-0.0327854 -0.198244,-0.0857935 -0.0505569,-0.0528039 -0.0819124,-0.125831 -0.0819124,-0.206415 0,-0.0158309 0.00122562,-0.0314576 0.00357473,-0.0466758 -0.0235932,-0.0311512 -0.0450416,-0.0645494 -0.0640387,-0.0998882 -0.0405477,-0.0754779 -0.070269,-0.160046 -0.0865085,-0.250333l-0.422635 0c0.0103157,0.0359516 0.0240018,0.0697583 0.0406498,0.100705 0.00183843,0.0034726 0.00367687,0.00684306 0.0055153,0.0101114 0.0183843,-0.00398327 0.0374836,-0.00602597 0.0569914,-0.00602597 0.0774184,0 0.147483,0.0327854 0.198244,0.0857935 0.0505569,0.0528039 0.0819124,0.125831 0.0819124,0.206313 0,0.0805846 -0.0313555,0.153611 -0.0819124,0.206415 -0.0507612,0.0530081 -0.120826,0.0857935 -0.198244,0.0857935 -0.0774184,0 -0.147585,-0.0327854 -0.198244,-0.0857935 -0.050659,-0.0528039 -0.0820145,-0.125831 -0.0820145,-0.206415 0,-0.0158309 0.00132776,-0.0314576 0.00367687,-0.0466758 -0.0236954,-0.0311512 -0.0451437,-0.0645494 -0.0641409,-0.0998882 -0.0405477,-0.0754779 -0.070269,-0.160046 -0.0865085,-0.250333l-0.407519 0c0.0102135,0.0359516 0.0240018,0.0697583 0.0405477,0.100705 0.00183843,0.0034726 0.00367687,0.00684306 0.00561743,0.0101114 0.0183843,-0.00388114 0.0373815,-0.00602597 0.0569914,-0.00602597 0.0774184,0 0.147483,0.0327854 0.198244,0.0857935 0.0505569,0.0528039 0.0819124,0.125831 0.0819124,0.206313 0,0.0805846 -0.0313555,0.153611 -0.0819124,0.206415 -0.0507612,0.0530081 -0.120826,0.0857935 -0.198244,0.0857935 -0.0775206,0 -0.147585,-0.0327854 -0.198244,-0.0857935 -0.050659,-0.0528039 -0.0820145,-0.125831 -0.0820145,-0.206415 0,-0.0158309 0.00122562,-0.0314576 0.00357473,-0.0466758 -0.0235932,-0.0311512 -0.0450416,-0.0645494 -0.0640387,-0.0998882 -0.0405477,-0.0754779 -0.070269,-0.160046 -0.0865085,-0.250333l-0.422635 0c0.0103157,0.0359516 0.0240018,0.0697583 0.0406498,0.100705 0.00183843,0.0034726 0.00367687,0.00684306 0.0055153,0.0101114 0.0183843,-0.00388114 0.0374836,-0.00602597 0.0569914,-0.00602597 0.0774184,0 0.147483,0.0327854 0.198244,0.0857935 0.050659,0.0528039 0.0819124,0.125831 0.0819124,0.206313 0,0.0805846 -0.0312534,0.153611 -0.0819124,0.206415 -0.0507612,0.0530081 -0.120826,0.0857935 -0.198244,0.0857935 -0.0774184,0 -0.147483,-0.0327854 -0.198244,-0.0857935 -0.050659,-0.0528039 -0.0819124,-0.125831 -0.0819124,-0.206415 0,-0.0158309 0.00122562,-0.0314576 0.00357473,-0.0466758 -0.0236954,-0.0311512 -0.0451437,-0.0645494 -0.0641409,-0.0998882 -0.0405477,-0.0754779 -0.070269,-0.160046 -0.0865085,-0.250333l-0.422533 0c0.0102135,0.0359516 0.0238996,0.0697583 0.0405477,0.100705 0.00183843,0.0034726 0.00367687,0.00684306 0.00561743,0.0101114 0.0183843,-0.00398327 0.0373815,-0.00602597 0.0568893,-0.00602597 0.0774184,0 0.147585,0.0327854 0.198244,0.0857935 0.050659,0.0528039 0.0820145,0.125831 0.0820145,0.206313 0,0.0805846 -0.0313555,0.153611 -0.0820145,0.206415 -0.050659,0.0530081 -0.120826,0.0857935 -0.198244,0.0857935 -0.0774184,0 -0.147483,-0.0327854 -0.198244,-0.0857935 -0.0505569,-0.0528039 -0.0819124,-0.125831 -0.0819124,-0.206415 0,-0.0158309 0.00122562,-0.0314576 0.00357473,-0.0467779 -0.0235932,-0.0310491 -0.0450416,-0.0644473 -0.0640387,-0.099786 -0.0405477,-0.0754779 -0.070269,-0.160046 -0.0865085,-0.250333l-0.422635 0c0.0103157,0.0359516 0.0240018,0.0697583 0.0406498,0.100705 0.0017363,0.0034726 0.00367687,0.00684306 0.0055153,0.0101114 0.0183843,-0.00388114 0.0374836,-0.00602597 0.0569914,-0.00602597 0.0774184,0 0.147483,0.0327854 0.198244,0.0857935 0.0505569,0.0528039 0.0819124,0.125831 0.0819124,0.206313 0,0.0805846 -0.0313555,0.153611 -0.0819124,0.206415 -0.0507612,0.0530081 -0.120826,0.0857935 -0.198244,0.0857935 -0.0774184,0 -0.147585,-0.0327854 -0.198244,-0.0857935 -0.050659,-0.0528039 -0.0820145,-0.125831 -0.0820145,-0.206415 0,-0.0158309 0.00122562,-0.0314576 0.00357473,-0.0466758 -0.0235932,-0.0311512 -0.0450416,-0.0645494 -0.0640387,-0.0998882 -0.0405477,-0.0754779 -0.070269,-0.160046 -0.0865085,-0.250333l-0.422635 0c0.0103157,0.0359516 0.0240018,0.0697583 0.0406498,0.100705 0.00183843,0.0034726 0.00367687,0.00684306 0.00561743,0.0101114 0.0183843,-0.00398327 0.0373815,-0.00602597 0.0568893,-0.00602597 0.0774184,0 0.147585,0.0327854 0.198244,0.0857935 0.050659,0.0528039 0.0819124,0.125831 0.0819124,0.206313 0,0.0805846 -0.0312534,0.153611 -0.0819124,0.206415 -0.050659,0.0530081 -0.120826,0.0857935 -0.198244,0.0857935 -0.0774184,0 -0.147483,-0.0327854 -0.198244,-0.0857935 -0.050659,-0.0528039 -0.0819124,-0.125831 -0.0819124,-0.206415 0,-0.0158309 0.00122562,-0.0314576 0.00357473,-0.0466758 -0.0236954,-0.0311512 -0.0450416,-0.0645494 -0.0640387,-0.0998882 -0.0405477,-0.0754779 -0.0703711,-0.160046 -0.0866106,-0.250333l-0.422533 0c0.0102135,0.0359516 0.0238996,0.0697583 0.0405477,0.100705 0.00183843,0.0034726 0.00367687,0.00684306 0.00561743,0.0101114 0.0183843,-0.00388114 0.0373815,-0.00602597 0.0568893,-0.00602597 0.0775206,0 0.147585,0.0327854 0.198346,0.0857935 0.0505569,0.0528039 0.0819124,0.125831 0.0819124,0.206313 0,0.0805846 -0.0313555,0.153611 -0.0820145,0.206415 -0.050659,0.0530081 -0.120724,0.0857935 -0.198244,0.0857935 -0.0773163,0 -0.147483,-0.0327854 -0.198244,-0.0857935 -0.0505569,-0.0528039 -0.0819124,-0.125831 -0.0819124,-0.206415 0,-0.0158309 0.00122562,-0.0314576 0.00357473,-0.0466758 -0.0235932,-0.0311512 -0.0450416,-0.0645494 -0.0640387,-0.0998882 -0.0405477,-0.0754779 -0.0703711,-0.160046 -0.0865085,-0.250333l-0.00868149 0c-0.0880405,0 -0.167706,0.0353388 -0.225208,0.092228 -0.0574,0.0567871 -0.0930451,0.135125 -0.0930451,0.221123zm6.48405 -0.629561c-0.0184865,-0.0653665 -0.0483099,-0.123379 -0.0864063,-0.170361 -0.0593405,-0.0732309 -0.138802,-0.118477 -0.224391,-0.118477 -0.0660814,0 -0.128588,0.0269637 -0.180983,0.0730266 0.0316619,0.0663879 0.0552551,0.138904 0.0690434,0.215505l0.402821 0c0.00663879,0 0.0132776,0.000102135 0.0199164,0.000306405zm-0.945465 -0.000306405c0.0137882,-0.0766014 0.0373815,-0.149117 0.0690434,-0.215403 -0.0523953,-0.0461651 -0.114902,-0.0731288 -0.180983,-0.0731288 -0.0616896,0 -0.120213,0.0234911 -0.170361,0.0640387 0.0339089,0.068737 0.058932,0.144419 0.0734352,0.224493l0.208866 0zm0.261364 -0.466451c0.105403,-0.0874277 0.233787,-0.138597 0.373304,-0.138597 0.185273,0 0.351039,0.0901853 0.469209,0.235932 0.102033,0.125933 0.168319,0.294047 0.178226,0.479014 0.0326832,0.0222655 0.0632217,0.0473907 0.0912067,0.0750693 0.115311,0.114085 0.186907,0.27168 0.186907,0.444901l0 4.2814c0,0.173221 -0.0715967,0.330816 -0.186907,0.445003 -0.115208,0.114085 -0.273824,0.184865 -0.447761,0.184865l-6.14588 0c-0.174038,0 -0.332552,-0.0707797 -0.447761,-0.184865 -0.115311,-0.114187 -0.186907,-0.271782 -0.186907,-0.445003l0 -4.2814c0,-0.173221 0.0715967,-0.330714 0.186907,-0.444901 0.115311,-0.114085 0.273824,-0.184967 0.447761,-0.184967l0.00868149 0c0.0254317,-0.141355 0.0840572,-0.268615 0.165459,-0.369116 0.11817,-0.145747 0.283936,-0.235932 0.469209,-0.235932 0.139517,0 0.268003,0.0511697 0.373304,0.138597 0.105403,-0.0874277 0.23389,-0.138597 0.373406,-0.138597 0.139517,0 0.267901,0.0511697 0.373304,0.138597 0.105403,-0.0874277 0.233787,-0.138597 0.373304,-0.138597 0.139517,0 0.268003,0.0511697 0.373406,0.138597 0.105403,-0.0874277 0.233787,-0.138597 0.373304,-0.138597 0.139517,0 0.267901,0.0511697 0.373304,0.138597 0.105403,-0.0874277 0.23389,-0.138597 0.373406,-0.138597 0.139414,0 0.267901,0.0511697 0.373304,0.138597 0.105403,-0.0874277 0.233787,-0.138597 0.373304,-0.138597 0.136248,0 0.261875,0.0487185 0.365848,0.132469 0.103974,-0.0837508 0.2296,-0.132469 0.365848,-0.132469 0.139517,0 0.267901,0.0511697 0.373304,0.138597zm-1.00807 0.466451c0.0144011,-0.080074 0.0395263,-0.155756 0.0734352,-0.224493 -0.0501484,-0.0405477 -0.108672,-0.0640387 -0.170361,-0.0640387 -0.0660814,0 -0.128588,0.0269637 -0.180881,0.0730266 0.0316619,0.0663879 0.055153,0.138904 0.0689412,0.215505l0.208866 0zm-4.2811 1.85171c-0.0874277,0 -0.158207,-0.0708818 -0.158207,-0.158309 0,-0.0873256 0.0707797,-0.158207 0.158207,-0.158207l5.77493 0c0.0874277,0 0.158207,0.0708818 0.158207,0.158207 0,0.0874277 -0.0707797,0.158309 -0.158207,0.158309l-5.77493 0zm5.03291 1.35462l0.701464 0 0.0112349 0 0 0.0112349 0 0.650192 0 0.0112349 -0.0112349 0 -0.701464 0 -0.0112349 0 0 -0.0112349 0 -0.650192 0 -0.0112349 0.0112349 0zm0 -0.945567l0.701464 0 0.0112349 0 0 0.0112349 0 0.650295 0 0.0112349 -0.0112349 0 -0.701464 0 -0.0112349 0 0 -0.0112349 0 -0.650295 0 -0.0112349 0.0112349 0zm-2.00256 1.89113l0.701464 0 0.0112349 0 0 0.0111327 0 0.650295 0 0.0112349 -0.0112349 0 -0.701464 0 -0.0112349 0 0 -0.0112349 0 -0.650295 0 -0.0111327 0.0112349 0zm1.00123 -0.945567l0.701566 0 0.0111327 0 0 0.0112349 0 0.650192 0 0.0112349 -0.0111327 0 -0.701566 0 -0.0112349 0 0 -0.0112349 0 -0.650192 0 -0.0112349 0.0112349 0zm0 -0.945567l0.701566 0 0.0111327 0 0 0.0112349 0 0.650295 0 0.0112349 -0.0111327 0 -0.701566 0 -0.0112349 0 0 -0.0112349 0 -0.650295 0 -0.0112349 0.0112349 0zm-4.00513 1.89113l0.701464 0 0.0112349 0 0 0.0111327 0 0.650295 0 0.0112349 -0.0112349 0 -0.701464 0 -0.0112349 0 0 -0.0112349 0 -0.650295 0 -0.0111327 0.0112349 0zm1.00123 0l0.701566 0 0.0112349 0 0 0.0111327 0 0.650295 0 0.0112349 -0.0112349 0 -0.701566 0 -0.0111327 0 0 -0.0112349 0 -0.650295 0 -0.0111327 0.0111327 0zm1.00133 0l0.701464 0 0.0112349 0 0 0.0111327 0 0.650295 0 0.0112349 -0.0112349 0 -0.701464 0 -0.0112349 0 0 -0.0112349 0 -0.650295 0 -0.0111327 0.0112349 0zm-2.00256 -0.945567l0.701464 0 0.0112349 0 0 0.0112349 0 0.650192 0 0.0112349 -0.0112349 0 -0.701464 0 -0.0112349 0 0 -0.0112349 0 -0.650192 0 -0.0112349 0.0112349 0zm1.00123 0l0.701566 0 0.0112349 0 0 0.0112349 0 0.650192 0 0.0112349 -0.0112349 0 -0.701566 0 -0.0111327 0 0 -0.0112349 0 -0.650192 0 -0.0112349 0.0111327 0zm1.00133 0l0.701464 0 0.0112349 0 0 0.0112349 0 0.650192 0 0.0112349 -0.0112349 0 -0.701464 0 -0.0112349 0 0 -0.0112349 0 -0.650192 0 -0.0112349 0.0112349 0zm1.00133 0l0.701464 0 0.0112349 0 0 0.0112349 0 0.650192 0 0.0112349 -0.0112349 0 -0.701464 0 -0.0112349 0 0 -0.0112349 0 -0.650192 0 -0.0112349 0.0112349 0zm-2.00267 -0.945567l0.701566 0 0.0111327 0 0.000102135 0.0112349 0 0.650295 -0.000102135 0.0112349 -0.0111327 0 -0.701566 0 -0.0111327 0 0 -0.0112349 0 -0.650295 0 -0.0112349 0.0111327 0zm1.00133 0l0.701464 0 0.0112349 0 0 0.0112349 0 0.650295 0 0.0112349 -0.0112349 0 -0.701464 0 -0.0112349 0 0 -0.0112349 0 -0.650295 0 -0.0112349 0.0112349 0zm1.00133 0l0.701464 0 0.0112349 0 0 0.0112349 0 0.650295 0 0.0112349 -0.0112349 0 -0.701464 0 -0.0112349 0 0 -0.0112349 0 -0.650295 0 -0.0112349 0.0112349 0zm0.519153 -2.26076c0.0137882,-0.0766014 0.0373815,-0.149117 0.0690434,-0.215505 -0.0523953,-0.046063 -0.114902,-0.0730266 -0.180983,-0.0730266 -0.0661836,0 -0.128588,0.0269637 -0.180983,0.0730266 0.0316619,0.0663879 0.055153,0.138904 0.0689412,0.215505l0.223982 0zm-0.74671 0c0.0137882,-0.0766014 0.0373815,-0.149117 0.0690434,-0.215403 -0.0523953,-0.0461651 -0.114902,-0.0731288 -0.180983,-0.0731288 -0.0660814,0 -0.128588,0.0269637 -0.180983,0.0730266 0.0316619,0.0663879 0.0552551,0.138904 0.0690434,0.215505l0.22388 0zm-0.746608 0c0.0137882,-0.0766014 0.0372793,-0.149117 0.0689412,-0.215505 -0.0522932,-0.046063 -0.1148,-0.0730266 -0.180983,-0.0730266 -0.0660814,0 -0.128588,0.0269637 -0.180881,0.0730266 0.0315598,0.0663879 0.055153,0.138904 0.0689412,0.215505l0.223982 0zm-0.74671 0c0.0137882,-0.0766014 0.0373815,-0.149117 0.0690434,-0.215403 -0.0523953,-0.0461651 -0.114902,-0.0731288 -0.180983,-0.0731288 -0.0661836,0 -0.128588,0.0269637 -0.180983,0.0730266 0.0316619,0.0663879 0.055153,0.138904 0.0689412,0.215505l0.223982 0zm-0.746608 0c0.0136861,-0.0766014 0.0372793,-0.149117 0.0689412,-0.215505 -0.0523953,-0.046063 -0.114902,-0.0730266 -0.180983,-0.0730266 -0.0855893,0 -0.16505,0.0452459 -0.224391,0.118477 -0.0379943,0.04688 -0.0677156,0.104791 -0.0863042,0.170055l0.422737 0z"/>
   <rect id="_97915320" class="fil1" x="5.09803e-005" y="5.09803e-005" width="8.64748" height="8.64748"/>
  </g>
 </g>
</svg>
