<?xml version="1.0" encoding="UTF-8"?>
<!DOCTYPE svg PUBLIC "-//W3C//DTD SVG 1.1//EN" "http://www.w3.org/Graphics/SVG/1.1/DTD/svg11.dtd">
<!-- Creator: CorelDRAW -->
<svg xmlns="http://www.w3.org/2000/svg" xml:space="preserve" width="30.2047mm" height="32.5288mm" style="shape-rendering:geometricPrecision; text-rendering:geometricPrecision; image-rendering:optimizeQuality; fill-rule:evenodd; clip-rule:evenodd"
viewBox="0 0 0.0895735 0.0964657"
 xmlns:xlink="http://www.w3.org/1999/xlink">
 <defs>
  <style type="text/css">
   <![CDATA[
    .fil0 {fill:white;fill-rule:nonzero}
   ]]>
  </style>
 </defs>
 <g id="Слой_x0020_1">
  <metadata id="CorelCorpID_0Corel-Layer"/>
  <path class="fil0" d="M0.0348805 0c0.00924361,0 0.0176578,0.00133687 0.0237875,0.00349786 0.00685308,0.00241603 0.0110929,0.00604408 0.0110929,0.0103103l0 0.00958613 0.000526681 0c0.00522381,0 0.00999301,0.00180987 0.0134674,0.0047256 0.0035898,0.0030127 0.0058184,0.00719946 0.0058184,0.0118337l0 0.0165581c0,0.00463397 -0.00222861,0.00882132 -0.0058184,0.011834 -0.00347473,0.00291573 -0.00824363,0.0047256 -0.0134674,0.0047256l-0.000526681 0 0 0.00958584c0,0.00426624 -0.00423984,0.00789429 -0.0110926,0.0103103 -0.00612979,0.00216099 -0.0145442,0.00349816 -0.0237878,0.00349816 -0.00924391,0 -0.0176584,-0.00133717 -0.0237881,-0.00349816 -0.00685279,-0.00241603 -0.0110923,-0.00604408 -0.0110923,-0.0103103l0 -0.068849c0,-0.00426624 0.00423955,-0.00789429 0.0110926,-0.0103103 0.00612979,-0.00216099 0.0145439,-0.00349786 0.0237878,-0.00349786zm0.0348805 0.0280612l0 0.00414376c0.00322355,9.96424e-005 0.00616063,0.00126154 0.0083323,0.00308387 0.00238786,0.00200382 0.00387034,0.00480004 0.00387034,0.00790348l0 0.0100811c0,0.00310345 -0.00148248,0.00589936 -0.00387034,0.00790319 -0.00217167,0.00182233 -0.00510875,0.00298423 -0.0083323,0.00308417l0 0.00414346 0.000526681 0c0.00409957,0 0.0078074,-0.00139114 0.0104776,-0.00363191 0.00255512,-0.00214409 0.00414139,-0.0050702 0.00414139,-0.00826053l0 -0.0165581c0,-0.00319034 -0.00158627,-0.00611615 -0.00414139,-0.00826053 -0.00267018,-0.00224077 -0.006378,-0.00363191 -0.0104776,-0.00363191l-0.000526681 0zm0 0.0088139l0 0.0227155c0.00209486,-9.40079e-005 0.00397176,-0.000836878 0.00534243,-0.00198721 0.00135318,-0.00113551 0.00219302,-0.00267018 0.00219302,-0.00433l0 -0.0100811c0,-0.00165982 -0.000839843,-0.00319478 -0.00219302,-0.00433029 -0.00137068,-0.00115004 -0.00324757,-0.00189321 -0.00534243,-0.00198692zm-0.00466718 -0.0158903l-8.15526e-005 5.54557e-005 -8.21457e-005 5.54557e-005 -8.27388e-005 5.54557e-005 -0.00016785 0.000109725 -8.45181e-005 5.48626e-005 -7.11731e-006 4.44832e-006 -0.000164291 0.000104091 -8.6594e-005 5.42695e-005 -8.71871e-005 5.36764e-005 -8.77802e-005 5.36764e-005 -8.86699e-005 5.36764e-005 -0.000152726 9.07458e-005 -2.60968e-005 1.54208e-005 -9.01527e-005 5.27868e-005 -5.9311e-005 3.44004e-005 -3.17314e-005 1.83864e-005 -9.16354e-005 5.21936e-005 -1.48277e-005 8.60009e-006 -0.000134636 7.5918e-005 -3.529e-005 1.98692e-005 -9.34148e-005 5.16005e-005 -1.00829e-005 5.63454e-006 -7.44353e-005 4.09246e-005 -0.000159843 8.62974e-005 -0.000120105 6.40558e-005 -0.000148574 7.82905e-005 -0.000118325 6.13868e-005 -3.85521e-005 1.98692e-005 -9.81596e-005 5.01178e-005 -1.72002e-005 8.60009e-006 -8.15526e-005 4.12211e-005 -9.93459e-005 4.95246e-005 -9.96424e-005 4.95246e-005 -8.95595e-005 4.35936e-005 -0.000179416 8.68906e-005 -9.60838e-005 4.5966e-005 -0.000177933 8.33319e-005 -8.60009e-005 4.00349e-005 -0.000190685 8.74837e-005 -5.84213e-005 2.63934e-005 -4.65591e-005 2.10554e-005 -0.000211444 9.40079e-005 -2.93589e-005 1.27519e-005 -1.09725e-005 5.04143e-006 -0.000240506 0.000104091 -4.00349e-005 1.72002e-005 -1.18622e-006 5.9311e-007 -0.000108242 4.5966e-005 -0.000108836 4.56694e-005 -1.3345e-005 5.63454e-006 -0.000113284 4.68557e-005 -0.000203437 8.36285e-005 -4.68557e-005 1.89795e-005 -2.55037e-005 1.03794e-005 -0.000262748 0.000104684 -1.51243e-005 6.22765e-006 -2.78762e-005 1.0676e-005 -0.000250589 9.727e-005 -2.93589e-005 1.12691e-005 -1.66071e-005 6.52421e-006 -6.22765e-006 2.07588e-006 -0.000284693 0.000107649 -8.30353e-006 2.96555e-006 -0.000277872 0.000102311 -3.32141e-005 1.21587e-005 -1.24553e-005 4.44832e-006c-0.000102015,3.67728e-005 -0.000203733,7.3249e-005 -0.000306934,0.000109725 -0.00612979,0.00216099 -0.0145439,0.00349816 -0.0237875,0.00349816 -0.00924391,0 -0.0176581,-0.00133717 -0.0237878,-0.00349816 -0.000102905,-3.64762e-005 -0.000204919,-7.29525e-005 -0.000306638,-0.000109725l-1.27519e-005 -4.44832e-006 -3.32141e-005 -1.21587e-005 -0.000277872 -0.000102311 -8.30353e-006 -2.96555e-006 -0.000284693 -0.000107649 -5.9311e-006 -2.07588e-006 -1.69036e-005 -6.52421e-006 -2.93589e-005 -1.12691e-005 -0.000250589 -9.727e-005 -2.78762e-005 -1.0676e-005 -1.51243e-005 -6.22765e-006 -0.000262748 -0.000104684 -2.55037e-005 -1.03794e-005 -4.68557e-005 -1.89795e-005 -0.000203437 -8.36285e-005 -0.000112987 -4.68557e-005 -1.36415e-005 -5.63454e-006 -0.000108836 -4.56694e-005 -0.000108242 -4.5966e-005 -1.18622e-006 -5.9311e-007 -4.00349e-005 -1.72002e-005 -0.000240506 -0.000104091 -1.09725e-005 -5.04143e-006 -2.90624e-005 -1.27519e-005 -0.00021174 -9.40079e-005 -4.65591e-005 -2.10554e-005 -5.84213e-005 -2.63934e-005 -0.000190685 -8.74837e-005 -8.60009e-005 -4.00349e-005 -0.000177933 -8.33319e-005 -9.60838e-005 -4.5966e-005 -0.000179416 -8.68906e-005 -8.95595e-005 -4.35936e-005 -9.96424e-005 -4.95246e-005 -9.93459e-005 -4.95246e-005 -8.15526e-005 -4.12211e-005 -1.72002e-005 -8.60009e-006 -9.81596e-005 -5.01178e-005 -3.85521e-005 -1.98692e-005 -0.000118029 -6.13868e-005 -0.000148871 -7.82905e-005 -0.000120105 -6.40558e-005 -0.000159843 -8.62974e-005 -7.44353e-005 -4.09246e-005 -1.00829e-005 -5.63454e-006 -9.34148e-005 -5.16005e-005 -3.529e-005 -1.98692e-005 -0.000134636 -7.5918e-005 -1.48277e-005 -8.60009e-006 -9.16354e-005 -5.21936e-005 -3.17314e-005 -1.83864e-005 -5.9311e-005 -3.44004e-005 -9.01527e-005 -5.27868e-005 -2.60968e-005 -1.54208e-005 -0.000152726 -9.07458e-005 -8.83733e-005 -5.36764e-005 -8.80768e-005 -5.36764e-005 -8.71871e-005 -5.36764e-005 -8.6594e-005 -5.42695e-005 -0.000164291 -0.000104091 -7.11731e-006 -4.44832e-006 -8.45181e-005 -5.48626e-005 -0.00016785 -0.000109725 -8.27388e-005 -5.54557e-005 -8.21457e-005 -5.54557e-005 -8.15526e-005 -5.54557e-005 0 0.0616724c0,0.00206995 0.00304799,0.00417994 0.00797495,0.00591686 0.00565055,0.00199226 0.0135104,0.00322474 0.0222386,0.00322474 0.0087279,0 0.0165878,-0.00123248 0.0222383,-0.00322474 0.00492696,-0.00173692 0.00797495,-0.00384691 0.00797495,-0.00591686l0 -0.0119194 0 -0.00880353 0 -0.0274028 0 -0.00880382 0 -0.0047428zm-0.00797525 -0.0130935c-0.00565055,-0.00199196 -0.0135101,-0.00322444 -0.0222381,-0.00322444 -0.0087282,0 -0.0165878,0.00123248 -0.0222383,0.00322444 -0.00492726,0.00173692 -0.00797525,0.00384691 -0.00797525,0.00591686 0,0.00206995 0.00304799,0.00417964 0.00797525,0.00591686 0.00565055,0.00199196 0.0135101,0.00322444 0.0222383,0.00322444 0.0087279,0 0.0165875,-0.00123248 0.0222381,-0.00322444 0.00492726,-0.00173722 0.00797525,-0.00384691 0.00797525,-0.00591686 0,-0.00206995 -0.00304799,-0.00417994 -0.00797525,-0.00591686z"/>
 </g>
</svg>
