<?xml version="1.0" encoding="UTF-8"?>
<!DOCTYPE svg PUBLIC "-//W3C//DTD SVG 1.1//EN" "http://www.w3.org/Graphics/SVG/1.1/DTD/svg11.dtd">
<!-- Creator: CorelDRAW -->
<svg xmlns="http://www.w3.org/2000/svg" xml:space="preserve" width="44.7196mm" height="38.166mm" style="shape-rendering:geometricPrecision; text-rendering:geometricPrecision; image-rendering:optimizeQuality; fill-rule:evenodd; clip-rule:evenodd"
viewBox="0 0 0.211512 0.180515"
 xmlns:xlink="http://www.w3.org/1999/xlink">
 <defs>
  <style type="text/css">
   <![CDATA[
    .fil0 {fill:white;fill-rule:nonzero}
   ]]>
  </style>
 </defs>
 <g id="Слой_x0020_1">
  <metadata id="CorelCorpID_0Corel-Layer"/>
  <path class="fil0" d="M0.0466438 0.0857082c-0.00100271,-0.00157879 -0.0017221,-0.0036594 -0.00193872,-0.00663252 -9.69597e-005,-0.00131818 0.000503245,-0.00252663 0.0014894,-0.00326352 0.00718212,-0.00598123 0.0137158,-0.0123962 0.0195873,-0.0192534 0.00592495,-0.00692056 0.0111764,-0.01428 0.0157377,-0.0220874 0.000113514,-0.000194392 0.000242163,-0.000375069 0.000383109,-0.00054061l-3.31082e-006 -2.83785e-006c0.00177318,-0.00207778 0.00379988,-0.00349954 0.00607914,-0.00426434 0.00228683,-0.000767164 0.00472454,-0.000844732 0.00731124,-0.000234122l0.040007 0.00647596 0.0630744 -0.0354338c0.00179399,-0.00100034 0.00405954,-0.000357569 0.00505988,0.00143642l0.00760968 0.013546c0.00100034,0.00179399 0.000357569,0.00405954 -0.00143642,0.00505988l-0.0478324 0.0268711c0.0162348,0.0268238 0.0216083,0.0432686 0.0256537,0.0556535 0.00426717,0.0130626 0.00696928,0.0213359 0.0205905,0.0330775 0.00155892,0.00134608 0.00173109,0.00370102 0.000385001,0.00525947 -0.00134608,0.00155892 -0.00370102,0.00173109 -0.00525947,0.000385001 -0.0151768,-0.0130825 -0.018131,-0.0221253 -0.022795,-0.0364044 -0.00394224,-0.0120689 -0.0091809,-0.0281032 -0.0250719,-0.0543211l-0.0303125 0.0170285c0.00782347,0.005154 0.00750989,0.00943868 0.00690448,0.0176888 -0.000144257,0.00196899 -0.000309325,0.00422035 -0.000327771,0.00681603 0.00278535,0.00100696 0.00566434,0.00194061 0.00865969,0.00278393 0.00197987,0.000554326 0.00313535,0.00260893 0.00258102,0.00458927 -0.000554326,0.00197987 -0.00260893,0.00313535 -0.0045888,0.00258102 -0.0167329,-0.0047113 -0.0296791,-0.0118925 -0.042624,-0.0190736 -0.00623427,-0.00345839 -0.0124695,-0.00691678 -0.0189502,-0.0100053 -0.000541083,-7.70948e-005 -0.00111953,-8.13516e-005 -0.001715,-2.08109e-005 -0.00159629,0.000163649 -0.00319163,0.000805475 -0.00447292,0.0017921 -0.00116399,0.000896759 -0.0020267,0.00204514 -0.0022996,0.00331129 -8.98651e-005,0.000415744 -0.000115406,0.000871219 -6.47975e-005,0.00136359 0.000137163,0.00133994 0.000612975,0.00269548 0.00128554,0.0039867 0.000863178,0.00165825 0.00203379,0.00319589 0.00325217,0.00448522 0.0029944,0.00316798 0.0074659,0.00704874 0.0125825,0.0112398 8.04056e-005,6.05407e-005 0.000157027,0.000123446 0.000231757,0.00018919 0.00390582,0.00319541 0.0081782,0.00656678 0.012451,0.00993814 0.00622198,0.00490947 0.0124444,0.00981989 0.0177867,0.0144049 0.000198649,0.000154663 0.000384055,0.000332028 0.000552907,0.000531623 0.00973192,0.0114867 0.020178,0.0209201 0.031143,0.0288604 0.0109877,0.00795685 0.0224772,0.0143992 0.0342779,0.0198938 0.00186257,0.000869327 0.00266758,0.00308521 0.00179825,0.00494778 -0.0008698,0.00186305 -0.00308521,0.00266805 -0.00494826,0.00179825 -0.0122306,-0.00569461 -0.0241307,-0.0123659 -0.0355,-0.020599 -0.01036,-0.00750232 -0.0202972,-0.0163157 -0.0296678,-0.0268858 0.000219933,0.0020021 0.00017973,0.00385379 -0.000112568,0.0054515 -0.000405339,0.00221399 -0.00128791,0.00408603 -0.0026373,0.00544725 -9.60138e-005,0.000109257 -0.000198649,0.000214257 -0.000308852,0.000313582 -0.00174338,0.00157453 -0.00398907,0.00226933 -0.00670299,0.00181149 -0.00370528,-0.000625745 -0.00854665,-0.00384528 -0.014272,-0.0108529 -0.000200068,6.62164e-005 -0.000401555,0.000126284 -0.000603988,0.000179257 -0.00252947,0.000660272 -0.00513319,0.000296082 -0.00754678,-0.00137683 -0.00290974,-0.00201629 -0.00546522,-0.00617232 -0.00688414,-0.0131411 -0.000921827,0.000499934 -0.00182852,0.000878786 -0.00270967,0.0011446 -0.00228305,0.000688651 -0.00444123,0.000644664 -0.00633218,1.32433e-005 -0.00200021,-0.00066784 -0.00363339,-0.00197703 -0.00476285,-0.00377244 -0.0010396,-0.00165115 -0.00161899,-0.00369109 -0.0016119,-0.00596988l4.72974e-007 0c9.45949e-007,-0.000165541 1.22973e-005,-0.000332501 3.54731e-005,-0.000500407 0.000308852,-0.00223244 0.000586961,-0.00445873 0.000779462,-0.00666847l-0.0251835 0.0141476c-0.000287095,0.000177838 -0.000603515,0.000319258 -0.00094453,0.00041669l-0.0285889 0.0080259c-0.0012898,0.000436082 -0.00277258,0.000147095 -0.00380981,-0.000873111 -0.00146717,-0.00144304 -0.00148703,-0.00380271 -4.35136e-005,-0.00526988l0.0211576 -0.021622c0.000313109,-0.000318312 0.000670205,-0.000568515 0.00105142,-0.00075061l0.0233649 -0.013126zm0.070809 -0.0134258l-0.0132272 0.00743043c0.00639603,0.003509 0.0129032,0.00693191 0.0199401,0.00994192 6.90543e-005,-0.00162561 0.000175946,-0.00308805 0.000274325,-0.00442704 0.000442704,-0.00603515 0.000644664,-0.008803 -0.00698725,-0.0129453zm-0.0905192 0.0411568l-0.00285771 -0.00508684 -0.00794502 0.00811955 0.0108027 -0.00303271zm0.0696403 -0.0379595l0.106154 -0.059635 -0.00396636 -0.00706056 -0.1106 0.0621323c0.00285298,0.00150311 0.00564022,0.00303035 0.00841232,0.00456326zm-0.0164169 -0.00859867l0.000954935 -0.000536353c0.00133142,-0.00136548 0.00271203,-0.0026671 0.00412292,-0.00399663 0.00321386,-0.00302845 0.00659563,-0.00621536 0.00942118,-0.0102423 0.0011569,-0.0016469 0.00340589,-0.00207163 0.00507974,-0.000983787 0.00153669,0.000831962 0.00301048,0.00159629 0.00438022,0.0022996l0.0207655 -0.0116654 -0.0307897 -0.00498373c-0.000151352,-1.70271e-005 -0.00030365,-4.30407e-005 -0.000455947,-7.94597e-005 -0.00124203,-0.00029892 -0.00233791,-0.000289933 -0.00328528,2.79055e-005 -0.000909057,0.000305068 -0.00177791,0.000917097 -0.00260562,0.00183419 -0.00476143,0.00810347 -0.0102006,0.0157141 -0.0163025,0.0228404 -0.00574333,0.0067082 -0.012075,0.0129992 -0.0189838,0.0188807 0.000209055,0.000674461 0.000503718,0.00122217 0.000853246,0.00168615l0.00739259 -0.00415271c4.02028e-005,-0.000282839 9.08111e-005,-0.000563785 0.000150879,-0.000841894 0.00067257,-0.00311737 0.00254839,-0.00575373 0.00502393,-0.00766029 0.00235872,-0.00181717 0.0053063,-0.00300008 0.00826381,-0.00330231 0.00146433,-0.000149933 0.0029594,-8.13516e-005 0.00441995,0.000233176 0.000286622,6.14867e-005 0.000558583,0.000155136 0.000813043,0.000275271l1.41892e-006 -3.31082e-006 0.000779462 0.000370812zm-0.0181963 0.0187549l-0.0320118 0.0179834 0.00396636 0.00706056 0.0323931 -0.0181982c-0.00133,-0.00153622 -0.00258244,-0.00329521 -0.00356812,-0.00518758 -0.000282366,-0.000542029 -0.000542975,-0.00109541 -0.000779462,-0.00165825zm0.00983503 0.0122954l-0.00444974 0.00249967c-9.1284e-005,0.00388832 -0.000534461,0.0078055 -0.00107412,0.0117298 2.45947e-005,0.000739732 0.000189663,0.00134467 0.00046588,0.00178359 0.000201487,0.000320204 0.000485272,0.000551015 0.000826759,0.000664529 0.000449799,0.000150406 0.00106088,0.000131487 0.00181196,-9.50678e-005 0.00142554,-0.000430407 0.00310082,-0.00153575 0.00491988,-0.00349954l3.16893e-005 -3.31082e-005c0.0022523,-0.00268602 0.00341582,-0.00532853 0.00416076,-0.00725685 -0.00241737,-0.00201251 -0.00467677,-0.00395596 -0.00669306,-0.00579299zm0.0127178 0.0107062c-0.000810678,0.00178973 -0.00194156,0.00387224 -0.0036367,0.00607772 0.000781354,0.00756381 0.00252568,0.0114564 0.00449609,0.0128219 0.000464934,0.000322569 0.000946422,0.000397771 0.00139906,0.000280001 0.00035946,-9.41219e-005 0.000726489,-0.000272433 0.0010921,-0.000525002 6.43245e-005,-5.5811e-005 0.000130541,-0.00010973 0.000199595,-0.000161757 5.5811e-005,-4.16217e-005 0.000112568,-8.18246e-005 0.000169798,-0.000119663 0.000285677,-0.00023696 0.000567569,-0.000517434 0.000841894,-0.000836219 0.00222534,-0.0025867 0.00358278,-0.00708184 0.00259095,-0.0118546 -0.0024169,-0.00190892 -0.00482103,-0.00381123 -0.00715279,-0.00568231zm0.0147209 0.0116659c-0.000503718,0.0039465 -0.00199737,0.00748151 -0.00399616,0.0100696 0.00429555,0.00528123 0.00745549,0.00763664 0.00956023,0.00799232 0.000253987,4.30407e-005 0.000400609,3.50001e-005 0.000453109,-1.18244e-005l9.64868e-005 -8.37165e-005c0.00022419,-0.00027669 0.000404393,-0.000791286 0.000532096,-0.00149082 0.000648921,-0.00354542 -0.000720813,-0.00921449 -0.00426954,-0.0145809 -0.000783246,-0.000626691 -0.00157595,-0.00125906 -0.00237622,-0.00189474z"/>
 </g>
</svg>
