<?xml version="1.0" encoding="UTF-8"?>
<!DOCTYPE svg PUBLIC "-//W3C//DTD SVG 1.1//EN" "http://www.w3.org/Graphics/SVG/1.1/DTD/svg11.dtd">
<!-- Creator: CorelDRAW -->
<svg xmlns="http://www.w3.org/2000/svg" xml:space="preserve" width="8.4672mm" height="8.4668mm" style="shape-rendering:geometricPrecision; text-rendering:geometricPrecision; image-rendering:optimizeQuality; fill-rule:evenodd; clip-rule:evenodd"
viewBox="0 0 0.798838 0.7988"
 xmlns:xlink="http://www.w3.org/1999/xlink">
 <defs>
  <style type="text/css">
   <![CDATA[
    .fil1 {fill:none}
    .fil0 {fill:white;fill-rule:nonzero}
   ]]>
  </style>
 </defs>
 <g id="Слой_x0020_1">
  <metadata id="CorelCorpID_0Corel-Layer"/>
  <g id="_157324712">
   <path id="_155384928" class="fil0" d="M0.41425 0.529077c0.00412288,-0.000594374 0.00826462,-0.00119818 0.0106421,-0.0027077 0.00219824,-0.001585 0.0048399,-0.00261336 0.00772686,-0.00284922 0.000471725,-3.7738e-005 0.00346246,-0.00233032 0.00572674,-0.00406627 0.000169821,-0.000141518 0.000330208,-0.000273601 0.000500029,-0.000396249l0.000783064 -0.000603808c0.000169821,-0.000141518 0.000349077,-0.000283035 0.000537767,-0.000424553 0.00392475,-0.00296243 0.00600978,-0.00667963 0.00711361,-0.0108214 0.00128309,-0.00480216 0.00152839,-0.0107836 0.00156613,-0.0170859 -0.00227371,-0.00569844 -0.00405684,-0.0129253 -0.00499085,-0.0201144l9.4345e-006 0 -9.4345e-006 -5.6607e-005c-0.000367946,-0.00286809 -0.00066985,-0.00583996 -0.00085854,-0.00877409 -0.00254732,0.00187747 -0.00569844,0.00299074 -0.00911373,0.00299074 -0.00121705,0 -0.00543427,0.00137744 -0.0109535,0.00318886 -0.0134913,0.00442478 -0.0327755,0.0107553 -0.0578712,0.0111327 -0.000679284,0.000952885 -0.00134913,0.00180199 -0.00202842,0.00255675 -2.83035e-005,0.00115101 -0.000198125,0.00232089 -0.000509463,0.00349077 -0.000433987,0.00159443 -0.0010944,0.00307565 -0.00195294,0.00439648 0.000820802,0.00135857 0.00193407,0.00321716 0.00289639,0.0059626 0.00142461,0.00406627 0.00293413,0.00837784 0.00436817,0.0133498 0.000952885,0.00330208 0.00233976,0.00760421 0.00363228,0.0116327 0.00378323,0.0116988 0.00698153,0.0216239 0.00698153,0.0305112l0.000311339 -0.000537767c0.0100006,-0.0170859 0.0227183,-0.0189256 0.0354926,-0.0207748zm-0.0352662 0.0471631c-0.00281148,-0.00278318 -0.00463234,-0.00598147 -0.00536823,-0.00959489 -0.00309452,0.0045663 -0.0078495,0.00892504 -0.0148027,0.013246 -0.0166613,0.0103308 -0.0521822,0.00813254 -0.0664,0.00725513 -0.00177369,-0.000113214 -0.00306621,-0.000198125 -0.00396249,-0.000198125l-0.000150952 9.4345e-006 -0.000132083 9.4345e-006c-0.00180199,0.000122649 -0.004321,0.000301904 -0.00736834,0l0 0c-0.0102836,-0.00102836 -0.0185671,-0.005689 -0.0172368,-0.019303 0.00216994,-0.0220579 0.0145386,-0.0282658 0.0233693,-0.0322566 0.000254732,-0.000132083 0.000509463,-0.000254732 0.000773629,-0.00037738 1.8869e-005,-9.4345e-006 3.7738e-005,-9.4345e-006 4.71725e-005,9.4345e-006l9.4345e-006 -9.4345e-006 2.83035e-005 6.60415e-005c0.00281148,-0.00300961 0.00681171,-0.00489651 0.0112554,-0.00489651 0.00577391,0 0.0070004,0.0160575 0.0070004,0.00917977l-5.6607e-005 0 -0.000396249 -0.0018869c-0.000358511,-0.00174538 -0.000773629,-0.00370776 -0.00108497,-0.00599091 -0.00127366,-0.00222654 -0.00200955,-0.0048116 -0.00200955,-0.00756647 1.8869e-005,-0.00982131 -0.0222371,-0.027577 -0.0394362,-0.0412948 -0.00379267,-0.00301904 -0.00736834,-0.00586826 -0.0106138,-0.0085854 -0.00229258,0.00174538 -0.00509463,0.00285865 -0.00817971,0.00307565 -0.00817028,0.000584939 -0.0192181,0.0042927 -0.0302659,0.00904769 -0.0162462,0.0070004 -0.0316244,0.0159443 -0.0387947,0.0212088 -0.0101327,0.00743439 -0.0191143,0.0163689 -0.0281148,0.0253222 -0.0105949,0.0105383 -0.0212088,0.0210955 -0.0346529,0.0305112 -0.00221711,0.00154726 -0.00490594,0.00285865 -0.00795328,0.00433044 -0.00259449,0.00126422 -0.00326434,-0.00346246 -0.00453799,-0.000320773l-9.4345e-006 0c-0.0018586,0.00455686 -0.00586826,0.00815141 -0.0110478,0.00924581l-0.00388701 0.000830236c-0.00139631,0.000773629 -0.00291526,0.0013397 -0.00452856,0.00166047l0.000471725 0.000405684c-0.0043493,0.00516067 -0.00841557,0.00999114 -0.0178689,0.00999114 -0.00536823,0 -0.00987792,-0.000349077 -0.0136706,-0.000981188 -0.00496255,0.00181142 -0.0114629,0.00126422 -0.020454,0.000509463l-0.000849105 -7.5476e-005 9.4345e-006 -4.71725e-005c-0.000320773,-2.83035e-005 -0.000650981,-6.60415e-005 -0.000971754,-0.000113214 -0.00368889,0.000905712 -0.00830236,0.000849105 -0.0144537,-0.000509463 -0.00668906,-0.00118875 -0.0120196,-0.00676454 -0.0126045,-0.0138593 -0.000405684,-0.00490594 0.000650981,-0.0103025 0.00265109,-0.0152839 0.00184916,-0.00462291 0.00469838,-0.00921751 0.00799102,-0.0128121 0.0163972,-0.0178972 0.0233127,-0.0176048 0.0360492,-0.017067 0.00268883,0.000113214 0.00589656,0.000245297 0.0101893,-0.000301904 0.00254732,-0.00419835 0.00571731,-0.00895334 0.00912316,-0.0137838 0.00921751,-0.0130479 0.0209635,-0.0287469 0.0236617,-0.0316339 0.00945337,-0.0100949 0.0165481,-0.024492 0.0234259,-0.038455 0.00134913,-0.00274544 0.00269827,-0.00547201 0.00414175,-0.00832123 -0.00277374,-0.00662302 -0.00474555,-0.0140574 -0.00611356,-0.021322 -0.00200955,-0.0106421 -0.00242467,-0.0220862 -0.00214163,-0.0302187 -0.000122649,-0.000367946 -0.000235863,-0.000726457 -0.000339642,-0.00108497 -0.000169821,-0.000452856 -0.000320773,-0.000915147 -0.000452856,-0.00138687 -9.4345e-006,-3.7738e-005 9.4345e-006,-3.7738e-005 4.71725e-005,-9.4345e-006l0.00010378 -2.83035e-005c-0.00138687,-0.00211333 -0.00227371,-0.00458517 -0.00247184,-0.007274 -0.000462291,-0.0061796 -0.000707588,-0.0119913 -0.000886843,-0.0168217 -0.00200011,0.000471725 -0.00438704,0.00100006 -0.00733061,0.00159443 -0.00193407,0.000396249 0.000698153,0.000745326 -0.000349077,0.00170764 -0.00437761,0.00402853 -0.00816084,0.0075193 -0.0150386,0.0075193 -0.00933072,0 -0.0172746,-0.00665132 -0.0229541,-0.0151707 -0.00557579,-0.00835897 -0.00975527,-0.0200294 -0.00975527,-0.026209 0,-0.000905712 -0.00189633,-0.000849105 -0.00379267,-0.00260392 -0.00233032,-0.00215107 -0.00466064,-0.00431157 -0.00679284,-0.00689662 -0.0110667,-0.0134725 -0.0148122,-0.0292375 0.0165575,-0.0553428 0.0148688,-0.0155103 0.0283224,-0.0260864 0.041842,-0.0367191 0.0108874,-0.00855709 0.021822,-0.0171614 0.032917,-0.0279167 0.0104063,-0.0100949 0.0208314,-0.0168878 0.0372851,-0.0204823 0.0146518,-0.00320773 0.0338887,-0.00355681 0.0628338,-0.00114157l-9.4345e-006 5.6607e-005c0.00467008,0.000386815 0.00898164,0.00291526 0.0115761,0.00690605l0 -9.4345e-006c0,-2.83035e-005 9.4345e-006,-4.71725e-005 1.8869e-005,-3.7738e-005 0.00245297,0.00140574 0.00506633,0.00289639 0.00807593,0.00595317 0.00628338,0.00638716 0.00951941,0.0104723 0.011378,0.0131328 0.00261336,0.00094345 0.00656641,0.00239636 0.0125479,0.00479273 0.00826462,0.00331151 0.0363983,0.0181614 0.056673,0.0347944 0.0115856,0.00950054 0.0210955,0.0201238 0.0248505,0.0309923 0.00126422,0.00120762 0.00245297,0.0024624 0.00331151,0.00340585 0.000301904,0.000283035 0.000594374,0.000594374 0.000877409,0.000915147 0.00138687,0.00157556 0.000688719,-0.00166047 0.00406627,-0.0010661 0.0548994,0.0097081 0.0889956,-0.00893447 0.143367,-0.00499085 0.00573618,0.000415118 0.0192558,0.0032549 0.0342661,0.007274 0.0119913,0.00320773 0.025492,0.00732117 0.0372757,0.0116988 0.0245769,0.00914203 0.0390305,0.024624 0.0530219,0.0396155 0.00912316,0.00977414 0.0180199,0.019303 0.0288413,0.0250297l-9.4345e-006 2.83035e-005c0.00151895,0.000801933 0.0029247,0.00186803 0.00415118,0.00320773 0.0048399,0.00530219 0.00957602,0.00991566 0.0141706,0.0139253 0.000707588,0.000500029 0.00134913,0.0010661 0.00195294,0.00166991 0.00808537,0.00680227 0.0157273,0.0116988 0.0227371,0.0150197 0.00738721,0.00312282 0.0150197,0.00501915 0.0218126,0.00543427 0.00132083,7.5476e-005 0.00257562,0.00010378 0.0037455,7.5476e-005 0.00256618,-0.000301904 0.00467008,-0.000971754 0.00627394,-0.00190577 0.000500029,-0.000283035 0.000915147,-0.000584939 0.00124535,-0.000896278 5.6607e-005,-0.0019152 -0.000792498,-0.00494368 -0.00277374,-0.00929298 -0.000358511,-0.000650981 -0.000679284,-0.00132083 -0.000934016,-0.00202842 -0.00101893,-0.00227371 -0.00177369,-0.00435874 -0.00227371,-0.00628338 -0.00101893,-0.000207559 -0.00254732,-0.000433987 -0.00421722,-0.00156613 -0.0130007,-0.00879295 -0.0291715,-0.0197275 -0.0291715,-0.0505217l1.8869e-005 0c-9.4345e-006,-0.00327377 0.00102836,-0.00633998 0.00280205,-0.008859 0.00224541,-0.00633998 0.00631168,-0.0157462 0.0111893,-0.0230296 0.00554749,-0.00829293 0.0127554,-0.0148593 0.0216427,-0.0160575 0.000773629,-0.000113214 0.00155669,-0.000179256 0.00235863,-0.000179256 0.00510406,0 0.00962319,0.00249071 0.0124158,0.00631168 0.00837784,-0.000584939 0.0156896,0.00567013 0.0163877,0.0140668 0.000198125,0.00244354 0.00111327,0.00733061 0.0021888,0.0117176 0.000679284,0.00277374 0.000867974,0.00440591 0.00100006,0.00461347l0 0c0.000820802,0.00122649 0.00147178,0.00259449 0.00192464,0.0040757 0.000386815,0.00127366 0.000622677,0.00248127 0.00075476,0.00366059 0.00412288,0.00305678 0.00662302,0.00811367 0.00617016,0.0136045 -0.000207559,0.00242467 -0.000792498,0.00500029 -0.00144348,0.00778346 -4.71725e-005,0.000198125 -8.49105e-005,0.000396249 -0.000132083,0.000603808 -0.000594374,0.00250958 -0.00125479,0.00530219 -0.00125479,0.00624564 0,0.0128592 -0.00529275,0.0190954 -0.0104251,0.0241806 0.00632112,0.0109157 0.00689662,0.0220767 0.00288696,0.0316999 -0.000254732,0.000603808 -0.000518898,0.00120762 -0.000811367,0.00179256 -0.00329264,0.0083684 -0.00961376,0.014114 -0.017935,0.0175199 -0.00472668,0.00193407 -0.0100572,0.00301904 -0.0157273,0.00333038 -0.000896278,8.49105e-005 -0.00180199,0.000150952 -0.00271714,0.00018869 -0.0102081,0.000471725 -0.0223598,-0.00174538 -0.0356435,-0.00766081 -0.00475499,-0.00195294 -0.00945337,-0.00424553 -0.0139536,-0.00685888 0.00156613,0.00182086 0.00286809,0.00345303 0.00371719,0.00451913l0.000556636 0.000707588 0 0c0.00758534,0.00938733 0.0231806,0.0173783 0.0288507,0.0201144 0.00525502,0.000867974 0.012246,0.00296243 0.0186331,0.0048682 0.00387758,0.00116044 0.00749099,0.00224541 0.00934959,0.00268883 0.000160387,2.83035e-005 0.000320773,5.6607e-005 0.00048116,9.4345e-005 0.000254732,4.71725e-005 0.000509463,0.000113214 0.000764195,0.000179256 0.0355303,0.000688719 0.0378323,0.0176236 0.0410495,0.0413042 0.000726457,0.00533993 0.00152839,0.0112365 0.00320773,0.0167462 0.00395306,0.013029 0.00732117,0.0186331 0.0091892,0.0217465 0.00252845,0.00418892 0.00398136,0.00661358 0.00400966,0.0119441l-9.4345e-006 0 9.4345e-006 5.6607e-005c1.8869e-005,0.00720796 -0.00233976,0.00993453 -0.00792498,0.0163594 -0.00168878,0.00195294 -0.00402853,0.00464177 -0.00767968,0.00928355 -0.00296243,0.0037738 -0.0045663,0.00631168 -0.00572674,0.00814197 -0.00275487,0.00436817 -0.00437761,0.00693436 -0.00880239,0.00961376 -0.00551918,0.00333038 -0.00967036,0.00332094 -0.0196709,0.00329264l-0.00221711 0c-0.00114157,6.60415e-005 -0.00228315,0 -0.00338699,-0.00018869 -0.00113214,0.000160387 -0.00237749,0.000245297 -0.00375493,0.000245297 -0.00179256,0 0.000169821,-5.6607e-005 -0.000547201,-3.7738e-005 -0.00172651,4.71725e-005 -0.00383041,0.000122649 -0.00405684,0.000122649 -0.00369832,0 -0.00774572,-0.000301904 -0.0114724,-0.00128309 -0.004321,0.00202842 -0.00958545,0.00174538 -0.019303,-0.000471725 -0.00723626,-0.00125479 -0.0127366,-0.00755703 -0.0127366,-0.0151518 0,-0.0268695 0.0168406,-0.0319924 0.0282092,-0.0350869 0.000216994,-6.60415e-005 0.000433987,-0.000132083 0.000650981,-0.000198125 7.5476e-005,-1.8869e-005 0.000122649,9.4345e-006 0.000132083,8.49105e-005 0.00261336,-0.00205672 0.00591543,-0.00328321 0.00950054,-0.00328321 0.000424553,0 -0.000160387,-0.000660415 0.000396249,-0.00148122 0.000169821,-0.000264166 0.000339642,-0.000537767 0.00048116,-0.000820802 -0.00174538,-0.00249071 -0.00277374,-0.00552862 -0.00277374,-0.00881182 0,-0.00160387 -0.0021605,-0.0035002 -0.00510406,-0.00528332 -0.00767025,-0.00465121 -0.0183878,-0.00678341 -0.0247844,-0.00678341 -0.0514369,0 -0.0735514,-0.00837784 -0.0859577,-0.0130857 -0.00287752,-0.00108497 -0.00487764,-0.00184916 -0.00505689,-0.00184916l0 -2.83035e-005c-0.00357568,-9.4345e-006 -0.00705701,-0.00126422 -0.00982131,-0.00354737 -0.00262279,-0.00102836 -0.00483046,-0.0024341 -0.0070004,-0.00387758 -0.00018869,-0.000113214 -0.00037738,-0.000235863 -0.00056607,-0.000358511 -0.000613243,-0.000405684 -0.00122649,-0.000820802 -0.00152839,-0.00100006l9.4345e-006 -1.8869e-005c-0.00215107,-0.0013114 -0.00396249,-0.00314169 -0.00524558,-0.00533993l-2.83035e-005 4.71725e-005c-9.4345e-006,9.4345e-005 -2.83035e-005,0.000141518 -7.5476e-005,0.000113214 -0.00120762,-0.000735891 -0.00239636,-0.00146235 -0.00378323,-0.00252845 -0.000433987,-0.00029247 -0.000849105,-0.000613243 -0.00126422,-0.000962319 -0.00335868,-0.00284922 -0.00646263,-0.00629281 -0.00963262,-0.00980245 -0.00202842,-0.00224541 -0.00410401,-0.00453799 -0.00597204,-0.00633998 -0.000773629,0.000830236 -0.00157556,0.00167934 -0.00238693,0.00254732 -0.00787781,0.00835897 -0.0182558,0.0193785 -0.0190766,0.0209446 -0.00365115,0.00693436 -0.00873635,0.0133876 -0.0144914,0.0190388 -0.00384928,0.00378323 -0.00801933,0.00723626 -0.0122649,0.0102553 0.000254732,0.00236806 0.000650981,0.00477386 0.00102836,0.00709474 0.000613243,0.00369832 0.00118875,0.00723626 0.00141518,0.0108968 0.00113214,0.0182275 -0.00379267,0.0317471 -0.033483,0.0349926 -0.0197181,0.017935 -0.048899,0.0244354 -0.070287,0.0244354 -0.00665132,0 -0.0127649,-0.000622677 -0.017784,-0.00172651 -0.00678341,-0.00149065 -0.0123686,-0.00416061 -0.0160292,-0.0077929zm0.0882503 -0.0418326c0.000235863,-0.000150952 0.000443422,-0.00029247 0.000650981,-0.000415118 0.00235863,-0.00167934 0.00513237,-0.00263223 0.00796272,-0.00279261l0 -3.7738e-005c0.00863257,-0.000537767 0.0101798,-0.00163217 0.0100949,-0.00302847 -0.000132083,-0.0021605 -0.000584939,-0.00490594 -0.00105666,-0.00777403 -0.00108497,-0.00658528 -0.00224541,-0.0136706 -0.00159443,-0.0215107 0.000452856,-0.00551918 0.00376437,-0.0101138 0.0083684,-0.0124535 0.00455686,-0.0027077 0.00917033,-0.00618903 0.0132272,-0.0101704 0.00361341,-0.00355681 0.00673623,-0.00746269 0.00884956,-0.0114724 0.00276431,-0.00525502 0.014765,-0.018001 0.0238693,-0.0276714 0.00313225,-0.00333038 0.0056324,0.00531162 0.0056324,-0.000330208 0,-0.00849105 0.00687775,-0.0153782 0.0153688,-0.0153782 0.000632112,0 0.00126422,3.7738e-005 0.00187747,0.000113214 0.0138687,0.00143404 0.0223786,0.0108497 0.03053,0.0198691 0.00232089,0.00256618 0.0045946,0.0050852 0.0067551,0.00692492l0.000283035 0.000245297c0.00018869,9.4345e-005 0.000424553,0.000179256 0.000915147,0.00048116 0.00337755,0.00205672 0.00687775,0.00419835 0.00935902,0.00771742 0.00266996,0.000358511 0.0051135,0.00140574 0.00717022,0.00294356 0.00235863,0.000679284 0.00478329,0.00160387 0.00762308,0.0026794 0.0104723,0.00396249 0.0291243,0.0110289 0.0751458,0.0110289 0.0103119,0 0.0278129,0.00357568 0.0406344,0.0113591 0.00579278,0.00350963 0.0108119,0.00784007 0.0143782,0.0130857 -0.000490594,-0.00291526 -0.000877409,-0.00569844 -0.00123592,-0.00835897 -0.00118875,-0.00878352 -0.00202842,-0.0149631 -0.0145291,-0.014765 -0.0027077,3.7738e-005 -0.00526445,-0.000622677 -0.00749099,-0.00182086 -0.00239636,-0.000660415 -0.00513237,-0.00147178 -0.00800046,-0.00233032 -0.00624564,-0.00187747 -0.0132743,-0.00397192 -0.0141234,-0.00397192 -0.00269827,0 -0.00522671,-0.000698153 -0.00742495,-0.0019152 -0.00518898,-0.00242467 -0.0285488,-0.0137366 -0.041125,-0.029379l-5.6607e-005 -6.60415e-005 -9.4345e-006 9.4345e-006 -0.000556636 -0.000698153c-9.4345e-005,-0.000113214 -0.000150952,-0.000235863 -0.000198125,-0.000349077 -0.00107553,-0.00162273 -0.00181142,-0.00338699 -0.00220767,-0.00519841 -0.00731174,-0.0027077 -0.0115195,-0.0105855 -0.00949111,-0.0182841 6.60415e-005,-0.000264166 0.000150952,-0.000528332 0.000235863,-0.000783064l0.00560409 -0.0200389c-0.00287752,-0.00272657 -0.00576448,-0.0056324 -0.00866087,-0.00871748 -0.0142084,-0.00805706 -0.0243221,-0.0188973 -0.0346907,-0.0300017 -0.0115761,-0.0124064 -0.0235391,-0.0252184 -0.0412571,-0.0318037 -0.0102647,-0.00382097 -0.0228881,-0.00763251 -0.0345114,-0.0107459 -0.0133121,-0.00355681 -0.0245108,-0.00601921 -0.0284922,-0.00631168 -0.0490028,-0.00353794 -0.0984679,0.0131328 -0.146489,0.00464177 -0.0094628,-0.00166991 -0.0179256,-0.00445308 -0.0218503,-0.0089156 -0.000216994,-0.000245297 -0.000424553,-0.000490594 -0.000622677,-0.00075476 -0.000443422,-0.000490594 -0.00100006,-0.00108497 -0.00151895,-0.001585 -0.00454743,-0.00247184 -0.00755703,-0.00710418 -0.00797215,-0.0122365l-9.4345e-006 0c-0.000320773,-0.00385871 -0.00682114,-0.0104063 -0.0153028,-0.0173689 -0.0176236,-0.0144537 -0.0416345,-0.0271808 -0.0486254,-0.0299923 -0.00595317,-0.00238693 -0.00957602,-0.00369832 -0.0119063,-0.00454743 -0.00400966,-0.00145291 -0.00576448,-0.00209446 -0.00820802,-0.00388701 -0.00289639,-0.00212276 -0.00376437,-0.00351907 -0.00530219,-0.00600034 -0.000764195,-0.00123592 -0.00225485,-0.00364172 -0.00896278,-0.0104534 -0.000113214,-0.00010378 -0.000707588,-0.000349077 -0.00146235,-0.000783064 -0.00189633,-0.00108497 -0.00372663,-0.0021322 -0.0054154,-0.0034719 -0.0220862,-0.001585 -0.0367285,-0.00124535 -0.0472668,0.00105666 -0.00974584,0.00212276 -0.0160292,0.00626451 -0.0223975,0.0124347 -0.0125762,0.0121894 -0.0239731,0.0211522 -0.0353133,0.0300772 -0.0129253,0.010161 -0.0257845,0.0202653 -0.0391437,0.0342661 -0.000603808,0.000641546 -0.00126422,0.00121705 -0.00194351,0.00172651 -0.0116044,0.00956658 -0.01318,0.0117931 -0.0126328,0.012463 0.000981188,0.00119818 0.00245297,0.00254732 0.00390588,0.00389645 0.00690605,0.00638716 0.0137649,0.0127366 0.0137649,0.0250675 0,0.00094345 0.00100006,0.00331151 0.00252845,0.00600034 0.00250958,-0.00173595 0.00534936,-0.00318886 0.00869861,-0.00386815 0.0037455,-0.000764195 0.00802876,-0.00186803 0.0114629,-0.00273601 0.0124913,-0.00318886 0.0186048,-0.00475499 0.0264921,0.00386815 0.00539653,0.00591543 0.00562296,0.0119441 0.00603808,0.0237466 0.000132083,0.00368889 0.000301904,0.00829293 0.000745326,0.0148782 0.000783064,0.00175482 0.00119818,0.00329264 0.00159443,0.00475499 4.71725e-005,0.00018869 9.4345e-005,0.000386815 0.000141518,0.000575505 0.00187747,0.00428326 0.00163217,0.00903825 -0.000339642,0.0130007 -3.7738e-005,0.000509463 0.00137744,0.00966093 0.00360398,0.0215201 0.00138687,0.00734948 0.00339642,0.0145386 0.00618903,0.0190766 0.00302847,0.00490594 0.002953,0.0108591 0.000311339,0.0155575 -0.0021322,0.00400023 -0.00463234,0.00908542 -0.00717022,0.0142272 -0.00780233,0.0158311 -0.01585,0.0321716 -0.0285771,0.0457762 -0.00174538,0.0018586 -0.0121139,0.0159443 -0.0209069,0.0283978 -0.00527389,0.00746269 -0.00928355,0.00949111 -0.00942507,0.0112459 -2.83035e-005,0.000349077 -7.5476e-005,0.000698153 -0.000122649,0.0010378 0.00310395,-0.00194351 0.0064532,-0.00357568 0.00950998,-0.00505689l0.0037455 -0.00181142c0.0110667,-0.00774572 0.0208314,-0.0174633 0.0305772,-0.0271525 0.00984962,-0.00980245 0.0196898,-0.019586 0.0315867,-0.0283129 0.0086137,-0.00632112 0.0264826,-0.0168028 0.0448044,-0.0246995 0.011878,-0.0051135 0.0242561,-0.00928355 0.0351718,-0.0108874 0.00307565,-0.00195294 0.00638716,-0.00318886 0.00936846,-0.00430213 0.00094345,-0.000349077 0.00181142,-0.000679284 0.0021322,-0.000830236 0.00598147,-0.00279261 0.0128592,-0.00138687 0.017284,0.00300961l9.4345e-006 -9.4345e-006c0.00344359,0.00341529 0.00951941,0.00827406 0.0163217,0.0136895 0.0198691,0.01585 0.0449554,0.0358605 0.05005,0.0575033 0.00163217,0.00255675 0.00250014,0.00558522 0.0024058,0.00870804 0.000132083,0.00222654 0.000613243,0.00450969 0.00100949,0.00641546 0.000603808,0.00291526 0.00111327,0.0053588 0.00111327,0.00813254l-5.6607e-005 0c0,0.00878352 -0.00194351,0.0143876 -0.00868917,0.0176708 0.00633055,-0.000443422 0.0117837,-0.00140574 0.0147273,-0.0032266 0.00624564,-0.00387758 0.00358511,-0.0121139 -0.000433987,-0.0245769 -0.00114157,-0.0035285 -0.00234919,-0.00728343 -0.00388701,-0.0125856 -0.000924581,-0.00324547 -0.00244354,-0.0075759 -0.00388701,-0.0116799 -0.00360398,-0.0103025 -0.00682114,-0.0194917 -0.0048116,-0.0270204 0.00037738,-0.00141518 0.000830236,-0.00271714 0.0013397,-0.00392475 -0.000735891,-0.00465121 -0.000830236,-0.00961376 0.00193407,-0.0151801 0.0019152,-0.00389645 0.00526445,-0.00661358 0.00910429,-0.00783064 0.0026794,-0.00227371 0.00615129,-0.00365115 0.00994396,-0.00365115 0.000641546,0 0.00128309,4.71725e-005 0.00190577,0.000122649 0.0257751,0.00174538 0.0460215,-0.00489651 0.0595128,-0.00932129 0.00529275,-0.00173595 0.00979301,-0.00321716 0.0139065,-0.0040474 0.00112271,-0.000688719 0.00229258,-0.00127366 0.0035002,-0.00177369 0.00123592,-0.000509463 0.00255675,-0.000924581 0.00385871,-0.00125479 0.00345303,-0.00252845 0.00749099,-0.00417948 0.0110855,-0.00564183 0.00107553,-0.000443422 0.00204729,-0.000839671 0.00211333,-0.000886843 0.00723626,-0.00440591 0.0166708,-0.00212276 0.0210861,0.00510406l8.49105e-005 0.000150952 0.00307565 0.00454743c0.0031983,0.00471725 0.00341529,0.0105855 0.0010661,0.0153499l-1.8869e-005 5.6607e-005c-0.000490594,0.00195294 0.00010378,0.00904769 0.00104723,0.0162651l0 0c3.7738e-005,0.000264166 5.6607e-005,0.000518898 7.5476e-005,0.000764195 0.000235863,0.00291526 -0.000367946,0.00572674 -0.00162273,0.00817028 0.00433987,0.00286809 0.00688719,0.00772686 0.00688719,0.0128121l9.4345e-006 0c0,0.00919864 -0.000207559,0.0182369 -0.00264166,0.0273412 -0.00184916,0.00693436 -0.00485877,0.0134253 -0.00971754,0.0192747zm0.115837 -0.0594374l0 0.00010378 2.83035e-005 -4.71725e-005 -2.83035e-005 -5.6607e-005zm0.179086 0.0522766c-0.000198125,0.00125479 -0.000471725,0.00251901 -0.000811367,0.0037738l5.6607e-005 1.8869e-005c-0.0010378,0.0038021 -0.00286809,0.00781177 -0.00532106,0.011529 0.000650981,0.000443422 0.00126422,0.00094345 0.00183973,0.00148122 0.000367946,-0.000490594 0.000764195,-0.00100006 0.00116988,-0.00151895 0.00245297,-0.00311339 0.00468895,-0.00577391 0.00656641,-0.00795328 -0.00105666,-0.00197181 -0.00223598,-0.00436817 -0.0035002,-0.00733061zm-0.0195483 -0.180774c9.4345e-006,-0.00144348 0.000132083,-0.0029247 0.000330208,-0.00438704 -0.0026794,-0.00366059 -0.00346246,-0.008642 -0.00353794,-0.0139536 -0.00443422,0 -0.00792498,-0.00139631 -0.010661,-0.00379267 -0.000141518,0.000452856 -0.000245297,0.000849105 -0.000320773,0.00116988l-0.000122649 0.000462291c0.00130196,0.0111044 0.00823632,0.0163689 0.0143121,0.0205012zm-0.500557 -0.162679l0 -1.8869e-005 0 9.4345e-006 0 9.4345e-006zm-0.135074 0.168057c-0.00242467,-0.00266053 -0.00107553,-0.0010661 0.000632112,0.0010378 5.6607e-005,-0.000169821 -0.00010378,-0.000462291 -0.000632112,-0.0010378zm0.00145291 0.0307376l-9.4345e-006 -9.4345e-006 -0.00010378 2.83035e-005 1.8869e-005 9.4345e-006 0 0 9.4345e-005 -2.83035e-005zm0.0294451 -0.00801933c-6.60415e-005,-7.5476e-005 -0.000660415,-0.00115101 -0.000311339,-0.000500029 8.49105e-005,0.000169821 0.000179256,0.000339642 0.000264166,0.000518898l4.71725e-005 -1.8869e-005zm-0.0603525 0.204681c-0.00351907,0 0.00348133,6.60415e-005 0.00342472,0.000122649l-0.000471725 -0.000405684c-0.000952885,0.000179256 -0.00194351,0.000283035 -0.002953,0.000283035z"/>
   <rect id="_97749032" class="fil1" x="3.30127e-005" width="0.798791" height="0.798791"/>
  </g>
 </g>
</svg>
