<?xml version="1.0" encoding="UTF-8"?>
<!DOCTYPE svg PUBLIC "-//W3C//DTD SVG 1.1//EN" "http://www.w3.org/Graphics/SVG/1.1/DTD/svg11.dtd">
<!-- Creator: CorelDRAW -->
<svg xmlns="http://www.w3.org/2000/svg" xml:space="preserve" width="8.4668mm" height="8.4668mm" style="shape-rendering:geometricPrecision; text-rendering:geometricPrecision; image-rendering:optimizeQuality; fill-rule:evenodd; clip-rule:evenodd"
viewBox="0 0 2.20992 2.20992"
 xmlns:xlink="http://www.w3.org/1999/xlink">
 <defs>
  <style type="text/css">
   <![CDATA[
    .fil1 {fill:none}
    .fil0 {fill:white;fill-rule:nonzero}
   ]]>
  </style>
 </defs>
 <g id="Слой_x0020_1">
  <metadata id="CorelCorpID_0Corel-Layer"/>
  <g id="_175285448">
   <path id="_155387000" class="fil0" d="M0.136769 0.270302l0.968191 0.187484 0.968165 -0.187484c0.00391515,-0.00101794 0.00798691,-0.00153996 0.0122153,-0.00153996 0.0267013,0 0.0483391,0.0216377 0.0483391,0.0483391l0 1.38591 -7.8303e-005 0c2.6101e-005,0.0227079 -0.0160782,0.0429884 -0.0392037,0.0473994l-0.977248 0.189232 -0.000104404 2.6101e-005 -7.8303e-005 2.6101e-005 -0.000182707 5.2202e-005 -0.000730828 0.000182707 -0.000182707 2.6101e-005 0 0 -0.000182707 5.2202e-005 -0.000182707 2.6101e-005 -0.000208808 5.2202e-005 -0.000365414 7.8303e-005 -0.000182707 5.2202e-005 -5.2202e-005 0 -0.000313212 5.2202e-005 -0.000182707 5.2202e-005 -0.000391515 7.8303e-005 -0.000182707 2.6101e-005 -0.000104404 2.6101e-005 -7.8303e-005 0 -0.000182707 2.6101e-005 -0.000756929 0.000130505 -0.000182707 2.6101e-005 0 0 -0.000208808 2.6101e-005 -0.000182707 2.6101e-005 -0.000182707 2.6101e-005 -0.000391515 5.2202e-005 -0.000182707 2.6101e-005 -5.2202e-005 2.6101e-005 -0.000130505 0 -0.000208808 2.6101e-005 -0.000182707 2.6101e-005 -0.000182707 2.6101e-005 -0.000391515 5.2202e-005 -0.000130505 0 -5.2202e-005 0 -0.000600323 5.2202e-005 -0.000182707 2.6101e-005 -0.000182707 2.6101e-005 -0.000182707 0 -2.6101e-005 0 -0.000182707 2.6101e-005 -0.000208808 0 -0.000365414 2.6101e-005 -0.000208808 2.6101e-005 -0.000182707 0 -7.8303e-005 0 -0.000130505 0 -0.000182707 2.6101e-005 -0.00078303 2.6101e-005 -0.000130505 0 -7.8303e-005 0 -0.000182707 0 -0.000991838 0 -0.000991838 0 -0.000182707 0 -7.8303e-005 0 -0.000130505 0 -0.00078303 -2.6101e-005 -0.000182707 -2.6101e-005 -0.000130505 0 -7.8303e-005 0 -0.000182707 0 -0.000208808 -2.6101e-005 -0.000391515 -2.6101e-005 -0.000182707 0 -0.000182707 -2.6101e-005 -2.6101e-005 0 -0.000182707 0 -0.000182707 -2.6101e-005 -0.000208808 -2.6101e-005 -0.000574222 -5.2202e-005 -7.8303e-005 0 -0.000104404 0 -0.000391515 -5.2202e-005 -0.000182707 -2.6101e-005 -0.000208808 -2.6101e-005 -0.000182707 -2.6101e-005 -0.000130505 0 -5.2202e-005 -2.6101e-005 -0.000182707 -2.6101e-005 -0.000391515 -5.2202e-005 -0.000182707 -2.6101e-005 -0.000182707 -2.6101e-005 -0.000208808 -2.6101e-005 0 0 -0.000182707 -2.6101e-005 -0.000756929 -0.000130505 -0.000182707 -2.6101e-005 -7.8303e-005 0 -0.000104404 -2.6101e-005 -0.000182707 -2.6101e-005 -0.000391515 -7.8303e-005 -0.000182707 -5.2202e-005 -0.000313212 -5.2202e-005 -5.2202e-005 0 -0.000182707 -5.2202e-005 -0.000391515 -7.8303e-005 -0.000182707 -5.2202e-005 -0.000182707 -2.6101e-005 -0.000182707 -5.2202e-005 0 0 -0.000182707 -2.6101e-005 -0.000730828 -0.000182707 -0.000182707 -5.2202e-005 -7.8303e-005 -2.6101e-005 -0.000104404 -2.6101e-005 -0.977248 -0.189232c-0.0231255,-0.00441107 -0.0392298,-0.0246915 -0.0392037,-0.0473994l-7.8303e-005 0 0 -1.38591c0,-0.0267013 0.0216377,-0.0483391 0.0483391,-0.0483391 0.00422836,0 0.00830012,0.00052202 0.0121892,0.00153996zm1.75221 1.24202c0.0261793,-0.00501139 0.0514712,0.0121631 0.0564826,0.0383424 0.00498529,0.0261793 -0.0121631,0.0514712 -0.0383685,0.0564826l-0.605778 0.117298c-0.0261793,0.00501139 -0.0514712,-0.0121631 -0.0564826,-0.0383424 -0.00501139,-0.0261793 0.0121631,-0.0514712 0.0383424,-0.0564826l0.605804 -0.117298zm0 -0.199751c0.0261793,-0.00501139 0.0514712,0.0121631 0.0564826,0.0383424 0.00498529,0.0261793 -0.0121631,0.0514712 -0.0383685,0.0564826l-0.605778 0.117298c-0.0261793,0.00501139 -0.0514712,-0.0121631 -0.0564826,-0.0383424 -0.00501139,-0.0261793 0.0121631,-0.0514712 0.0383424,-0.0564826l0.605804 -0.117298zm0 -0.199751c0.0261793,-0.00501139 0.0514712,0.0121631 0.0564826,0.0383424 0.00498529,0.0261793 -0.0121631,0.0514712 -0.0383685,0.0564826l-0.605778 0.117298c-0.0261793,0.00501139 -0.0514712,-0.0121631 -0.0564826,-0.0383424 -0.00501139,-0.0261793 0.0121631,-0.0514712 0.0383424,-0.0564826l0.605804 -0.117298zm0 -0.199777c0.0261793,-0.00498529 0.0514712,0.0121631 0.0564826,0.0383424 0.00498529,0.0262054 -0.0121631,0.0514973 -0.0383685,0.0564826l-0.605778 0.117324c-0.0261793,0.00501139 -0.0514712,-0.0121631 -0.0564826,-0.0383424 -0.00501139,-0.0261793 0.0121631,-0.0514712 0.0383424,-0.0564826l0.605804 -0.117324zm0 -0.199751c0.0261793,-0.00498529 0.0514712,0.0121631 0.0564826,0.0383424 0.00498529,0.0262054 -0.0121631,0.0514712 -0.0383685,0.0564826l-0.605778 0.117324c-0.0261793,0.00498529 -0.0514712,-0.0121631 -0.0564826,-0.0383685 -0.00501139,-0.0261793 0.0121631,-0.0514712 0.0383424,-0.0564565l0.605804 -0.117324zm0 -0.199751c0.0261793,-0.00501139 0.0514712,0.0121631 0.0564826,0.0383424 0.00498529,0.0261793 -0.0121631,0.0514712 -0.0383685,0.0564826l-0.605778 0.117298c-0.0261793,0.00501139 -0.0514712,-0.0121631 -0.0564826,-0.0383424 -0.00501139,-0.0261793 0.0121631,-0.0514712 0.0383424,-0.0564565l0.605804 -0.117324zm-0.735657 0.0332266l0 1.28754 0.883649 -0.171092 0 -1.28756 -0.883649 0.171118zm-0.850527 1.06038c-0.0261793,-0.00501139 -0.0433277,-0.0303033 -0.0383424,-0.0564826 0.00501139,-0.0261793 0.0303033,-0.0433538 0.0564826,-0.0383424l0.605804 0.117298c0.0261793,0.00501139 0.0433538,0.0303033 0.0383424,0.0564826 -0.00501139,0.0261793 -0.0303033,0.0433538 -0.0564826,0.0383424l-0.605804 -0.117298zm0 -0.199751c-0.0261793,-0.00501139 -0.0433277,-0.0303033 -0.0383424,-0.0564826 0.00501139,-0.0261793 0.0303033,-0.0433538 0.0564826,-0.0383424l0.605804 0.117298c0.0261793,0.00501139 0.0433538,0.0303033 0.0383424,0.0564826 -0.00501139,0.0261793 -0.0303033,0.0433538 -0.0564826,0.0383424l-0.605804 -0.117298zm0 -0.199751c-0.0261793,-0.00501139 -0.0433277,-0.0303033 -0.0383424,-0.0564826 0.00501139,-0.0261793 0.0303033,-0.0433538 0.0564826,-0.0383424l0.605804 0.117298c0.0261793,0.00501139 0.0433538,0.0303033 0.0383424,0.0564826 -0.00501139,0.0261793 -0.0303033,0.0433538 -0.0564826,0.0383424l-0.605804 -0.117298zm0 -0.199777c-0.0261793,-0.00498529 -0.0433277,-0.0302772 -0.0383424,-0.0564826 0.00501139,-0.0261793 0.0303033,-0.0433277 0.0564826,-0.0383424l0.605804 0.117324c0.0261793,0.00501139 0.0433538,0.0303033 0.0383424,0.0564826 -0.00501139,0.0261793 -0.0303033,0.0433538 -0.0564826,0.0383424l-0.605804 -0.117324zm0 -0.199751c-0.0261793,-0.00501139 -0.0433277,-0.0302772 -0.0383424,-0.0564826 0.00501139,-0.0261793 0.0303033,-0.0433277 0.0564826,-0.0383424l0.605804 0.117324c0.0261793,0.00498529 0.0433538,0.0302772 0.0383424,0.0564565 -0.00501139,0.0262054 -0.0303033,0.0433538 -0.0564826,0.0383685l-0.605804 -0.117324zm0 -0.199751c-0.0261793,-0.00501139 -0.0433277,-0.0303033 -0.0383424,-0.0564826 0.00501139,-0.0261793 0.0303033,-0.0433538 0.0564826,-0.0383424l0.605804 0.117324c0.0261793,0.00498529 0.0433538,0.0302772 0.0383424,0.0564565 -0.00501139,0.0261793 -0.0303033,0.0433538 -0.0564826,0.0383424l-0.605804 -0.117298zm0.753797 -0.0615984l-0.883649 -0.171118 0 1.28756 0.883649 0.171092 0 -1.28754z"/>
   <rect id="_177761104" class="fil1" x="1.30282e-005" y="1.30282e-005" width="2.20989" height="2.20989"/>
  </g>
 </g>
</svg>
