<?xml version="1.0" encoding="UTF-8"?>
<!DOCTYPE svg PUBLIC "-//W3C//DTD SVG 1.1//EN" "http://www.w3.org/Graphics/SVG/1.1/DTD/svg11.dtd">
<!-- Creator: CorelDRAW -->
<svg xmlns="http://www.w3.org/2000/svg" xml:space="preserve" width="39.8125mm" height="42.1783mm" style="shape-rendering:geometricPrecision; text-rendering:geometricPrecision; image-rendering:optimizeQuality; fill-rule:evenodd; clip-rule:evenodd"
viewBox="0 0 0.159449 0.168924"
 xmlns:xlink="http://www.w3.org/1999/xlink">
 <defs>
  <style type="text/css">
   <![CDATA[
    .fil0 {fill:white;fill-rule:nonzero}
   ]]>
  </style>
 </defs>
 <g id="Слой_x0020_1">
  <metadata id="CorelCorpID_0Corel-Layer"/>
  <path class="fil0" d="M0.0319723 0l0.0929459 0c0.00367058,0 0.00700553,0.00149947 0.00942055,0.00391408 0.00241501,0.00241501 0.00391408,0.00574997 0.00391408,0.00942055l0 0.0347393c-0.00223439,0.00154192 -0.00467984,0.00333696 -0.00730551,0.00536149l0 -0.0401008c0,-0.00165406 -0.000679647,-0.00316114 -0.00177381,-0.00425531 -0.00109416,-0.00109416 -0.00260124,-0.00177381 -0.00425531,-0.00177381l-0.0929459 0c-0.00165366,0 -0.00316074,0.000679647 -0.00425491,0.00177381 -0.00109416,0.00109416 -0.00177421,0.00260124 -0.00177421,0.00425531l0 0.00171133c0.00402342,0.000185031 0.0077829,0.00101326 0.0110049,0.00232009 0.00131164,0.000531863 0.00254157,0.00114783 0.00367218,0.00183709 0.000774566,-0.000286758 0.00161201,-0.000443353 0.0024863,-0.000443353 0.00197686,0 0.0037675,0.000801399 0.00506351,0.00209742 0.00129642,0.00129642 0.00209782,0.00308665 0.00209782,0.00506351 0,0.00197727 -0.0008022,0.0037679 -0.00209782,0.00506351 -0.00129602,0.00129602 -0.00308665,0.00209822 -0.00506351,0.00209822 -0.00197727,0 -0.0037675,-0.0008018 -0.00506351,-0.00209782 -0.00129602,-0.00129602 -0.00209782,-0.00308705 -0.00209782,-0.00506391 0,-0.000324004 2.1627e-005,-0.000643202 6.32789e-005,-0.000956392 -0.000563503,-0.000298372 -0.00116505,-0.00057752 -0.00180024,-0.000835041 -0.00239018,-0.000969208 -0.00520689,-0.00159719 -0.00826511,-0.00176941l0 0.0118472c0.00402382,0.00018423 0.0077833,0.00101286 0.0110049,0.00231969 0.00131204,0.000531863 0.00254157,0.00114783 0.00367218,0.00183709 0.000774566,-0.000287158 0.00161201,-0.000443753 0.0024863,-0.000443753 0.00197686,0 0.0037675,0.0008018 0.00506351,0.00209782 0.00129562,0.00129602 0.00209782,0.00308665 0.00209782,0.00506391 0,0.00197686 -0.0008022,0.0037675 -0.00209782,0.00506351 -0.00129602,0.00129602 -0.00308665,0.00209782 -0.00506351,0.00209782 -0.00197727,0 -0.0037675,-0.0008018 -0.00506351,-0.00209782 -0.00129602,-0.00129642 -0.00209782,-0.00308665 -0.00209782,-0.00506351 0,-0.000324404 2.1627e-005,-0.000644003 6.32789e-005,-0.000956793 -0.000563503,-0.000298372 -0.00116505,-0.00057712 -0.00179984,-0.000835041 -0.00239058,-0.000969208 -0.00520689,-0.00159679 -0.00826551,-0.00176901l0 0.0118464c0.00402382,0.000185031 0.0077833,0.00101326 0.0110049,0.00232009 0.00131164,0.000531863 0.00254157,0.00114783 0.00367178,0.00183709 0.000774566,-0.000286758 0.00161201,-0.000443753 0.0024867,-0.000443753 0.00197686,0 0.0037675,0.0008018 0.00506351,0.00209782 0.00129562,0.00129562 0.00209782,0.00308665 0.00209782,0.00506351 0,0.00197727 -0.000801399,0.0037675 -0.00209782,0.00506351 -0.00129602,0.00129642 -0.00308665,0.00209782 -0.00506351,0.00209782 -0.00197727,0 -0.0037675,-0.000801399 -0.00506351,-0.00209782 -0.00129602,-0.00129602 -0.00209782,-0.00308625 -0.00209782,-0.00506351 0,-0.000324004 2.1627e-005,-0.000643202 6.32789e-005,-0.000956392 -0.000563503,-0.000298372 -0.00116505,-0.00057752 -0.00180024,-0.000835041 -0.00239018,-0.000969208 -0.00520689,-0.00159679 -0.00826511,-0.00176901l0 0.0118464c0.00402382,0.00018463 0.0077833,0.00101326 0.0110049,0.00231969 0.00131164,0.000532264 0.00254157,0.00114823 0.00367178,0.00183749 0.000774566,-0.000286758 0.00161201,-0.000443753 0.0024867,-0.000443753 0.00197686,0 0.0037675,0.000801399 0.00506351,0.00209742 0.00129562,0.00129602 0.00209782,0.00308665 0.00209782,0.00506391 0,0.00197727 -0.000801399,0.0037675 -0.00209782,0.00506351 -0.00129602,0.00129602 -0.00308665,0.00209782 -0.00506351,0.00209782 -0.00197727,0 -0.0037675,-0.0008018 -0.00506351,-0.00209782 -0.00129602,-0.00129602 -0.00209782,-0.00308625 -0.00209782,-0.00506351 0,-0.000324404 2.1627e-005,-0.000643602 6.32789e-005,-0.000956392 -0.000563503,-0.000298372 -0.00116505,-0.00057752 -0.00180024,-0.000835041 -0.00239018,-0.000969208 -0.00520689,-0.00159679 -0.00826511,-0.00176901l0 0.0118464c0.00402382,0.00018423 0.0077833,0.00101286 0.0110049,0.00231969 0.00131204,0.000531863 0.00254157,0.00114823 0.00367218,0.00183749 0.000774566,-0.000287158 0.00161201,-0.000443753 0.0024863,-0.000443753 0.00197686,0 0.0037675,0.0008018 0.00506351,0.00209782 0.00129642,0.00129602 0.00209782,0.00308625 0.00209782,0.00506351 0,0.00197686 -0.0008022,0.0037679 -0.00209782,0.00506351 -0.00129602,0.00129642 -0.00308665,0.00209782 -0.00506351,0.00209782 -0.00197727,0 -0.0037675,-0.000801399 -0.00506351,-0.00209782 -0.00129602,-0.00129602 -0.00209782,-0.00308665 -0.00209782,-0.00506351 0,-0.000324404 2.1627e-005,-0.000644003 6.32789e-005,-0.000956793 -0.000563503,-0.000298372 -0.00116505,-0.00057712 -0.00179984,-0.000835041 -0.00239058,-0.000969208 -0.00520689,-0.00159679 -0.00826551,-0.00176901l0 0.0118468c0.00402382,0.00018463 0.0077833,0.00101326 0.0110049,0.00231969 0.00131164,0.000532264 0.00254157,0.00114783 0.00367218,0.00183709 0.000774566,-0.000286758 0.00161201,-0.000443353 0.0024863,-0.000443353 0.00197686,0 0.0037675,0.000801399 0.00506351,0.00209742 0.00129642,0.00129642 0.00209782,0.00308665 0.00209782,0.00506351 0,0.00197727 -0.0008022,0.0037679 -0.00209782,0.00506391 -0.00129602,0.00129602 -0.00308665,0.00209782 -0.00506351,0.00209782 -0.00197727,0 -0.0037675,-0.0008018 -0.00506351,-0.00209782 -0.00129602,-0.00129602 -0.00209782,-0.00308705 -0.00209782,-0.00506391 0,-0.000324004 2.1627e-005,-0.000643202 6.32789e-005,-0.000956392 -0.000563503,-0.000297972 -0.00116505,-0.00057712 -0.00180024,-0.000834641 -0.00239018,-0.000969208 -0.00520689,-0.00159679 -0.00826511,-0.00176901l0 0.0200666c0,0.00165406 0.000680048,0.00316114 0.00177421,0.00425531 0.00109416,0.00109416 0.00260084,0.00177421 0.00425491,0.00177421l0.0183313 0c-0.00071409,0.00091394 -0.00140695,0.00181306 -0.00207699,0.00269576 -0.00122152,0.00161001 -0.00235253,0.00314913 -0.00338662,0.00460975l-0.0128676 0c-0.00367098,0 -0.00700553,-0.00149947 -0.00942015,-0.00391448 -0.00131404,-0.00131364 -0.00235614,-0.00289962 -0.00303418,-0.00466382 -0.004494,-0.000581926 -0.00854666,-0.00197727 -0.0117362,-0.0039281 -0.00480719,-0.00294127 -0.0077817,-0.00717735 -0.0077817,-0.0120098 0,-0.00362852 0.00167689,-0.00692023 0.00454687,-0.00958035 -0.00286998,-0.00266012 -0.00454687,-0.00595222 -0.00454687,-0.00958075 0,-0.00362812 0.00167689,-0.00691983 0.00454687,-0.00957994 -0.00286998,-0.00266012 -0.00454687,-0.00595222 -0.00454687,-0.00958035 0,-0.00362812 0.00167689,-0.00692023 0.00454687,-0.00958035 -0.00286998,-0.00266012 -0.00454687,-0.00595222 -0.00454687,-0.00958035 0,-0.00362812 0.00167689,-0.00691983 0.00454687,-0.00958035 -0.00286998,-0.00266012 -0.00454687,-0.00595222 -0.00454687,-0.00958035 0,-0.00362812 0.00167689,-0.00692023 0.00454687,-0.00957994 -0.00286998,-0.00266052 -0.00454687,-0.00595222 -0.00454687,-0.00958035 0,-0.00483283 0.00297451,-0.00906931 0.0077817,-0.0120102 0.00297972,-0.00182267 0.00671317,-0.00316074 0.0108559,-0.00380314l0 -0.00209822c0,-0.00367058 0.00149947,-0.00700553 0.00391448,-0.00942055 0.00241461,-0.00241461 0.00574957,-0.00391408 0.00942015,-0.00391408zm0.0610181 0.102455c0.0128516,-0.0128516 0.0252379,-0.0242458 0.0357654,-0.0330905l-0.00262287 -0.00262287c-0.00904688,0.00760108 -0.0194679,0.0170861 -0.0303771,0.027761l-0.00262327 -0.00262327c0.0230359,-0.0225405 0.0438963,-0.0397804 0.0542392,-0.0451695l0.00262287 0.00262327c-0.00229887,0.00119749 -0.00511798,0.00298252 -0.00836483,0.00527938l0.00262247 0.00262247c0.00789224,-0.00558416 0.0132577,-0.00813655 0.0147752,-0.00661865 0.00392009,0.00392009 -0.0192937,0.0334922 -0.0518386,0.0660371 -0.0111567,0.0111567 -0.0219634,0.0212165 -0.0315081,0.0294627l-0.0121532 -0.0121532c0.00824628,-0.0095443 0.018306,-0.0203514 0.0294627,-0.0315081zm-0.0209601 0.0467787c-0.00829634,0.00699993 -0.0154685,0.0124483 -0.0208484,0.0158225l-0.00659382 -0.00659382c0.00337341,-0.00538031 0.0088226,-0.0125525 0.0158225,-0.0208484l0.0116197 0.0116197zm-0.0251654 0.0182732c-0.00290803,0.00142938 -0.00488409,0.00181386 -0.00571272,0.000985228 -0.000829034,-0.000828633 -0.000444554,-0.0028047 0.000984828,-0.00571312l0.0047279 0.0047279zm-0.0282272 -0.0320504l0 -0.0117555c-0.00273301,-0.000423728 -0.00528739,-0.00115023 -0.00756503,-0.00211864 -0.00234092,0.00156115 -0.0037671,0.00348755 -0.0037671,0.00546642 0,0.00211704 0.00163284,0.00417481 0.00427173,0.00578882 0.00193201,0.00118187 0.00434221,0.002089 0.0070604,0.00261887zm-0.00756503 -0.022102c0.00227764,-0.000968407 0.00483243,-0.00169491 0.00756503,-0.00211864l0 -0.00669595c-0.00273261,-0.000423728 -0.00528739,-0.00114983 -0.00756503,-0.00211864 -0.00234092,0.00156115 -0.0037671,0.00348835 -0.0037671,0.00546642 0,0.00197887 0.00142618,0.00390567 0.0037671,0.00546682zm0 -0.0191607c0.00227764,-0.000968407 0.00483243,-0.00169491 0.00756503,-0.00211864l0 -0.00669555c-0.00273261,-0.000423728 -0.00528739,-0.00115023 -0.00756503,-0.00211864 -0.00234092,0.00156115 -0.0037671,0.00348795 -0.0037671,0.00546642 0,0.00197847 0.00142618,0.00390527 0.0037671,0.00546642zm0 -0.0191607c0.00227764,-0.000968407 0.00483243,-0.00169491 0.00756503,-0.00211864l0 -0.00669555c-0.00273261,-0.000423728 -0.00528739,-0.00115023 -0.00756503,-0.00211864 -0.00234092,0.00156115 -0.0037671,0.00348795 -0.0037671,0.00546642 0,0.00197847 0.00142618,0.00390527 0.0037671,0.00546642zm0 -0.0191603c0.00227764,-0.000968808 0.00483243,-0.00169491 0.00756503,-0.00211904l0 -0.00669555c-0.00273261,-0.000423728 -0.00528739,-0.00114983 -0.00756503,-0.00211864 -0.00234092,0.00156115 -0.0037671,0.00348795 -0.0037671,0.00546642 0,0.00197847 0.00142618,0.00390567 0.0037671,0.00546682zm0 -0.0191607c0.00227764,-0.000968808 0.00483243,-0.00169491 0.00756503,-0.00211864l0 -0.0117559c-0.00271859,0.00052946 -0.00512839,0.00143699 -0.0070604,0.00261846 -0.00263889,0.00161441 -0.00427173,0.00367218 -0.00427173,0.00578962 0,0.00197847 0.00142618,0.00390527 0.0037671,0.00546642zm0.12718 0.0521562l0 0.0493615c0,0.00367058 -0.00149907,0.00700553 -0.00391408,0.00942055 -0.00241501,0.00241501 -0.00574997,0.00391448 -0.00942055,0.00391448l-0.0499983 0 0.000566306 -0.000477796 5.20649e-006 5.20649e-006 0.000475793 -0.000410912 0.00145141 -0.00122473 -1.602e-005 -1.56195e-005 0.000660824 -0.000571112c0.00170052,-0.00146903 0.00345311,-0.00300735 0.00525295,-0.00461055l0.0416019 0c0.00165406,0 0.00316114,-0.000680048 0.00425531,-0.00177421 0.00109456,-0.00109416 0.00177381,-0.00260124 0.00177381,-0.00425531l0 -0.0411577c0.00255719,-0.00281231 0.00499743,-0.00555292 0.00730551,-0.00820383z"/>
 </g>
</svg>
