<?xml version="1.0" encoding="UTF-8"?>
<!DOCTYPE svg PUBLIC "-//W3C//DTD SVG 1.1//EN" "http://www.w3.org/Graphics/SVG/1.1/DTD/svg11.dtd">
<!-- Creator: CorelDRAW -->
<svg xmlns="http://www.w3.org/2000/svg" xml:space="preserve" width="38.7528mm" height="33.3572mm" style="shape-rendering:geometricPrecision; text-rendering:geometricPrecision; image-rendering:optimizeQuality; fill-rule:evenodd; clip-rule:evenodd"
viewBox="0 0 0.15473 0.133187"
 xmlns:xlink="http://www.w3.org/1999/xlink">
 <defs>
  <style type="text/css">
   <![CDATA[
    .fil0 {fill:white;fill-rule:nonzero}
   ]]>
  </style>
 </defs>
 <g id="Слой_x0020_1">
  <metadata id="CorelCorpID_0Corel-Layer"/>
  <path class="fil0" d="M0.119432 0.0680493l0.000219602 0.0619328c0,0.0017628 -0.00142941,0.00319261 -0.00319221,0.00319261l0 1.23775e-005 -0.0781973 0c-0.00176999,0 -0.00320499,-0.001435 -0.00320499,-0.00320499 0,-9.90204e-005 4.79131e-006,-0.000196843 1.35754e-005,-0.000293867l0.000218404 -0.0616394 -0.0018718 0.00454535c-0.000668787,0.00162745 -0.00252741,0.00240683 -0.00415646,0.00174563l-0.0271448 -0.00973873c-0.00165939,-0.000594521 -0.00252222,-0.00242201 -0.0019281,-0.0040814l2.23594e-005 -5.90928e-005 -9.58262e-006 -3.59348e-006 0.0184038 -0.0481183c0.000796555,-0.00284244 0.00247551,-0.00517022 0.00467991,-0.00687992 0.00232858,-0.00180552 0.0052373,-0.00290713 0.00828138,-0.00317424l0.0259034 -0.00227308c0.0017632,-0.000152124 0.00331638,0.00115391 0.00346811,0.00291711l7.58624e-006 0.000113794c0.000381708,0.00448586 0.00235732,0.00847742 0.00532194,0.0113382 0.00292429,0.00282088 0.00682003,0.00454336 0.0110939,0.00454336 0.00427345,0 0.00816918,-0.00172248 0.0110931,-0.00454336 0.00298459,-0.00287958 0.00496659,-0.00690507 0.00532993,-0.0114269 0.00013775,-0.0017628 0.00167975,-0.00308041 0.00344255,-0.00294226l2.51544e-005 2.39565e-006 0 -2.39565e-006 0.0259038 0.00227308c0.00309119,0.000271108 0.00597716,0.0013779 0.00827858,0.00316266 0.00222237,0.00172327 0.00389054,0.00406503 0.0046827,0.0068919l0.0184042 0.0481179c0.000628859,0.0016526 -0.000200836,0.00350245 -0.00185304,0.0041317 -9.98189e-005,3.79312e-005 -0.000200037,7.02725e-005 -0.000301054,9.78225e-005l-0.0270318 0.00969801c-0.00161307,0.000577752 -0.00338466,-0.000221598 -0.00402829,-0.00179155l-2.79493e-006 1.19783e-006 -0.0018718 -0.00454495zm0.0271799 -0.0103444l-0.0215106 0.0073327 0.000950675 0.00230781 0.0213213 -0.00764932 -0.000761419 -0.00199119zm-0.0239513 0.00140545l0.0216643 -0.0073854 -0.0142234 -0.0371877 6.78769e-006 -2.39565e-006c-4.15247e-005,-0.000108603 -7.70602e-005,-0.0002204 -0.000107006,-0.000335392 -0.000390092,-0.00150886 -0.00127648,-0.00276618 -0.00247351,-0.0036945 -0.0013256,-0.00102774 -0.00304208,-0.00167017 -0.00492347,-0.00183547l-0.0154588 -0.00135634c-0.00122578,0.00682442 -0.00454775,0.0128834 -0.00923924,0.0174128 -0.00540499,0.00521733 -0.0126195,0.00840315 -0.0205455,0.00840315 -0.00792602,0 -0.0151409,-0.00318582 -0.0205459,-0.00840315 -0.00469189,-0.00452938 -0.00801386,-0.0105884 -0.00923964,-0.0174128l-0.0154584 0.00135634c-0.00184944,0.000162505 -0.0035803,0.000803742 -0.00492626,0.00184705 -0.00114233,0.000885993 -0.00201075,0.00207424 -0.0024236,0.00351003 -3.4737e-005,0.000171289 -8.30493e-005,0.000342179 -0.000147333,0.000510674l-0.014233 0.0372133 0.0216631 0.007385 0.00353479 -0.00858363 1.19783e-006 7.98551e-007c0.000477933,-0.00116109 0.00162026,-0.00197881 0.00295344,-0.00197881 0.0017632,0 0.00319261,0.00142941 0.00319261,0.00319261l-0.000265918 0.0750107 0.0717894 0 -0.000265518 -0.0748674c-5.86935e-005,-0.00130803 0.000696736,-0.00257134 0.00197761,-0.00309798 0.00163144,-0.000670783 0.00349845,0.000108603 0.00416924,0.00174044l0.00352401 0.00855807zm-0.0930516 0.0059524l-0.0215094 -0.0073327 -0.000751836 0.00196603 0.0213213 0.00764932 0.000939895 -0.00228266zm0.0254127 -0.0584028l-0.00103572 9.10348e-005c0.00105728,0.00524488 0.00365138,0.00988367 0.00726043,0.0133677 0.0042455,0.00409817 0.00990483,0.00660043 0.0161144,0.00660043 0.00620953,0 0.0118685,-0.00250226 0.0161136,-0.00660043 0.00360945,-0.00348408 0.00620315,-0.00812286 0.00726083,-0.0133677l-0.00103612 -9.10348e-005c-0.00103133,0.00481686 -0.00345773,0.00909071 -0.00681324,0.0123276 -0.00408419,0.00394085 -0.0095359,0.00634689 -0.015525,0.00634689 -0.00598953,0 -0.0114408,-0.00240603 -0.0155254,-0.00634689 -0.00335511,-0.00323693 -0.00578231,-0.00751077 -0.00681364,-0.0123276z"/>
 </g>
</svg>
