<?xml version="1.0" encoding="UTF-8"?>
<!DOCTYPE svg PUBLIC "-//W3C//DTD SVG 1.1//EN" "http://www.w3.org/Graphics/SVG/1.1/DTD/svg11.dtd">
<!-- Creator: CorelDRAW -->
<svg xmlns="http://www.w3.org/2000/svg" xml:space="preserve" width="82.48mm" height="120.735mm" style="shape-rendering:geometricPrecision; text-rendering:geometricPrecision; image-rendering:optimizeQuality; fill-rule:evenodd; clip-rule:evenodd"
viewBox="0 0 0.722411 1.05747"
 xmlns:xlink="http://www.w3.org/1999/xlink">
 <defs>
  <style type="text/css">
   <![CDATA[
    .fil0 {fill:#1F1A17}
    .fil2 {fill:white}
    .fil1 {fill:#1F1A17;fill-rule:nonzero}
   ]]>
  </style>
 </defs>
 <g id="Слой_x0020_1">
  <metadata id="CorelCorpID_0Corel-Layer"/>
  <g id="_108637288">
   <path id="_191829040" class="fil0" d="M-0 0c0.0403107,0 0.0806204,0 0.120932,0 0.0403098,0 0.0806931,0 0.121076,0 0.0117751,0.0133709 0.0273067,0.0335902 0.0382874,0.0609845 -0.00296216,-0.0221759 -0.0064297,-0.0423952 -0.0106916,-0.0609845 0.0335919,0 0.0672565,0 0.100848,0 0.0335919,0 0.0672565,0 0.100921,0 -0.0111979,0.018344 -0.0210951,0.0384819 -0.02933,0.0609845 0.023911,-0.0208718 0.0468122,-0.0429663 0.0733245,-0.0609845 0.0344581,0 0.0689899,0 0.103449,0 0.034459,0 0.0690626,0 0.103593,0 0,0.0399498 0,0.0798173 0,0.119685 -0.0315696,-0.00913086 -0.0761413,-0.00823397 -0.113635,0.0176924 0.0411778,-0.00831631 0.0710131,-0.00856067 0.113635,0.00187434 0,0.0346508 0,0.0693814 0,0.10395 0,0.0345685 0,0.0692185 0,0.103787 -0.0236947,-0.0055442 -0.0447171,-0.00945755 -0.0754196,-0.0119844 0.0335928,0.0217678 0.057143,0.0391335 0.0754196,0.0556838 0,0.0419065 0,0.0838121 0,0.125636 0,0.041825 0,0.0836492 0,0.125473 -0.0419722,-0.023643 -0.0797542,-0.0343233 -0.10959,-0.0379108 0.0305588,0.0162245 0.0773701,0.0435365 0.10959,0.0704412 0,0.0470425 0,0.0940027 0,0.140964 -0.05837,0 -0.116741,0 -0.175112,0 -0.0204444,-0.0462271 -0.052592,-0.0838121 -0.073469,-0.104031 0.0088138,0.020546 0.01936,0.0607392 0.028102,0.104031 -0.0484019,0 -0.096731,0 -0.14506,0 -0.0483292,0 -0.0966583,0 -0.144988,0 0.00910195,-0.0335078 0.0201545,-0.0649784 0.0292573,-0.0860131 -0.0177712,0.0171213 -0.0420449,0.0513632 -0.0600324,0.0860131 -0.0301971,0 -0.060466,0 -0.0905904,0 -0.0301244,0 -0.0603933,0 -0.0905177,0 0,-0.0419871 0,-0.0840564 0,-0.126125 0.0324367,-0.0394602 0.0723129,-0.0736214 0.109518,-0.08528 -0.0320758,0.000408152 -0.0714467,0.00750088 -0.109518,0.0307366 0,-0.0390529 0,-0.0781864 0,-0.117238 0,-0.0390529 0,-0.0781873 0,-0.117321 0.0241282,-0.0217687 0.0541808,-0.0431283 0.0965865,-0.0705226 -0.0379993,0.00334229 -0.0675456,0.0105988 -0.0965865,0.0239697 0,-0.0370962 0,-0.0741916 0,-0.111288 0,-0.0370954 0,-0.0741916 0,-0.111368 0.0282465,-0.0233172 0.0770811,-0.0197297 0.111035,-0.0180173 -0.0405997,-0.0281283 -0.0793933,-0.0247851 -0.111035,-0.0131274 0,-0.033182 0,-0.0664455 0,-0.0997098z"/>
   <path id="_107222528" class="fil1" d="M-0 1.05488l0 -0.187748 0.0125809 0 0 0.175693 0.052909 0 0 0.0120554 -0.0654899 0zm0.155133 -0.187748l0.0129759 0 -0.0444491 0.187748 -0.013984 0 -0.0441863 -0.187748 0.0131073 0 0.0305536 0.132033c0.00241037,0.010082 0.00398867,0.0174901 0.00473403,0.0222688 0.000789151,0.00473403 0.0015783,0.0106951 0.00232278,0.0178851 0.000701565,-0.00495387 0.00140313,-0.00981928 0.00219228,-0.014598 0.000789151,-0.00482162 0.00153451,-0.00885496 0.0022352,-0.0121421 0.000745358,-0.00333178 0.0122305,-0.0517704 0.0344984,-0.145446zm0.033535 0.187748l0 -0.187748 0.0125809 0 0 0.187748 -0.0125809 0zm0.122783 -0.187748l0.0129759 0 -0.0444491 0.187748 -0.013984 0 -0.0441863 -0.187748 0.0131073 0 0.0305536 0.132033c0.00241037,0.010082 0.00398867,0.0174901 0.00473403,0.0222688 0.000789151,0.00473403 0.0015783,0.0106951 0.00232278,0.0178851 0.000701565,-0.00495387 0.00140313,-0.00981928 0.00219228,-0.014598 0.000789151,-0.00482162 0.00153451,-0.00885496 0.0022352,-0.0121421 0.000745358,-0.00333178 0.0122305,-0.0517704 0.0344984,-0.145446zm0.083989 0.00911772c-0.0141583,0 -0.0253807,0.00745183 -0.0337093,0.0224002 -0.00837236,0.0149475 -0.0125371,0.0356379 -0.0125371,0.0621152 0,0.0171827 0.00192865,0.0321748 0.00578682,0.0449308 0.00385729,0.012756 0.00938048,0.0225753 0.0165695,0.0294141 0.00718907,0.00683785 0.0155176,0.0102572 0.0250304,0.0102572 0.00977549,0 0.0181479,-0.00175347 0.0251618,-0.00526042l0 0.0115728c-0.00666355,0.00385729 -0.0154301,0.00578594 -0.0263021,0.00578594 -0.0119222,0 -0.0223555,-0.00385729 -0.031298,-0.0115719 -0.00894255,-0.00771546 -0.0158251,-0.0188494 -0.0207343,-0.0334465 -0.00486541,-0.014598 -0.00732045,-0.0319129 -0.00732045,-0.0519456 0,-0.0299834 0.00534801,-0.053523 0.0160002,-0.0706628 0.0106514,-0.0170959 0.0252047,-0.0256881 0.0436162,-0.0256881 0.0114414,0 0.0214796,0.00267401 0.0300272,0.00797822l-0.00578594 0.0110464c-0.00718907,-0.00460265 -0.0153425,-0.00692544 -0.0245049,-0.00692544zm0.154126 0.0845154c0,0.0310791 -0.00464645,0.0549253 -0.0139393,0.0716271 -0.00929377,0.0167009 -0.0227067,0.0250733 -0.0402415,0.0250733 -0.0177528,0 -0.0311667,-0.00841615 -0.040329,-0.0252493 -0.00916151,-0.0168323 -0.0137642,-0.0407232 -0.0137642,-0.0717147 0,-0.0323946 0.00455886,-0.0564598 0.0136328,-0.0723287 0.00907393,-0.0158251 0.0226638,-0.0237586 0.0408116,-0.0237586 0.0174901,0 0.0308163,0.00832857 0.0400216,0.0249866 0.00920531,0.0166571 0.013808,0.0404158 0.013808,0.0713643zm-0.0951667 0c0,0.0278787 0.00350695,0.0489633 0.0104762,0.0632109 0.00697011,0.0142897 0.0171397,0.0213912 0.0305098,0.0213912 0.0134138,0 0.0236272,-0.00705769 0.0305973,-0.0211722 0.0070139,-0.0141154 0.0104771,-0.0352885 0.0104771,-0.0634299 0,-0.0278358 -0.00341936,-0.0488337 -0.0102581,-0.062992 -0.00688164,-0.014203 -0.0170084,-0.0212607 -0.0304651,-0.0212607 -0.0137642,0 -0.0241098,0.00714528 -0.0309924,0.0214796 -0.00688164,0.0143781 -0.0103448,0.0352876 -0.0103448,0.062773zm0.191737 0.0941148l-0.0499723 -0.170916 -0.00100812 0c0.000832944,0.0179727 0.00127088,0.0293265 0.00127088,0.0341481l0 0.136768 -0.0120545 0 0 -0.187748 0.0186305 0 0.0421254 0.143562c0.00372592,0.0126685 0.00618096,0.0234521 0.00727666,0.0323499l0.00105191 0c0.000832944,-0.00631146 0.00350695,-0.0170075 0.00797822,-0.0320872l0.0417313 -0.143824 0.0192444 0 0 0.187748 -0.0125809 0 0 -0.135759c0,-0.00530422 0.000437931,-0.0169199 0.00127088,-0.0349364l-0.00100812 0 -0.0497095 0.170696 -0.0142468 0z"/>
   <g>
    <path id="_196410616" class="fil2" d="M0.361205 0.68827c0.03417,0 0.0501352,-0.0255191 0.0707232,-0.0392973 -0.012714,-0.0189966 -0.0410324,-0.055033 -0.0707232,-0.055033 -0.0297635,0 -0.0580819,0.0360364 -0.0707968,0.055033 0.0205889,0.0137782 0.0365541,0.0392973 0.0707968,0.0392973z"/>
    <path id="_196412856" class="fil2" d="M0.447606 0.38172c0,0.0401118 0.0132203,0.0777783 0.00325032,0.105173 -0.0143755,0.0392964 -0.0582255,0.0441075 -0.0582255,0.0598424 0,0.0377479 0.0421158,0.070767 0.0707232,0.070767 0.0504242,0 0.0550479,-0.0573146 0.0550479,-0.110064 0.0179157,-0.0267409 0.0864721,-0.0746803 0.0864721,-0.0943294 0,-0.0262522 -0.027524,-0.0943285 -0.047173,-0.0943285 -0.0213833,0 -0.0459451,0.0479385 -0.110095,0.0629403z"/>
    <path id="_196413808" class="fil2" d="M0.274732 0.38172c0,0.0401118 -0.0132194,0.0777783 -0.00325032,0.105173 0.0143755,0.0392964 0.0582255,0.0441075 0.0582255,0.0598424 0,0.0377479 -0.0421167,0.070767 -0.0707232,0.070767 -0.0504242,0 -0.0550479,-0.0573146 -0.0550479,-0.110064 -0.0179157,-0.0267409 -0.0864729,-0.0746803 -0.0864729,-0.0943294 0,-0.0262522 0.027524,-0.0943285 0.0471739,-0.0943285 0.0213833,0 0.0459451,0.0479385 0.110095,0.0629403z"/>
    <path id="_196413024" class="fil2" d="M0.361205 0.507437c0.020299,0 0.0272349,-0.00326083 0.0392263,-0.00595148 0.0246345,-0.00570711 0.0239119,-0.0229099 0.0206607,-0.0459013 -0.00426194,-0.0298397 -0.00852389,-0.0596786 -0.0127867,-0.0895998 0,-0.00260919 0,-0.00521838 0,-0.00790815 0,-0.0475321 0.0452234,-0.0544619 0.090374,-0.0597609 0.0451507,-0.00529984 0.0904458,-0.00905028 0.0904458,-0.0503034 0,-0.00261007 0,-0.00521838 0,-0.00782758 0,-0.0247851 -0.0565649,-0.0865018 -0.0864729,-0.0865018 -0.0598879,0 -0.113562,0.0786751 -0.141447,0.0786751 -0.0279575,0 -0.0816329,-0.0786751 -0.141521,-0.0786751 -0.0299072,0 -0.0864721,0.0617167 -0.0864721,0.0865018 0,0.00260919 0,0.00521751 0,0.00782758 0,0.0412531 0.0452225,0.0450035 0.0903732,0.0503034 0.0451507,0.00529896 0.0904458,0.0122288 0.0904458,0.0597609 0,0.00268977 0,0.00529896 0,0.00790815 -0.00426194,0.0299212 -0.00852476,0.05976 -0.0127867,0.0895998 -0.0032512,0.0229914 -0.00398517,0.0402502 0.0206616,0.0459013 0.0119783,0.00274583 0.0189265,0.00595148 0.039299,0.00595148z"/>
   </g>
  </g>
 </g>
</svg>
