<?xml version="1.0" encoding="UTF-8"?>
<!DOCTYPE svg PUBLIC "-//W3C//DTD SVG 1.1//EN" "http://www.w3.org/Graphics/SVG/1.1/DTD/svg11.dtd">
<!-- Creator: CorelDRAW -->
<svg xmlns="http://www.w3.org/2000/svg" xml:space="preserve" width="18.1501mm" height="3.81mm" style="shape-rendering:geometricPrecision; text-rendering:geometricPrecision; image-rendering:optimizeQuality; fill-rule:evenodd; clip-rule:evenodd"
viewBox="0 0 2.66443 0.559307"
 xmlns:xlink="http://www.w3.org/1999/xlink">
 <defs>
  <style type="text/css">
   <![CDATA[
    .fil1 {fill:white}
    .fil0 {fill:white;fill-rule:nonzero}
   ]]>
  </style>
 </defs>
 <g id="Слой_x0020_1">
  <metadata id="CorelCorpID_0Corel-Layer"/>
  <g id="_157948040">
   <path id="_157947144" class="fil0" d="M0.602069 0.548223l0 -0.535995 0.0359219 0 0 0.50157 0.151042 0 0 0.0344245 -0.186964 0zm0.44288 -0.535995l0.0370375 0 -0.126894 0.535995 -0.0399148 0 -0.126145 -0.535995 0.0374192 0 0.0872283 0.376937c0.0068849,0.0287727 0.0113917,0.0499266 0.0135056,0.0635642 0.00226071,0.0135202 0.00450675,0.0305343 0.00663534,0.0510569 0.00201115,-0.0141368 0.00400763,-0.028024 0.00625366,-0.0416617 0.00226071,-0.0137698 0.00438931,-0.0252789 0.00638578,-0.0346741 0.00212859,-0.00951262 0.0349236,-0.147783 0.0984879,-0.415223zm0.0957427 0.535995l0 -0.535995 0.0359072 0 0 0.535995 -0.0359072 0zm0.350513 -0.535995l0.0370522 0 -0.126908 0.535995 -0.0399148 0 -0.126145 -0.535995 0.0374192 0 0.0872283 0.376937c0.0068849,0.0287727 0.0113917,0.0499266 0.0135056,0.0635642 0.00226071,0.0135202 0.00450675,0.0305343 0.00663534,0.0510569 0.00201115,-0.0141368 0.00400763,-0.028024 0.00625366,-0.0416617 0.00226071,-0.0137698 0.00438931,-0.0252789 0.00638578,-0.0346741 0.00212859,-0.00951262 0.0349236,-0.147783 0.0984879,-0.415223zm0.239783 0.0260276c-0.0404286,0 -0.0724603,0.0212859 -0.0962418,0.0639606 -0.023899,0.0426747 -0.0357897,0.101732 -0.0357897,0.177319 0,0.0490604 0.00550499,0.0918525 0.016515,0.128274 0.01101,0.036421 0.0267909,0.064445 0.0473135,0.0839694 0.0205226,0.0195244 0.0442894,0.0292865 0.0714474,0.0292865 0.0279066,0 0.0518056,-0.00500587 0.0718291,-0.0150176l0 0.0330299c-0.0190106,0.01101 -0.0440399,0.016515 -0.0750733,0.016515 -0.0340428,0 -0.0638285,-0.01101 -0.0893569,-0.0330299 -0.0255285,-0.0220199 -0.0451702,-0.0538167 -0.0591896,-0.0954785 -0.0138872,-0.0416764 -0.0209043,-0.0911038 -0.0209043,-0.148297 0,-0.0855989 0.0152672,-0.152804 0.045684,-0.201732 0.0304022,-0.0488109 0.0719465,-0.0733264 0.124515,-0.0733264 0.0326629,0 0.0613182,0.00763358 0.0857163,0.0227686l-0.016515 0.0315326c-0.0205226,-0.0131386 -0.043805,-0.0197739 -0.06995,-0.0197739zm0.439988 0.24128c0,0.0887257 -0.013256,0.156797 -0.0397827,0.204477 -0.0265414,0.0476805 -0.0648267,0.0715795 -0.114885,0.0715795 -0.0506899,0 -0.0889753,-0.0240164 -0.115135,-0.0720786 -0.0261597,-0.0480475 -0.0392983,-0.116251 -0.0392983,-0.204727 0,-0.0924838 0.0130211,-0.161186 0.0389313,-0.206488 0.0258955,-0.0451702 0.0646946,-0.0678214 0.1165,-0.0678214 0.0499266,0 0.087977,0.0237669 0.114254,0.0713299 0.0262771,0.0475484 0.0394157,0.115385 0.0394157,0.203729zm-0.271682 0c0,0.0795948 0.0100117,0.139783 0.0299178,0.180461 0.0198913,0.0407956 0.0489283,0.0610686 0.0870962,0.0610686 0.0382853,0 0.0674544,-0.0201556 0.0873458,-0.0604521 0.0200235,-0.0402965 0.0299031,-0.100734 0.0299031,-0.181077 0,-0.0794626 -0.0097475,-0.139401 -0.0292718,-0.17983 -0.0196565,-0.0405461 -0.0485613,-0.060687 -0.0869788,-0.060687 -0.0392983,0 -0.0688343,0.0203905 -0.0884761,0.0613182 -0.0196418,0.0410452 -0.0295361,0.100734 -0.0295361,0.179198zm0.547372 0.268687l-0.14266 -0.487933 -0.00287727 0c0.00237815,0.0513065 0.00362595,0.0837198 0.00362595,0.0974896l0 0.390443 -0.0344098 0 0 -0.535995 0.0531855 0 0.120258 0.40985c0.010643,0.0361567 0.0176453,0.0669406 0.0207721,0.0923516l0.00300939 0c0.00237815,-0.018027 0.0100117,-0.0485613 0.0227686,-0.091603l0.119143 -0.410599 0.0549324 0 0 0.535995 -0.0359072 0 0 -0.387566c0,-0.0151497 0.0012478,-0.0483118 0.00362595,-0.0997503l-0.00287727 0 -0.141911 0.487316 -0.0406782 0z"/>
   <path id="_157946864" class="fil1" d="M-0 0l0.500822 0 0 0.559307 -0.500822 0 0 -0.559307zm0.250411 0.45389c0.0212125,0 0.0311362,-0.0158544 0.0439078,-0.0243981 -0.00788314,-0.0118027 -0.0254697,-0.034175 -0.0439078,-0.034175 -0.0184821,0 -0.036054,0.0223723 -0.0439518,0.034175 0.0127862,0.00854374 0.0226952,0.0243981 0.0439518,0.0243981zm0.0536406 -0.19034c0,0.0249119 0.0082061,0.0482971 0.00202583,0.0653112 -0.00892542,0.0243981 -0.0361567,0.0273781 -0.0361567,0.037155 0,0.0234292 0.026145,0.0439371 0.0439078,0.0439371 0.0313124,0 0.0341896,-0.0355842 0.0341896,-0.0683352 0.0111127,-0.016603 0.0536846,-0.046374 0.0536846,-0.0585731 0,-0.0162948 -0.0170875,-0.0585584 -0.0292865,-0.0585584 -0.0132854,0 -0.0285232,0.0297563 -0.0683646,0.0390634zm-0.107325 0c0,0.0249119 -0.0082061,0.0482971 -0.00202583,0.0653112 0.00892542,0.0243981 0.0361567,0.0273781 0.0361567,0.037155 0,0.0234292 -0.026145,0.0439371 -0.0439078,0.0439371 -0.0313124,0 -0.034175,-0.0355842 -0.034175,-0.0683352 -0.0111274,-0.016603 -0.0536993,-0.046374 -0.0536993,-0.0585731 0,-0.0162948 0.0170875,-0.0585584 0.0293012,-0.0585584 0.0132707,0 0.0285232,0.0297563 0.0683499,0.0390634zm0.0536846 0.078068c0.0126101,0 0.0169113,-0.00202583 0.0243541,-0.00369935 0.0152965,-0.00353787 0.0148561,-0.0142249 0.0128303,-0.0284938 -0.00264239,-0.0185261 -0.00528479,-0.0370522 -0.00794186,-0.0556371 0,-0.0016148 0,-0.00324427 0,-0.00490311 0,-0.0295214 0.0280828,-0.0338226 0.0561215,-0.0371109 0.028024,-0.00328831 0.0561509,-0.00562243 0.0561509,-0.031239 0,-0.0016148 0,-0.00322959 0,-0.00484439 0,-0.0153993 -0.0351292,-0.053714 -0.0536846,-0.053714 -0.0371843,0 -0.0705079,0.0488402 -0.0878302,0.0488402 -0.0173517,0 -0.0506752,-0.0488402 -0.0878596,-0.0488402 -0.0185702,0 -0.0536993,0.0383147 -0.0536993,0.053714 0,0.0016148 0,0.00322959 0,0.00484439 0,0.0256165 0.0280828,0.0279506 0.0561215,0.031239 0.028024,0.00328831 0.0561509,0.00758954 0.0561509,0.0371109 0,0.00165884 0,0.00328831 0,0.00490311 -0.00264239,0.0185848 -0.00528479,0.0371109 -0.00794186,0.0556371 -0.00201115,0.0142689 -0.00246623,0.0249853 0.0128303,0.0284938 0.00744274,0.00170288 0.011744,0.00369935 0.0243981,0.00369935zm-0.224266 -0.315061c0.0250293,0 0.0500587,0 0.075088,0 0.0250293,0 0.0501027,0 0.0751761,0 0.00731062,0.00829418 0.0169554,0.0208602 0.0237669,0.0378596 -0.001835,-0.0137698 -0.00399295,-0.0263212 -0.00663534,-0.0378596 0.0208602,0 0.0417498,0 0.06261,0 0.0208602,0 0.0417645,0 0.0626688,0 -0.0069583,0.0113917 -0.0131092,0.023899 -0.0182178,0.0378596 0.0148414,-0.0129624 0.0290663,-0.0266735 0.0455226,-0.0378596 0.0214034,0 0.0428361,0 0.0642395,0 0.0213887,0 0.0428802,0 0.0643129,0 0,0.0248091 0,0.0495596 0,0.07431 -0.0195977,-0.00566647 -0.0472695,-0.00510863 -0.0705519,0.0109806 0.0255578,-0.00515267 0.0440839,-0.00531415 0.0705519,0.00115972 0,0.0215208 0,0.0430857 0,0.0645478 0,0.0214621 0,0.0429682 0,0.064445 -0.0147093,-0.00344979 -0.0277598,-0.00587198 -0.0468291,-0.00744274 0.0208602,0.0135056 0.0354815,0.0242953 0.0468291,0.0345713 0,0.0260129 0,0.0520258 0,0.0780093 0,0.0259542 0,0.051923 0,0.0778919 -0.0260569,-0.01468 -0.0495155,-0.0213006 -0.0680416,-0.023532 0.0189665,0.0100705 0.0480328,0.0270258 0.0680416,0.0437316 0,0.0292131 0,0.0583675 0,0.0875219 -0.0362448,0 -0.072475,0 -0.10872,0 -0.0126982,-0.0286993 -0.0326482,-0.0520405 -0.0456106,-0.0645918 0.00546095,0.0127569 0.0120082,0.0377128 0.0174398,0.0645918 -0.0300499,0 -0.0600557,0 -0.0900616,0 -0.0300058,0 -0.0600117,0 -0.0900175,0 0.00565179,-0.0208015 0.0125073,-0.0403405 0.0181591,-0.0534057 -0.0110247,0.0106283 -0.026101,0.0318996 -0.0372724,0.0534057 -0.0187463,0 -0.0375367,0 -0.0562536,0 -0.0187023,0 -0.0374926,0 -0.0561949,0 0,-0.0260716 0,-0.0521873 0,-0.0783029 0.0201409,-0.0245009 0.044906,-0.0457134 0.0679976,-0.0529506 -0.019906,0.000249559 -0.0443628,0.00465355 -0.0679976,0.019084 0,-0.0242513 0,-0.0485466 0,-0.0727833 0,-0.0242513 0,-0.0485613 0,-0.0728567 0.0149882,-0.0135056 0.0336465,-0.0267763 0.0599676,-0.0437756 -0.0235907,0.00206987 -0.041926,0.00657662 -0.0599676,0.0148708 0,-0.0230329 0,-0.046051 0,-0.0690839 0,-0.0230329 0,-0.0460657 0,-0.0691573 0.0175426,-0.0144744 0.0478567,-0.0122431 0.0689371,-0.0111861 -0.0252055,-0.0174545 -0.0492953,-0.0153846 -0.0689371,-0.00814738 0,-0.020596 0,-0.0412507 0,-0.0619054z"/>
  </g>
 </g>
</svg>
