<svg xmlns="http://www.w3.org/2000/svg" width="1440" height="900"><path d="M690,484L782,480L760,390Z" fill="#cfcfcf" stroke="#cfcfcf" stroke-width="1.51"/><path d="M760,390L653,373L690,484Z" fill="#cecece" stroke="#cecece" stroke-width="1.51"/><path d="M782,480L853,411L760,390Z" fill="#c7c7c7" stroke="#c7c7c7" stroke-width="1.51"/><path d="M782,480L863,499L853,411Z" fill="#c1c1c1" stroke="#c1c1c1" stroke-width="1.51"/><path d="M744,624L863,499L782,480Z" fill="#b9b9b9" stroke="#b9b9b9" stroke-width="1.51"/><path d="M653,373L587,379L690,484Z" fill="#cbcbcb" stroke="#cbcbcb" stroke-width="1.51"/><path d="M760,390L747,283L653,373Z" fill="#cacaca" stroke="#cacaca" stroke-width="1.51"/><path d="M653,373L647,283L587,379Z" fill="#c5c5c5" stroke="#c5c5c5" stroke-width="1.51"/><path d="M870,308L747,283L760,390Z" fill="#c0c0c0" stroke="#c0c0c0" stroke-width="1.51"/><path d="M690,484L744,624L782,480Z" fill="#c1c1c1" stroke="#c1c1c1" stroke-width="1.51"/><path d="M673,621L744,624L690,484Z" fill="#bababa" stroke="#bababa" stroke-width="1.51"/><path d="M747,283L647,283L653,373Z" fill="#c6c6c6" stroke="#c6c6c6" stroke-width="1.51"/><path d="M583,592L673,621L690,484Z" fill="#b9b9b9" stroke="#b9b9b9" stroke-width="1.51"/><path d="M853,411L870,308L760,390Z" fill="#bfbfbf" stroke="#bfbfbf" stroke-width="1.51"/><path d="M973,398L870,308L853,411Z" fill="#b6b6b6" stroke="#b6b6b6" stroke-width="1.51"/><path d="M587,379L540,503L690,484Z" fill="#cbcbcb" stroke="#cbcbcb" stroke-width="1.51"/><path d="M540,503L583,592L690,484Z" fill="#bebebe" stroke="#bebebe" stroke-width="1.51"/><path d="M863,499L951,495L853,411Z" fill="#bababa" stroke="#bababa" stroke-width="1.51"/><path d="M886,625L951,495L863,499Z" fill="#ababab" stroke="#ababab" stroke-width="1.51"/><path d="M744,624L886,625L863,499Z" fill="#acacac" stroke="#acacac" stroke-width="1.51"/><path d="M747,283L680,190L647,283Z" fill="#c2c2c2" stroke="#c2c2c2" stroke-width="1.51"/><path d="M870,308L749,203L747,283Z" fill="#bcbcbc" stroke="#bcbcbc" stroke-width="1.51"/><path d="M951,495L973,398L853,411Z" fill="#b8b8b8" stroke="#b8b8b8" stroke-width="1.51"/><path d="M587,379L491,474L540,503Z" fill="#c8c8c8" stroke="#c8c8c8" stroke-width="1.51"/><path d="M647,283L547,287L587,379Z" fill="#c1c1c1" stroke="#c1c1c1" stroke-width="1.51"/><path d="M545,210L547,287L647,283Z" fill="#bdbdbd" stroke="#bdbdbd" stroke-width="1.51"/><path d="M540,503L477,583L583,592Z" fill="#b5b5b5" stroke="#b5b5b5" stroke-width="1.51"/><path d="M446,421L491,474L587,379Z" fill="#c5c5c5" stroke="#c5c5c5" stroke-width="1.51"/><path d="M744,624L791,688L886,625Z" fill="#a4a4a4" stroke="#a4a4a4" stroke-width="1.51"/><path d="M644,724L791,688L744,624Z" fill="#a7a7a7" stroke="#a7a7a7" stroke-width="1.51"/><path d="M644,724L744,624L673,621Z" fill="#ababab" stroke="#ababab" stroke-width="1.51"/><path d="M749,203L680,190L747,283Z" fill="#c1c1c1" stroke="#c1c1c1" stroke-width="1.51"/><path d="M583,592L591,682L673,621Z" fill="#acacac" stroke="#acacac" stroke-width="1.51"/><path d="M477,583L591,682L583,592Z" fill="#ababab" stroke="#ababab" stroke-width="1.51"/><path d="M886,625L964,607L951,495Z" fill="#a1a1a1" stroke="#a1a1a1" stroke-width="1.51"/><path d="M951,495L1052,419L973,398Z" fill="#b0b0b0" stroke="#b0b0b0" stroke-width="1.51"/><path d="M946,711L964,607L886,625Z" fill="#959595" stroke="#959595" stroke-width="1.51"/><path d="M870,308L860,172L749,203Z" fill="#b4b4b4" stroke="#b4b4b4" stroke-width="1.51"/><path d="M973,398L969,282L870,308Z" fill="#aeaeae" stroke="#aeaeae" stroke-width="1.51"/><path d="M547,287L446,421L587,379Z" fill="#c2c2c2" stroke="#c2c2c2" stroke-width="1.51"/><path d="M491,474L477,583L540,503Z" fill="#bababa" stroke="#bababa" stroke-width="1.51"/><path d="M365,497L477,583L491,474Z" fill="#b8b8b8" stroke="#b8b8b8" stroke-width="1.51"/><path d="M591,682L644,724L673,621Z" fill="#a5a5a5" stroke="#a5a5a5" stroke-width="1.51"/><path d="M791,688L852,718L886,625Z" fill="#9a9a9a" stroke="#9a9a9a" stroke-width="1.51"/><path d="M791,789L852,718L791,688Z" fill="#959595" stroke="#959595" stroke-width="1.51"/><path d="M969,282L860,172L870,308Z" fill="#adadad" stroke="#adadad" stroke-width="1.51"/><path d="M749,203L661,99L680,190Z" fill="#bcbcbc" stroke="#bcbcbc" stroke-width="1.51"/><path d="M680,190L545,210L647,283Z" fill="#bcbcbc" stroke="#bcbcbc" stroke-width="1.51"/><path d="M547,287L446,294L446,421Z" fill="#bdbdbd" stroke="#bdbdbd" stroke-width="1.51"/><path d="M1084,474L1052,419L951,495Z" fill="#aaaaaa" stroke="#aaaaaa" stroke-width="1.51"/><path d="M973,398L1060,323L969,282Z" fill="#a8a8a8" stroke="#a8a8a8" stroke-width="1.51"/><path d="M545,210L446,294L547,287Z" fill="#b9b9b9" stroke="#b9b9b9" stroke-width="1.51"/><path d="M964,607L1084,474L951,495Z" fill="#a2a2a2" stroke="#a2a2a2" stroke-width="1.51"/><path d="M852,718L946,711L886,625Z" fill="#939393" stroke="#939393" stroke-width="1.51"/><path d="M969,282L962,183L860,172Z" fill="#a7a7a7" stroke="#a7a7a7" stroke-width="1.51"/><path d="M1094,196L962,183L969,282Z" fill="#9e9e9e" stroke="#9e9e9e" stroke-width="1.51"/><path d="M1052,419L1060,323L973,398Z" fill="#a7a7a7" stroke="#a7a7a7" stroke-width="1.51"/><path d="M852,718L887,803L946,711Z" fill="#898989" stroke="#898989" stroke-width="1.51"/><path d="M644,724L791,789L791,688Z" fill="#9c9c9c" stroke="#9c9c9c" stroke-width="1.51"/><path d="M1052,419L1180,426L1060,323Z" fill="#a0a0a0" stroke="#a0a0a0" stroke-width="1.51"/><path d="M1067,627L1084,474L964,607Z" fill="#969696" stroke="#969696" stroke-width="1.51"/><path d="M680,190L661,99L545,210Z" fill="#b8b8b8" stroke="#b8b8b8" stroke-width="1.51"/><path d="M545,210L446,187L446,294Z" fill="#b6b6b6" stroke="#b6b6b6" stroke-width="1.51"/><path d="M779,74L661,99L749,203Z" fill="#b9b9b9" stroke="#b9b9b9" stroke-width="1.51"/><path d="M779,74L749,203L860,172Z" fill="#b2b2b2" stroke="#b2b2b2" stroke-width="1.51"/><path d="M477,583L483,710L591,682Z" fill="#a2a2a2" stroke="#a2a2a2" stroke-width="1.51"/><path d="M591,682L577,829L644,724Z" fill="#979797" stroke="#979797" stroke-width="1.51"/><path d="M644,724L657,806L791,789Z" fill="#979797" stroke="#979797" stroke-width="1.51"/><path d="M366,607L483,710L477,583Z" fill="#a3a3a3" stroke="#a3a3a3" stroke-width="1.51"/><path d="M577,829L657,806L644,724Z" fill="#919191" stroke="#919191" stroke-width="1.51"/><path d="M955,87L859,93L860,172Z" fill="#a4a4a4" stroke="#a4a4a4" stroke-width="1.51"/><path d="M859,93L779,74L860,172Z" fill="#ababab" stroke="#ababab" stroke-width="1.51"/><path d="M446,421L365,497L491,474Z" fill="#c1c1c1" stroke="#c1c1c1" stroke-width="1.51"/><path d="M348,405L365,497L446,421Z" fill="#c1c1c1" stroke="#c1c1c1" stroke-width="1.51"/><path d="M946,711L1067,627L964,607Z" fill="#8e8e8e" stroke="#8e8e8e" stroke-width="1.51"/><path d="M446,294L348,405L446,421Z" fill="#bdbdbd" stroke="#bdbdbd" stroke-width="1.51"/><path d="M475,93L446,187L545,210Z" fill="#b1b1b1" stroke="#b1b1b1" stroke-width="1.51"/><path d="M359,295L348,405L446,294Z" fill="#b8b8b8" stroke="#b8b8b8" stroke-width="1.51"/><path d="M791,789L887,803L852,718Z" fill="#8a8a8a" stroke="#8a8a8a" stroke-width="1.51"/><path d="M946,711L1089,706L1067,627Z" fill="#838383" stroke="#838383" stroke-width="1.51"/><path d="M956,831L887,803L871,931Z" fill="#747474" stroke="#747474" stroke-width="1.51"/><path d="M661,99L579,82L545,210Z" fill="#b4b4b4" stroke="#b4b4b4" stroke-width="1.51"/><path d="M642,19L579,82L661,99Z" fill="#b1b1b1" stroke="#b1b1b1" stroke-width="1.51"/><path d="M281,617L366,607L365,497Z" fill="#a8a8a8" stroke="#a8a8a8" stroke-width="1.51"/><path d="M365,497L366,607L477,583Z" fill="#aeaeae" stroke="#aeaeae" stroke-width="1.51"/><path d="M366,218L359,295L446,294Z" fill="#b4b4b4" stroke="#b4b4b4" stroke-width="1.51"/><path d="M492,783L591,682L483,710Z" fill="#979797" stroke="#979797" stroke-width="1.51"/><path d="M492,783L577,829L591,682Z" fill="#919191" stroke="#919191" stroke-width="1.51"/><path d="M784,908L887,803L791,789Z" fill="#818181" stroke="#818181" stroke-width="1.51"/><path d="M353,787L492,783L483,710Z" fill="#8d8d8d" stroke="#8d8d8d" stroke-width="1.51"/><path d="M962,183L955,87L860,172Z" fill="#a3a3a3" stroke="#a3a3a3" stroke-width="1.51"/><path d="M859,93L795,-24L779,74Z" fill="#a9a9a9" stroke="#a9a9a9" stroke-width="1.51"/><path d="M1066,83L955,87L962,183Z" fill="#989898" stroke="#989898" stroke-width="1.51"/><path d="M446,187L366,218L446,294Z" fill="#b3b3b3" stroke="#b3b3b3" stroke-width="1.51"/><path d="M277,374L280,486L348,405Z" fill="#bbbbbb" stroke="#bbbbbb" stroke-width="1.51"/><path d="M382,117L366,218L446,187Z" fill="#adadad" stroke="#adadad" stroke-width="1.51"/><path d="M779,74L642,19L661,99Z" fill="#b4b4b4" stroke="#b4b4b4" stroke-width="1.51"/><path d="M579,82L475,93L545,210Z" fill="#b1b1b1" stroke="#b1b1b1" stroke-width="1.51"/><path d="M795,-24L642,19L779,74Z" fill="#b0b0b0" stroke="#b0b0b0" stroke-width="1.51"/><path d="M552,-23L475,93L579,82Z" fill="#acacac" stroke="#acacac" stroke-width="1.51"/><path d="M1189,310L1094,196L1060,323Z" fill="#969696" stroke="#969696" stroke-width="1.51"/><path d="M1060,323L1094,196L969,282Z" fill="#9e9e9e" stroke="#9e9e9e" stroke-width="1.51"/><path d="M1097,799L1089,706L946,711Z" fill="#787878" stroke="#787878" stroke-width="1.51"/><path d="M1203,512L1180,426L1084,474Z" fill="#9a9a9a" stroke="#9a9a9a" stroke-width="1.51"/><path d="M1084,474L1180,426L1052,419Z" fill="#a2a2a2" stroke="#a2a2a2" stroke-width="1.51"/><path d="M366,607L358,680L483,710Z" fill="#9c9c9c" stroke="#9c9c9c" stroke-width="1.51"/><path d="M281,617L358,680L366,607Z" fill="#9e9e9e" stroke="#9e9e9e" stroke-width="1.51"/><path d="M1203,512L1084,474L1183,599Z" fill="#909090" stroke="#909090" stroke-width="1.51"/><path d="M784,908L791,789L657,806Z" fill="#8a8a8a" stroke="#8a8a8a" stroke-width="1.51"/><path d="M887,803L956,831L946,711Z" fill="#7e7e7e" stroke="#7e7e7e" stroke-width="1.51"/><path d="M348,405L280,486L365,497Z" fill="#bcbcbc" stroke="#bcbcbc" stroke-width="1.51"/><path d="M277,374L348,405L359,295Z" fill="#b8b8b8" stroke="#b8b8b8" stroke-width="1.51"/><path d="M286,295L277,374L359,295Z" fill="#b4b4b4" stroke="#b4b4b4" stroke-width="1.51"/><path d="M645,911L784,908L657,806Z" fill="#858585" stroke="#858585" stroke-width="1.51"/><path d="M890,-31L795,-24L859,93Z" fill="#a3a3a3" stroke="#a3a3a3" stroke-width="1.51"/><path d="M281,194L286,295L366,218Z" fill="#aeaeae" stroke="#aeaeae" stroke-width="1.51"/><path d="M366,218L286,295L359,295Z" fill="#b1b1b1" stroke="#b1b1b1" stroke-width="1.51"/><path d="M1183,599L1084,474L1067,627Z" fill="#8f8f8f" stroke="#8f8f8f" stroke-width="1.51"/><path d="M1278,417L1189,310L1180,426Z" fill="#929292" stroke="#929292" stroke-width="1.51"/><path d="M1180,426L1189,310L1060,323Z" fill="#989898" stroke="#989898" stroke-width="1.51"/><path d="M1159,709L1183,599L1067,627Z" fill="#7e7e7e" stroke="#7e7e7e" stroke-width="1.51"/><path d="M577,829L645,911L657,806Z" fill="#868686" stroke="#868686" stroke-width="1.51"/><path d="M587,914L645,911L577,829Z" fill="#7f7f7f" stroke="#7f7f7f" stroke-width="1.51"/><path d="M587,914L577,829L493,896Z" fill="#7d7d7d" stroke="#7d7d7d" stroke-width="1.51"/><path d="M475,93L382,117L446,187Z" fill="#acacac" stroke="#acacac" stroke-width="1.51"/><path d="M366,21L382,117L475,93Z" fill="#a7a7a7" stroke="#a7a7a7" stroke-width="1.51"/><path d="M267,708L281,617L171,611Z" fill="#979797" stroke="#979797" stroke-width="1.51"/><path d="M280,486L281,617L365,497Z" fill="#aeaeae" stroke="#aeaeae" stroke-width="1.51"/><path d="M955,87L890,-31L859,93Z" fill="#9f9f9f" stroke="#9f9f9f" stroke-width="1.51"/><path d="M1094,196L1066,83L962,183Z" fill="#969696" stroke="#969696" stroke-width="1.51"/><path d="M1195,86L1066,83L1094,196Z" fill="#8b8b8b" stroke="#8b8b8b" stroke-width="1.51"/><path d="M493,896L492,783L353,787Z" fill="#838383" stroke="#838383" stroke-width="1.51"/><path d="M493,896L577,829L492,783Z" fill="#838383" stroke="#838383" stroke-width="1.51"/><path d="M868,993L871,931L784,908Z" fill="#6d6d6d" stroke="#6d6d6d" stroke-width="1.51"/><path d="M975,-31L890,-31L955,87Z" fill="#979797" stroke="#979797" stroke-width="1.51"/><path d="M1293,480L1278,417L1203,512Z" fill="#8e8e8e" stroke="#8e8e8e" stroke-width="1.51"/><path d="M1089,706L1159,709L1067,627Z" fill="#7b7b7b" stroke="#7b7b7b" stroke-width="1.51"/><path d="M1097,799L1159,709L1089,706Z" fill="#717171" stroke="#717171" stroke-width="1.51"/><path d="M642,19L552,-23L579,82Z" fill="#acacac" stroke="#acacac" stroke-width="1.51"/><path d="M686,-112L552,-23L642,19Z" fill="#a9a9a9" stroke="#a9a9a9" stroke-width="1.51"/><path d="M481,-31L552,-23L564,-117Z" fill="#a4a4a4" stroke="#a4a4a4" stroke-width="1.51"/><path d="M784,908L871,931L887,803Z" fill="#777777" stroke="#777777" stroke-width="1.51"/><path d="M956,831L1097,799L946,711Z" fill="#777777" stroke="#777777" stroke-width="1.51"/><path d="M676,998L784,908L645,911Z" fill="#7a7a7a" stroke="#7a7a7a" stroke-width="1.51"/><path d="M1079,888L1097,799L956,831Z" fill="#686868" stroke="#686868" stroke-width="1.51"/><path d="M353,787L483,710L358,680Z" fill="#919191" stroke="#919191" stroke-width="1.51"/><path d="M267,708L353,787L358,680Z" fill="#8d8d8d" stroke="#8d8d8d" stroke-width="1.51"/><path d="M382,117L281,194L366,218Z" fill="#ababab" stroke="#ababab" stroke-width="1.51"/><path d="M161,386L280,486L277,374Z" fill="#b8b8b8" stroke="#b8b8b8" stroke-width="1.51"/><path d="M238,75L281,194L382,117Z" fill="#a6a6a6" stroke="#a6a6a6" stroke-width="1.51"/><path d="M1189,310L1189,196L1094,196Z" fill="#8e8e8e" stroke="#8e8e8e" stroke-width="1.51"/><path d="M1258,295L1189,196L1189,310Z" fill="#8a8a8a" stroke="#8a8a8a" stroke-width="1.51"/><path d="M1066,83L975,-31L955,87Z" fill="#939393" stroke="#939393" stroke-width="1.51"/><path d="M1073,-33L975,-31L1066,83Z" fill="#8c8c8c" stroke="#8c8c8c" stroke-width="1.51"/><path d="M281,617L267,708L358,680Z" fill="#969696" stroke="#969696" stroke-width="1.51"/><path d="M181,520L281,617L280,486Z" fill="#aaaaaa" stroke="#aaaaaa" stroke-width="1.51"/><path d="M181,520L280,486L161,386Z" fill="#b6b6b6" stroke="#b6b6b6" stroke-width="1.51"/><path d="M552,-23L481,-31L475,93Z" fill="#a8a8a8" stroke="#a8a8a8" stroke-width="1.51"/><path d="M686,-112L642,19L795,-24Z" fill="#adadad" stroke="#adadad" stroke-width="1.51"/><path d="M1203,512L1278,417L1180,426Z" fill="#959595" stroke="#959595" stroke-width="1.51"/><path d="M1265,593L1203,512L1183,599Z" fill="#828282" stroke="#828282" stroke-width="1.51"/><path d="M1278,417L1258,295L1189,310Z" fill="#8c8c8c" stroke="#8c8c8c" stroke-width="1.51"/><path d="M871,931L995,927L956,831Z" fill="#6a6a6a" stroke="#6a6a6a" stroke-width="1.51"/><path d="M1268,680L1265,593L1183,599Z" fill="#767676" stroke="#767676" stroke-width="1.51"/><path d="M1268,680L1183,599L1159,709Z" fill="#737373" stroke="#737373" stroke-width="1.51"/><path d="M1268,680L1159,709L1198,824Z" fill="#666666" stroke="#666666" stroke-width="1.51"/><path d="M577,992L645,911L587,914Z" fill="#757575" stroke="#757575" stroke-width="1.51"/><path d="M577,992L676,998L645,911Z" fill="#737373" stroke="#737373" stroke-width="1.51"/><path d="M871,931L992,1003L995,927Z" fill="#5f5f5f" stroke="#5f5f5f" stroke-width="1.51"/><path d="M775,-134L686,-112L795,-24Z" fill="#a6a6a6" stroke="#a6a6a6" stroke-width="1.51"/><path d="M845,-106L795,-24L890,-31Z" fill="#9e9e9e" stroke="#9e9e9e" stroke-width="1.51"/><path d="M161,386L277,374L162,299Z" fill="#b1b1b1" stroke="#b1b1b1" stroke-width="1.51"/><path d="M1378,176L1291,175L1258,295Z" fill="#7b7b7b" stroke="#7b7b7b" stroke-width="1.51"/><path d="M1265,593L1293,480L1203,512Z" fill="#848484" stroke="#848484" stroke-width="1.51"/><path d="M481,-31L366,21L475,93Z" fill="#a5a5a5" stroke="#a5a5a5" stroke-width="1.51"/><path d="M948,-111L845,-106L890,-31Z" fill="#969696" stroke="#969696" stroke-width="1.51"/><path d="M995,927L1079,888L956,831Z" fill="#656565" stroke="#656565" stroke-width="1.51"/><path d="M770,1019L868,993L784,908Z" fill="#6c6c6c" stroke="#6c6c6c" stroke-width="1.51"/><path d="M995,927L1058,999L1079,888Z" fill="#585858" stroke="#585858" stroke-width="1.51"/><path d="M493,896L577,992L587,914Z" fill="#747474" stroke="#747474" stroke-width="1.51"/><path d="M444,1029L577,992L493,896Z" fill="#6c6c6c" stroke="#6c6c6c" stroke-width="1.51"/><path d="M353,787L365,923L493,896Z" fill="#797979" stroke="#797979" stroke-width="1.51"/><path d="M267,708L279,790L353,787Z" fill="#868686" stroke="#868686" stroke-width="1.51"/><path d="M179,718L279,790L267,708Z" fill="#878787" stroke="#878787" stroke-width="1.51"/><path d="M676,998L770,1019L784,908Z" fill="#727272" stroke="#727272" stroke-width="1.51"/><path d="M444,1029L770,1019L676,998Z" fill="#6a6a6a" stroke="#6a6a6a" stroke-width="1.51"/><path d="M162,299L277,374L286,295Z" fill="#b1b1b1" stroke="#b1b1b1" stroke-width="1.51"/><path d="M162,299L286,295L174,220Z" fill="#acacac" stroke="#acacac" stroke-width="1.51"/><path d="M845,-106L775,-134L795,-24Z" fill="#a1a1a1" stroke="#a1a1a1" stroke-width="1.51"/><path d="M975,-31L948,-111L890,-31Z" fill="#939393" stroke="#939393" stroke-width="1.51"/><path d="M1189,196L1195,86L1094,196Z" fill="#888888" stroke="#888888" stroke-width="1.51"/><path d="M1291,175L1195,86L1189,196Z" fill="#818181" stroke="#818181" stroke-width="1.51"/><path d="M1265,593L1376,491L1293,480Z" fill="#7f7f7f" stroke="#7f7f7f" stroke-width="1.51"/><path d="M1198,824L1159,709L1097,799Z" fill="#666666" stroke="#666666" stroke-width="1.51"/><path d="M1194,-16L1073,-33L1066,83Z" fill="#848484" stroke="#848484" stroke-width="1.51"/><path d="M845,-106L948,-111L775,-134Z" fill="#999999" stroke="#999999" stroke-width="1.51"/><path d="M775,-134L564,-117L686,-112Z" fill="#a6a6a6" stroke="#a6a6a6" stroke-width="1.51"/><path d="M686,-112L564,-117L552,-23Z" fill="#a5a5a5" stroke="#a5a5a5" stroke-width="1.51"/><path d="M481,-31L371,-135L366,21Z" fill="#9e9e9e" stroke="#9e9e9e" stroke-width="1.51"/><path d="M181,520L171,611L281,617Z" fill="#a1a1a1" stroke="#a1a1a1" stroke-width="1.51"/><path d="M69,510L171,611L181,520Z" fill="#a4a4a4" stroke="#a4a4a4" stroke-width="1.51"/><path d="M174,220L286,295L281,194Z" fill="#ababab" stroke="#ababab" stroke-width="1.51"/><path d="M1073,-33L948,-111L975,-31Z" fill="#8c8c8c" stroke="#8c8c8c" stroke-width="1.51"/><path d="M1079,888L1198,824L1097,799Z" fill="#606060" stroke="#606060" stroke-width="1.51"/><path d="M238,75L174,220L281,194Z" fill="#a5a5a5" stroke="#a5a5a5" stroke-width="1.51"/><path d="M284,900L365,923L353,787Z" fill="#757575" stroke="#757575" stroke-width="1.51"/><path d="M868,993L992,1003L871,931Z" fill="#606060" stroke="#606060" stroke-width="1.51"/><path d="M1079,888L1197,886L1198,824Z" fill="#575757" stroke="#575757" stroke-width="1.51"/><path d="M770,1019L992,1003L868,993Z" fill="#5f5f5f" stroke="#5f5f5f" stroke-width="1.51"/><path d="M1258,295L1291,175L1189,196Z" fill="#838383" stroke="#838383" stroke-width="1.51"/><path d="M1194,-16L1102,-83L1073,-33Z" fill="#7f7f7f" stroke="#7f7f7f" stroke-width="1.51"/><path d="M1381,325L1258,295L1278,417Z" fill="#858585" stroke="#858585" stroke-width="1.51"/><path d="M272,-25L238,75L366,21Z" fill="#9e9e9e" stroke="#9e9e9e" stroke-width="1.51"/><path d="M366,21L238,75L382,117Z" fill="#a3a3a3" stroke="#a3a3a3" stroke-width="1.51"/><path d="M279,790L284,900L353,787Z" fill="#7b7b7b" stroke="#7b7b7b" stroke-width="1.51"/><path d="M171,611L179,718L267,708Z" fill="#909090" stroke="#909090" stroke-width="1.51"/><path d="M564,-117L453,-128L481,-31Z" fill="#a0a0a0" stroke="#a0a0a0" stroke-width="1.51"/><path d="M775,-134L453,-128L564,-117Z" fill="#a2a2a2" stroke="#a2a2a2" stroke-width="1.51"/><path d="M1195,1019L1197,886L1079,888Z" fill="#4e4e4e" stroke="#4e4e4e" stroke-width="1.51"/><path d="M1378,720L1374,626L1268,680Z" fill="#636363" stroke="#636363" stroke-width="1.51"/><path d="M178,881L284,900L279,790Z" fill="#747474" stroke="#747474" stroke-width="1.51"/><path d="M365,923L444,1029L493,896Z" fill="#6d6d6d" stroke="#6d6d6d" stroke-width="1.51"/><path d="M1195,1019L1058,999L992,1003Z" fill="#494949" stroke="#494949" stroke-width="1.51"/><path d="M992,1003L1058,999L995,927Z" fill="#555555" stroke="#555555" stroke-width="1.51"/><path d="M1073,-33L1102,-83L948,-111Z" fill="#858585" stroke="#858585" stroke-width="1.51"/><path d="M1194,-16L1066,83L1195,86Z" fill="#828282" stroke="#828282" stroke-width="1.51"/><path d="M1293,480L1376,491L1278,417Z" fill="#898989" stroke="#898989" stroke-width="1.51"/><path d="M1374,626L1376,491L1265,593Z" fill="#747474" stroke="#747474" stroke-width="1.51"/><path d="M1374,626L1265,593L1268,680Z" fill="#6e6e6e" stroke="#6e6e6e" stroke-width="1.51"/><path d="M1263,-11L1194,-16L1195,86Z" fill="#787878" stroke="#787878" stroke-width="1.51"/><path d="M358,979L444,1029L365,923Z" fill="#666666" stroke="#666666" stroke-width="1.51"/><path d="M577,992L444,1029L676,998Z" fill="#696969" stroke="#696969" stroke-width="1.51"/><path d="M1291,175L1302,120L1195,86Z" fill="#7b7b7b" stroke="#7b7b7b" stroke-width="1.51"/><path d="M1378,176L1302,120L1291,175Z" fill="#767676" stroke="#767676" stroke-width="1.51"/><path d="M284,900L358,979L365,923Z" fill="#6b6b6b" stroke="#6b6b6b" stroke-width="1.51"/><path d="M1406,381L1381,325L1278,417Z" fill="#818181" stroke="#818181" stroke-width="1.51"/><path d="M238,75L144,111L174,220Z" fill="#a1a1a1" stroke="#a1a1a1" stroke-width="1.51"/><path d="M371,-135L272,-25L366,21Z" fill="#9b9b9b" stroke="#9b9b9b" stroke-width="1.51"/><path d="M66,311L74,420L161,386Z" fill="#aeaeae" stroke="#aeaeae" stroke-width="1.51"/><path d="M161,386L74,420L181,520Z" fill="#b5b5b5" stroke="#b5b5b5" stroke-width="1.51"/><path d="M171,611L71,691L179,718Z" fill="#8e8e8e" stroke="#8e8e8e" stroke-width="1.51"/><path d="M66,311L161,386L162,299Z" fill="#acacac" stroke="#acacac" stroke-width="1.51"/><path d="M66,311L162,299L174,220Z" fill="#a8a8a8" stroke="#a8a8a8" stroke-width="1.51"/><path d="M1295,820L1268,680L1198,824Z" fill="#5c5c5c" stroke="#5c5c5c" stroke-width="1.51"/><path d="M1376,491L1406,381L1278,417Z" fill="#858585" stroke="#858585" stroke-width="1.51"/><path d="M74,420L69,510L181,520Z" fill="#aeaeae" stroke="#aeaeae" stroke-width="1.51"/><path d="M1505,416L1406,381L1376,491Z" fill="#7c7c7c" stroke="#7c7c7c" stroke-width="1.51"/><path d="M1381,325L1378,176L1258,295Z" fill="#7c7c7c" stroke="#7c7c7c" stroke-width="1.51"/><path d="M1197,886L1295,820L1198,824Z" fill="#535353" stroke="#535353" stroke-width="1.51"/><path d="M1295,932L1295,820L1197,886Z" fill="#4a4a4a" stroke="#4a4a4a" stroke-width="1.51"/><path d="M175,-11L144,111L238,75Z" fill="#9b9b9b" stroke="#9b9b9b" stroke-width="1.51"/><path d="M74,420L-28,424L69,510Z" fill="#b0b0b0" stroke="#b0b0b0" stroke-width="1.51"/><path d="M50,180L66,311L174,220Z" fill="#a4a4a4" stroke="#a4a4a4" stroke-width="1.51"/><path d="M453,-128L371,-135L481,-31Z" fill="#9c9c9c" stroke="#9c9c9c" stroke-width="1.51"/><path d="M272,-25L175,-11L238,75Z" fill="#9a9a9a" stroke="#9a9a9a" stroke-width="1.51"/><path d="M775,-134L371,-135L453,-128Z" fill="#9e9e9e" stroke="#9e9e9e" stroke-width="1.51"/><path d="M284,900L248,1011L358,979Z" fill="#656565" stroke="#656565" stroke-width="1.51"/><path d="M179,718L147,798L279,790Z" fill="#818181" stroke="#818181" stroke-width="1.51"/><path d="M71,691L147,798L179,718Z" fill="#838383" stroke="#838383" stroke-width="1.51"/><path d="M1467,207L1378,176L1381,325Z" fill="#717171" stroke="#717171" stroke-width="1.51"/><path d="M1302,120L1263,-11L1195,86Z" fill="#787878" stroke="#787878" stroke-width="1.51"/><path d="M1194,-16L1162,-126L1102,-83Z" fill="#797979" stroke="#797979" stroke-width="1.51"/><path d="M1376,0L1263,-11L1302,120Z" fill="#6f6f6f" stroke="#6f6f6f" stroke-width="1.51"/><path d="M1374,626L1495,518L1376,491Z" fill="#707070" stroke="#707070" stroke-width="1.51"/><path d="M1295,820L1378,720L1268,680Z" fill="#5b5b5b" stroke="#5b5b5b" stroke-width="1.51"/><path d="M69,510L51,617L171,611Z" fill="#9c9c9c" stroke="#9c9c9c" stroke-width="1.51"/><path d="M-14,623L51,617L-47,519Z" fill="#969696" stroke="#969696" stroke-width="1.51"/><path d="M147,798L178,881L279,790Z" fill="#777777" stroke="#777777" stroke-width="1.51"/><path d="M358,979L248,1011L444,1029Z" fill="#606060" stroke="#606060" stroke-width="1.51"/><path d="M58,887L178,881L147,798Z" fill="#6f6f6f" stroke="#6f6f6f" stroke-width="1.51"/><path d="M51,617L71,691L171,611Z" fill="#929292" stroke="#929292" stroke-width="1.51"/><path d="M1288,-104L1162,-126L1194,-16Z" fill="#727272" stroke="#727272" stroke-width="1.51"/><path d="M1102,-83L1162,-126L948,-111Z" fill="#808080" stroke="#808080" stroke-width="1.51"/><path d="M948,-111L1162,-126L775,-134Z" fill="#8c8c8c" stroke="#8c8c8c" stroke-width="1.51"/><path d="M371,-135L290,-118L272,-25Z" fill="#979797" stroke="#979797" stroke-width="1.51"/><path d="M144,111L50,180L174,220Z" fill="#a0a0a0" stroke="#a0a0a0" stroke-width="1.51"/><path d="M135,-84L175,-11L272,-25Z" fill="#959595" stroke="#959595" stroke-width="1.51"/><path d="M50,86L50,180L144,111Z" fill="#9b9b9b" stroke="#9b9b9b" stroke-width="1.51"/><path d="M66,311L-28,424L74,420Z" fill="#acacac" stroke="#acacac" stroke-width="1.51"/><path d="M1378,176L1395,122L1302,120Z" fill="#717171" stroke="#717171" stroke-width="1.51"/><path d="M1263,-11L1288,-104L1194,-16Z" fill="#717171" stroke="#717171" stroke-width="1.51"/><path d="M1467,207L1395,122L1378,176Z" fill="#6d6d6d" stroke="#6d6d6d" stroke-width="1.51"/><path d="M1295,820L1406,826L1378,720Z" fill="#4e4e4e" stroke="#4e4e4e" stroke-width="1.51"/><path d="M1058,999L1195,1019L1079,888Z" fill="#4c4c4c" stroke="#4c4c4c" stroke-width="1.51"/><path d="M770,1019L1195,1019L992,1003Z" fill="#525252" stroke="#525252" stroke-width="1.51"/><path d="M444,1029L1195,1019L770,1019Z" fill="#656565" stroke="#656565" stroke-width="1.51"/><path d="M1267,1011L1295,932L1197,886Z" fill="#414141" stroke="#414141" stroke-width="1.51"/><path d="M165,992L248,1011L178,881Z" fill="#606060" stroke="#606060" stroke-width="1.51"/><path d="M178,881L248,1011L284,900Z" fill="#676767" stroke="#676767" stroke-width="1.51"/><path d="M-59,291L-28,424L66,311Z" fill="#a7a7a7" stroke="#a7a7a7" stroke-width="1.51"/><path d="M51,617L-14,623L71,691Z" fill="#8e8e8e" stroke="#8e8e8e" stroke-width="1.51"/><path d="M1406,381L1488,317L1381,325Z" fill="#777777" stroke="#777777" stroke-width="1.51"/><path d="M1504,619L1495,518L1374,626Z" fill="#646464" stroke="#646464" stroke-width="1.51"/><path d="M1464,697L1374,626L1378,720Z" fill="#5b5b5b" stroke="#5b5b5b" stroke-width="1.51"/><path d="M1505,416L1488,317L1406,381Z" fill="#747474" stroke="#747474" stroke-width="1.51"/><path d="M-47,519L51,617L69,510Z" fill="#9e9e9e" stroke="#9e9e9e" stroke-width="1.51"/><path d="M71,691L34,780L147,798Z" fill="#7d7d7d" stroke="#7d7d7d" stroke-width="1.51"/><path d="M1488,317L1467,207L1381,325Z" fill="#717171" stroke="#717171" stroke-width="1.51"/><path d="M1495,518L1505,416L1376,491Z" fill="#767676" stroke="#767676" stroke-width="1.51"/><path d="M1474,811L1464,697L1378,720Z" fill="#4d4d4d" stroke="#4d4d4d" stroke-width="1.51"/><path d="M50,180L-15,193L66,311Z" fill="#a0a0a0" stroke="#a0a0a0" stroke-width="1.51"/><path d="M88,19L50,86L144,111Z" fill="#989898" stroke="#989898" stroke-width="1.51"/><path d="M88,19L144,111L175,-11Z" fill="#979797" stroke="#979797" stroke-width="1.51"/><path d="M1358,910L1406,826L1295,820Z" fill="#454545" stroke="#454545" stroke-width="1.51"/><path d="M135,-84L88,19L175,-11Z" fill="#939393" stroke="#939393" stroke-width="1.51"/><path d="M-66,683L34,780L71,691Z" fill="#808080" stroke="#808080" stroke-width="1.51"/><path d="M1295,932L1358,910L1295,820Z" fill="#444444" stroke="#444444" stroke-width="1.51"/><path d="M1195,1019L1267,1011L1197,886Z" fill="#404040" stroke="#404040" stroke-width="1.51"/><path d="M1404,1001L1358,910L1295,932Z" fill="#373737" stroke="#373737" stroke-width="1.51"/><path d="M1376,0L1302,120L1395,122Z" fill="#6d6d6d" stroke="#6d6d6d" stroke-width="1.51"/><path d="M1376,0L1288,-104L1263,-11Z" fill="#6a6a6a" stroke="#6a6a6a" stroke-width="1.51"/><path d="M1468,98L1376,0L1395,122Z" fill="#666666" stroke="#666666" stroke-width="1.51"/><path d="M-28,804L58,887L34,780Z" fill="#6f6f6f" stroke="#6f6f6f" stroke-width="1.51"/><path d="M-28,424L-47,519L69,510Z" fill="#a8a8a8" stroke="#a8a8a8" stroke-width="1.51"/><path d="M1602,605L1504,619L1585,719Z" fill="#4f4f4f" stroke="#4f4f4f" stroke-width="1.51"/><path d="M1464,697L1504,619L1374,626Z" fill="#5b5b5b" stroke="#5b5b5b" stroke-width="1.51"/><path d="M1561,524L1562,391L1505,416Z" fill="#717171" stroke="#717171" stroke-width="1.51"/><path d="M-28,424L-114,506L-47,519Z" fill="#a6a6a6" stroke="#a6a6a6" stroke-width="1.51"/><path d="M50,86L-15,193L50,180Z" fill="#9a9a9a" stroke="#9a9a9a" stroke-width="1.51"/><path d="M-31,81L-15,193L50,86Z" fill="#979797" stroke="#979797" stroke-width="1.51"/><path d="M58,887L165,992L178,881Z" fill="#646464" stroke="#646464" stroke-width="1.51"/><path d="M-54,20L-31,81L50,86Z" fill="#939393" stroke="#939393" stroke-width="1.51"/><path d="M290,-118L135,-84L272,-25Z" fill="#949494" stroke="#949494" stroke-width="1.51"/><path d="M-15,193L-59,291L66,311Z" fill="#a1a1a1" stroke="#a1a1a1" stroke-width="1.51"/><path d="M34,780L58,887L147,798Z" fill="#727272" stroke="#727272" stroke-width="1.51"/><path d="M-66,683L71,691L-14,623Z" fill="#888888" stroke="#888888" stroke-width="1.51"/><path d="M1467,207L1468,98L1395,122Z" fill="#686868" stroke="#686868" stroke-width="1.51"/><path d="M1376,0L1394,-127L1288,-104Z" fill="#636363" stroke="#636363" stroke-width="1.51"/><path d="M1608,208L1468,98L1467,207Z" fill="#626262" stroke="#626262" stroke-width="1.51"/><path d="M1608,208L1467,207L1488,317Z" fill="#666666" stroke="#666666" stroke-width="1.51"/><path d="M1406,826L1474,811L1378,720Z" fill="#494949" stroke="#494949" stroke-width="1.51"/><path d="M1493,890L1474,811L1406,826Z" fill="#3c3c3c" stroke="#3c3c3c" stroke-width="1.51"/><path d="M1493,890L1406,826L1358,910Z" fill="#3b3b3b" stroke="#3b3b3b" stroke-width="1.51"/><path d="M1505,416L1562,391L1488,317Z" fill="#6f6f6f" stroke="#6f6f6f" stroke-width="1.51"/><path d="M1561,524L1505,416L1495,518Z" fill="#6e6e6e" stroke="#6e6e6e" stroke-width="1.51"/><path d="M1561,524L1495,518L1504,619Z" fill="#636363" stroke="#636363" stroke-width="1.51"/><path d="M1602,605L1561,524L1504,619Z" fill="#5a5a5a" stroke="#5a5a5a" stroke-width="1.51"/><path d="M-158,612L-66,683L-14,623Z" fill="#898989" stroke="#898989" stroke-width="1.51"/><path d="M-158,612L-14,623L-47,519Z" fill="#939393" stroke="#939393" stroke-width="1.51"/><path d="M58,887L43,1015L165,992Z" fill="#5b5b5b" stroke="#5b5b5b" stroke-width="1.51"/><path d="M-66,683L-28,804L34,780Z" fill="#797979" stroke="#797979" stroke-width="1.51"/><path d="M-54,20L50,86L88,19Z" fill="#939393" stroke="#939393" stroke-width="1.51"/><path d="M-169,204L-169,273L-59,291Z" fill="#9a9a9a" stroke="#9a9a9a" stroke-width="1.51"/><path d="M-151,420L-28,424L-59,291Z" fill="#a5a5a5" stroke="#a5a5a5" stroke-width="1.51"/><path d="M-151,420L-114,506L-28,424Z" fill="#aaaaaa" stroke="#aaaaaa" stroke-width="1.51"/><path d="M371,-135L88,-127L290,-118Z" fill="#919191" stroke="#919191" stroke-width="1.51"/><path d="M290,-118L88,-127L135,-84Z" fill="#8f8f8f" stroke="#8f8f8f" stroke-width="1.51"/><path d="M135,-84L88,-127L88,19Z" fill="#8f8f8f" stroke="#8f8f8f" stroke-width="1.51"/><path d="M1468,98L1479,6L1376,0Z" fill="#616161" stroke="#616161" stroke-width="1.51"/><path d="M1599,80L1479,6L1468,98Z" fill="#5b5b5b" stroke="#5b5b5b" stroke-width="1.51"/><path d="M1267,1011L1404,1001L1295,932Z" fill="#353535" stroke="#353535" stroke-width="1.51"/><path d="M1452,1010L1404,1001L1267,1011Z" fill="#2d2d2d" stroke="#2d2d2d" stroke-width="1.51"/><path d="M1475,-80L1394,-127L1376,0Z" fill="#5d5d5d" stroke="#5d5d5d" stroke-width="1.51"/><path d="M1288,-104L1394,-127L1162,-126Z" fill="#686868" stroke="#686868" stroke-width="1.51"/><path d="M1162,-126L1394,-127L775,-134Z" fill="#7a7a7a" stroke="#7a7a7a" stroke-width="1.51"/><path d="M-28,804L-16,892L58,887Z" fill="#686868" stroke="#686868" stroke-width="1.51"/><path d="M-165,892L-16,892L-28,804Z" fill="#656565" stroke="#656565" stroke-width="1.51"/><path d="M-146,792L-28,804L-66,683Z" fill="#757575" stroke="#757575" stroke-width="1.51"/><path d="M1602,605L1602,310L1562,391Z" fill="#6b6b6b" stroke="#6b6b6b" stroke-width="1.51"/><path d="M1562,391L1602,310L1488,317Z" fill="#696969" stroke="#696969" stroke-width="1.51"/><path d="M1585,719L1504,619L1464,697Z" fill="#4f4f4f" stroke="#4f4f4f" stroke-width="1.51"/><path d="M1561,524L1602,605L1562,391Z" fill="#646464" stroke="#646464" stroke-width="1.51"/><path d="M1404,1001L1493,890L1358,910Z" fill="#323232" stroke="#323232" stroke-width="1.51"/><path d="M1585,719L1464,697L1474,811Z" fill="#464646" stroke="#464646" stroke-width="1.51"/><path d="M-169,273L-151,420L-59,291Z" fill="#a0a0a0" stroke="#a0a0a0" stroke-width="1.51"/><path d="M-158,612L-131,694L-66,683Z" fill="#848484" stroke="#848484" stroke-width="1.51"/><path d="M1593,823L1585,719L1474,811Z" fill="#3c3c3c" stroke="#3c3c3c" stroke-width="1.51"/><path d="M-169,204L-59,291L-15,193Z" fill="#9b9b9b" stroke="#9b9b9b" stroke-width="1.51"/><path d="M-43,-114L-54,20L88,19Z" fill="#8c8c8c" stroke="#8c8c8c" stroke-width="1.51"/><path d="M-16,892L43,1015L58,887Z" fill="#5e5e5e" stroke="#5e5e5e" stroke-width="1.51"/><path d="M165,992L43,1015L248,1011Z" fill="#575757" stroke="#575757" stroke-width="1.51"/><path d="M248,1011L43,1015L444,1029Z" fill="#5a5a5a" stroke="#5a5a5a" stroke-width="1.51"/><path d="M-158,612L-47,519L-114,506Z" fill="#999999" stroke="#999999" stroke-width="1.51"/><path d="M-16,892L-64,1019L43,1015Z" fill="#555555" stroke="#555555" stroke-width="1.51"/><path d="M1602,310L1608,208L1488,317Z" fill="#646464" stroke="#646464" stroke-width="1.51"/><path d="M1602,605L1608,208L1602,310Z" fill="#666666" stroke="#666666" stroke-width="1.51"/><path d="M1582,-19L1475,-80L1479,6Z" fill="#555555" stroke="#555555" stroke-width="1.51"/><path d="M1479,6L1475,-80L1376,0Z" fill="#5c5c5c" stroke="#5c5c5c" stroke-width="1.51"/><path d="M-151,420L-158,612L-114,506Z" fill="#9d9d9d" stroke="#9d9d9d" stroke-width="1.51"/><path d="M1404,1001L1452,1010L1493,890Z" fill="#2b2b2b" stroke="#2b2b2b" stroke-width="1.51"/><path d="M1493,890L1593,823L1474,811Z" fill="#363636" stroke="#363636" stroke-width="1.51"/><path d="M1195,1019L1452,1010L1267,1011Z" fill="#323232" stroke="#323232" stroke-width="1.51"/><path d="M-151,420L-169,273L-158,612Z" fill="#a6a6a6" stroke="#a6a6a6" stroke-width="1.51"/><path d="M-169,204L-15,193L-151,107Z" fill="#959595" stroke="#959595" stroke-width="1.51"/><path d="M-151,107L-15,193L-31,81Z" fill="#959595" stroke="#959595" stroke-width="1.51"/><path d="M1608,208L1599,80L1468,98Z" fill="#5a5a5a" stroke="#5a5a5a" stroke-width="1.51"/><path d="M1580,905L1593,823L1493,890Z" fill="#2e2e2e" stroke="#2e2e2e" stroke-width="1.51"/><path d="M1585,719L1593,823L1602,605Z" fill="#424242" stroke="#424242" stroke-width="1.51"/><path d="M-158,612L-146,792L-131,694Z" fill="#7c7c7c" stroke="#7c7c7c" stroke-width="1.51"/><path d="M-131,694L-146,792L-66,683Z" fill="#7a7a7a" stroke="#7a7a7a" stroke-width="1.51"/><path d="M-54,20L-151,107L-31,81Z" fill="#909090" stroke="#909090" stroke-width="1.51"/><path d="M-145,10L-151,107L-54,20Z" fill="#8c8c8c" stroke="#8c8c8c" stroke-width="1.51"/><path d="M88,-127L-43,-114L88,19Z" fill="#8b8b8b" stroke="#8b8b8b" stroke-width="1.51"/><path d="M1582,1010L1580,905L1493,890Z" fill="#262626" stroke="#262626" stroke-width="1.51"/><path d="M1599,80L1582,-19L1479,6Z" fill="#545454" stroke="#545454" stroke-width="1.51"/><path d="M1475,-80L1600,-97L1394,-127Z" fill="#535353" stroke="#535353" stroke-width="1.51"/><path d="M-130,-103L-145,10L-54,20Z" fill="#878787" stroke="#878787" stroke-width="1.51"/><path d="M-151,107L-145,10L-169,204Z" fill="#8f8f8f" stroke="#8f8f8f" stroke-width="1.51"/><path d="M-165,892L-64,1019L-16,892Z" fill="#595959" stroke="#595959" stroke-width="1.51"/><path d="M43,1015L-64,1019L444,1029Z" fill="#545454" stroke="#545454" stroke-width="1.51"/><path d="M-146,792L-165,892L-28,804Z" fill="#686868" stroke="#686868" stroke-width="1.51"/><path d="M-158,612L-165,892L-146,792Z" fill="#717171" stroke="#717171" stroke-width="1.51"/><path d="M-169,273L-165,892L-158,612Z" fill="#8e8e8e" stroke="#8e8e8e" stroke-width="1.51"/><path d="M1452,1010L1582,1010L1493,890Z" fill="#252525" stroke="#252525" stroke-width="1.51"/><path d="M1580,905L1582,1010L1593,823Z" fill="#262626" stroke="#262626" stroke-width="1.51"/><path d="M1195,1019L1582,1010L1452,1010Z" fill="#282828" stroke="#282828" stroke-width="1.51"/><path d="M1599,80L1600,-97L1582,-19Z" fill="#4e4e4e" stroke="#4e4e4e" stroke-width="1.51"/><path d="M1582,-19L1600,-97L1475,-80Z" fill="#4f4f4f" stroke="#4f4f4f" stroke-width="1.51"/><path d="M1608,208L1600,-97L1599,80Z" fill="#525252" stroke="#525252" stroke-width="1.51"/><path d="M-43,-114L-130,-103L-54,20Z" fill="#878787" stroke="#878787" stroke-width="1.51"/><path d="M-165,892L-169,1018L-64,1019Z" fill="#505050" stroke="#505050" stroke-width="1.51"/><path d="M-64,1019L-169,1018L444,1029Z" fill="#515151" stroke="#515151" stroke-width="1.51"/><path d="M-169,273L-169,1018L-165,892Z" fill="#767676" stroke="#767676" stroke-width="1.51"/></svg>