<svg xmlns="http://www.w3.org/2000/svg" width="1440" height="900"><path d="M689,412L637,307L580,356Z" fill="#5d9b0a" stroke="#5d9b0a" stroke-width="1.51"/><path d="M580,356L543,433L689,412Z" fill="#5c990a" stroke="#5c990a" stroke-width="1.51"/><path d="M689,412L803,349L637,307Z" fill="#5a970a" stroke="#5a970a" stroke-width="1.51"/><path d="M543,433L645,534L689,412Z" fill="#57930a" stroke="#57930a" stroke-width="1.51"/><path d="M689,412L812,427L803,349Z" fill="#55900a" stroke="#55900a" stroke-width="1.51"/><path d="M791,542L812,427L689,412Z" fill="#528b0a" stroke="#528b0a" stroke-width="1.51"/><path d="M803,349L688,187L637,307Z" fill="#5f9d0a" stroke="#5f9d0a" stroke-width="1.51"/><path d="M637,307L547,190L580,356Z" fill="#64a40a" stroke="#64a40a" stroke-width="1.51"/><path d="M688,187L547,190L637,307Z" fill="#66a70a" stroke="#66a70a" stroke-width="1.51"/><path d="M580,356L429,360L543,433Z" fill="#61a00a" stroke="#61a00a" stroke-width="1.51"/><path d="M547,190L429,360L580,356Z" fill="#66a70a" stroke="#66a70a" stroke-width="1.51"/><path d="M543,433L516,544L645,534Z" fill="#57930a" stroke="#57930a" stroke-width="1.51"/><path d="M393,432L516,544L543,433Z" fill="#5d9a0a" stroke="#5d9a0a" stroke-width="1.51"/><path d="M645,534L791,542L689,412Z" fill="#528b0a" stroke="#528b0a" stroke-width="1.51"/><path d="M755,671L791,542L645,534Z" fill="#4c830a" stroke="#4c830a" stroke-width="1.51"/><path d="M803,349L817,188L688,187Z" fill="#5f9d0a" stroke="#5f9d0a" stroke-width="1.51"/><path d="M912,226L817,188L803,349Z" fill="#5b980a" stroke="#5b980a" stroke-width="1.51"/><path d="M812,427L897,352L803,349Z" fill="#548e0a" stroke="#548e0a" stroke-width="1.51"/><path d="M900,432L897,352L812,427Z" fill="#518a0a" stroke="#518a0a" stroke-width="1.51"/><path d="M429,360L393,432L543,433Z" fill="#62a20a" stroke="#62a20a" stroke-width="1.51"/><path d="M688,187L674,108L547,190Z" fill="#69ac09" stroke="#69ac09" stroke-width="1.51"/><path d="M817,188L757,137L688,187Z" fill="#64a50a" stroke="#64a50a" stroke-width="1.51"/><path d="M757,137L674,108L688,187Z" fill="#68a90a" stroke="#68a90a" stroke-width="1.51"/><path d="M791,542L900,432L812,427Z" fill="#4e870a" stroke="#4e870a" stroke-width="1.51"/><path d="M547,190L451,179L429,360Z" fill="#6bae0a" stroke="#6bae0a" stroke-width="1.51"/><path d="M429,360L339,440L393,432Z" fill="#65a50a" stroke="#65a50a" stroke-width="1.51"/><path d="M533,80L451,179L547,190Z" fill="#70b409" stroke="#70b409" stroke-width="1.51"/><path d="M516,544L625,642L645,534Z" fill="#528b0a" stroke="#528b0a" stroke-width="1.51"/><path d="M393,432L419,570L516,544Z" fill="#5c990a" stroke="#5c990a" stroke-width="1.51"/><path d="M516,544L512,689L625,642Z" fill="#518a0a" stroke="#518a0a" stroke-width="1.51"/><path d="M929,87L791,19L757,137Z" fill="#67a80a" stroke="#67a80a" stroke-width="1.51"/><path d="M897,352L912,226L803,349Z" fill="#57920a" stroke="#57920a" stroke-width="1.51"/><path d="M968,347L912,226L897,352Z" fill="#548f0a" stroke="#548f0a" stroke-width="1.51"/><path d="M674,108L533,80L547,190Z" fill="#6eb209" stroke="#6eb209" stroke-width="1.51"/><path d="M393,432L339,440L419,570Z" fill="#61a00a" stroke="#61a00a" stroke-width="1.51"/><path d="M322,299L339,440L429,360Z" fill="#69ab0a" stroke="#69ab0a" stroke-width="1.51"/><path d="M625,642L755,671L645,534Z" fill="#4c830a" stroke="#4c830a" stroke-width="1.51"/><path d="M791,542L913,548L900,432Z" fill="#4a810a" stroke="#4a810a" stroke-width="1.51"/><path d="M873,655L913,548L791,542Z" fill="#477c0a" stroke="#477c0a" stroke-width="1.51"/><path d="M900,432L968,347L897,352Z" fill="#50890a" stroke="#50890a" stroke-width="1.51"/><path d="M991,472L968,347L900,432Z" fill="#4c840a" stroke="#4c840a" stroke-width="1.51"/><path d="M451,179L322,299L429,360Z" fill="#6cb00a" stroke="#6cb00a" stroke-width="1.51"/><path d="M305,223L322,299L451,179Z" fill="#71b609" stroke="#71b609" stroke-width="1.51"/><path d="M445,665L512,689L516,544Z" fill="#538c0a" stroke="#538c0a" stroke-width="1.51"/><path d="M624,832L765,806L755,671Z" fill="#427409" stroke="#427409" stroke-width="1.51"/><path d="M354,601L445,665L419,570Z" fill="#58930a" stroke="#58930a" stroke-width="1.51"/><path d="M419,570L445,665L516,544Z" fill="#56920b" stroke="#56920b" stroke-width="1.51"/><path d="M913,548L991,472L900,432Z" fill="#497f0a" stroke="#497f0a" stroke-width="1.51"/><path d="M913,548L1010,551L991,472Z" fill="#467a0a" stroke="#467a0a" stroke-width="1.51"/><path d="M755,671L873,655L791,542Z" fill="#467b0a" stroke="#467b0a" stroke-width="1.51"/><path d="M297,141L305,223L451,179Z" fill="#75bb09" stroke="#75bb09" stroke-width="1.51"/><path d="M322,299L220,328L339,440Z" fill="#6cb009" stroke="#6cb009" stroke-width="1.51"/><path d="M339,440L354,601L419,570Z" fill="#5e9c0a" stroke="#5e9c0a" stroke-width="1.51"/><path d="M305,650L161,579L218,653Z" fill="#5e9c0a" stroke="#5e9c0a" stroke-width="1.51"/><path d="M968,347L997,253L912,226Z" fill="#55900b" stroke="#55900b" stroke-width="1.51"/><path d="M929,87L757,137L817,188Z" fill="#63a30a" stroke="#63a30a" stroke-width="1.51"/><path d="M1091,325L997,253L968,347Z" fill="#51890a" stroke="#51890a" stroke-width="1.51"/><path d="M533,80L420,65L451,179Z" fill="#74bb09" stroke="#74bb09" stroke-width="1.51"/><path d="M757,137L791,19L674,108Z" fill="#6aac09" stroke="#6aac09" stroke-width="1.51"/><path d="M633,-31L545,-13L533,80Z" fill="#76bd09" stroke="#76bd09" stroke-width="1.51"/><path d="M533,80L425,-19L420,65Z" fill="#79c108" stroke="#79c108" stroke-width="1.51"/><path d="M929,87L817,188L912,226Z" fill="#5f9d0a" stroke="#5f9d0a" stroke-width="1.51"/><path d="M633,-31L533,80L674,108Z" fill="#72b709" stroke="#72b709" stroke-width="1.51"/><path d="M791,19L633,-31L674,108Z" fill="#6fb309" stroke="#6fb309" stroke-width="1.51"/><path d="M997,253L929,87L912,226Z" fill="#5b980a" stroke="#5b980a" stroke-width="1.51"/><path d="M873,655L1010,551L913,548Z" fill="#43770a" stroke="#43770a" stroke-width="1.51"/><path d="M1121,436L1091,325L968,347Z" fill="#4b820a" stroke="#4b820a" stroke-width="1.51"/><path d="M445,665L513,763L512,689Z" fill="#4e870a" stroke="#4e870a" stroke-width="1.51"/><path d="M512,689L513,763L625,642Z" fill="#4d830a" stroke="#4d830a" stroke-width="1.51"/><path d="M755,671L907,763L873,655Z" fill="#40730a" stroke="#40730a" stroke-width="1.51"/><path d="M429,829L513,763L445,665Z" fill="#4d840a" stroke="#4d840a" stroke-width="1.51"/><path d="M331,-19L297,141L420,65Z" fill="#7cc608" stroke="#7cc608" stroke-width="1.51"/><path d="M420,65L297,141L451,179Z" fill="#77be09" stroke="#77be09" stroke-width="1.51"/><path d="M195,217L220,328L305,223Z" fill="#75bc09" stroke="#75bc09" stroke-width="1.51"/><path d="M305,223L220,328L322,299Z" fill="#71b609" stroke="#71b609" stroke-width="1.51"/><path d="M354,601L305,650L445,665Z" fill="#57930a" stroke="#57930a" stroke-width="1.51"/><path d="M305,650L354,601L161,579Z" fill="#5d9b0a" stroke="#5d9b0a" stroke-width="1.51"/><path d="M545,-13L425,-19L533,80Z" fill="#79c109" stroke="#79c109" stroke-width="1.51"/><path d="M518,-90L425,-19L545,-13Z" fill="#7dc708" stroke="#7dc708" stroke-width="1.51"/><path d="M997,253L1015,78L929,87Z" fill="#5c990a" stroke="#5c990a" stroke-width="1.51"/><path d="M1121,436L968,347L991,472Z" fill="#49800a" stroke="#49800a" stroke-width="1.51"/><path d="M624,832L755,671L625,642Z" fill="#477c0a" stroke="#477c0a" stroke-width="1.51"/><path d="M1130,639L1081,530L1010,551Z" fill="#3f700a" stroke="#3f700a" stroke-width="1.51"/><path d="M929,87L931,16L791,19Z" fill="#67a80a" stroke="#67a80a" stroke-width="1.51"/><path d="M791,19L692,-158L633,-31Z" fill="#75bb09" stroke="#75bb09" stroke-width="1.51"/><path d="M994,20L931,16L929,87Z" fill="#63a40a" stroke="#63a40a" stroke-width="1.51"/><path d="M513,763L624,832L625,642Z" fill="#487e09" stroke="#487e09" stroke-width="1.51"/><path d="M559,922L624,832L513,763Z" fill="#43770a" stroke="#43770a" stroke-width="1.51"/><path d="M1010,551L1081,530L991,472Z" fill="#43770a" stroke="#43770a" stroke-width="1.51"/><path d="M1033,688L1010,551L873,655Z" fill="#3f7109" stroke="#3f7109" stroke-width="1.51"/><path d="M164,82L195,217L297,141Z" fill="#7dc608" stroke="#7dc608" stroke-width="1.51"/><path d="M297,141L195,217L305,223Z" fill="#77c009" stroke="#77c009" stroke-width="1.51"/><path d="M1144,109L1015,78L997,253Z" fill="#59950a" stroke="#59950a" stroke-width="1.51"/><path d="M765,806L907,763L755,671Z" fill="#3f7109" stroke="#3f7109" stroke-width="1.51"/><path d="M72,295L169,424L220,328Z" fill="#73b909" stroke="#73b909" stroke-width="1.51"/><path d="M220,328L169,424L339,440Z" fill="#6caf09" stroke="#6caf09" stroke-width="1.51"/><path d="M692,-158L518,-90L633,-31Z" fill="#7bc408" stroke="#7bc408" stroke-width="1.51"/><path d="M633,-31L518,-90L545,-13Z" fill="#7ac208" stroke="#7ac208" stroke-width="1.51"/><path d="M1081,530L1121,436L991,472Z" fill="#44790a" stroke="#44790a" stroke-width="1.51"/><path d="M768,-164L692,-158L791,19Z" fill="#76bc09" stroke="#76bc09" stroke-width="1.51"/><path d="M1015,78L994,20L929,87Z" fill="#61a00a" stroke="#61a00a" stroke-width="1.51"/><path d="M326,-125L331,-19L425,-19Z" fill="#84d007" stroke="#84d007" stroke-width="1.51"/><path d="M425,-19L331,-19L420,65Z" fill="#7ec808" stroke="#7ec808" stroke-width="1.51"/><path d="M907,763L1033,688L873,655Z" fill="#3d6e0a" stroke="#3d6e0a" stroke-width="1.51"/><path d="M1208,601L1202,419L1121,436Z" fill="#407209" stroke="#407209" stroke-width="1.51"/><path d="M337,833L429,829L445,665Z" fill="#4d860a" stroke="#4d860a" stroke-width="1.51"/><path d="M305,650L337,833L445,665Z" fill="#538d0a" stroke="#538d0a" stroke-width="1.51"/><path d="M161,579L354,601L339,440Z" fill="#62a00a" stroke="#62a00a" stroke-width="1.51"/><path d="M624,832L632,882L765,806Z" fill="#3f710a" stroke="#3f710a" stroke-width="1.51"/><path d="M765,806L866,947L907,763Z" fill="#386809" stroke="#386809" stroke-width="1.51"/><path d="M559,922L632,882L624,832Z" fill="#407209" stroke="#407209" stroke-width="1.51"/><path d="M169,424L161,579L339,440Z" fill="#68a90a" stroke="#68a90a" stroke-width="1.51"/><path d="M1091,325L1151,234L997,253Z" fill="#50890a" stroke="#50890a" stroke-width="1.51"/><path d="M1015,78L1083,25L994,20Z" fill="#609f0a" stroke="#609f0a" stroke-width="1.51"/><path d="M1261,368L1151,234L1091,325Z" fill="#4a810a" stroke="#4a810a" stroke-width="1.51"/><path d="M768,-164L791,19L895,-128Z" fill="#72b709" stroke="#72b709" stroke-width="1.51"/><path d="M518,-90L463,-130L425,-19Z" fill="#81cc08" stroke="#81cc08" stroke-width="1.51"/><path d="M692,-158L463,-130L518,-90Z" fill="#7fca08" stroke="#7fca08" stroke-width="1.51"/><path d="M195,217L113,237L220,328Z" fill="#77bf09" stroke="#77bf09" stroke-width="1.51"/><path d="M169,424L47,479L161,579Z" fill="#6bae09" stroke="#6bae09" stroke-width="1.51"/><path d="M81,116L113,237L195,217Z" fill="#7ec808" stroke="#7ec808" stroke-width="1.51"/><path d="M895,-128L791,19L931,16Z" fill="#6caf0a" stroke="#6caf0a" stroke-width="1.51"/><path d="M447,897L559,922L513,763Z" fill="#44790a" stroke="#44790a" stroke-width="1.51"/><path d="M164,770L337,833L305,650Z" fill="#558f0a" stroke="#558f0a" stroke-width="1.51"/><path d="M164,770L305,650L218,653Z" fill="#5a970a" stroke="#5a970a" stroke-width="1.51"/><path d="M1033,688L1130,639L1010,551Z" fill="#3c6d09" stroke="#3c6d09" stroke-width="1.51"/><path d="M1121,436L1202,419L1091,325Z" fill="#477b0a" stroke="#477b0a" stroke-width="1.51"/><path d="M1163,772L1130,639L1033,688Z" fill="#366409" stroke="#366409" stroke-width="1.51"/><path d="M331,-19L164,82L297,141Z" fill="#80cb08" stroke="#80cb08" stroke-width="1.51"/><path d="M169,-36L164,82L331,-19Z" fill="#85d307" stroke="#85d307" stroke-width="1.51"/><path d="M632,882L759,921L765,806Z" fill="#3b6d09" stroke="#3b6d09" stroke-width="1.51"/><path d="M447,897L513,763L429,829Z" fill="#487e0a" stroke="#487e0a" stroke-width="1.51"/><path d="M1037,-89L931,16L994,20Z" fill="#66a709" stroke="#66a709" stroke-width="1.51"/><path d="M1037,-89L895,-128L931,16Z" fill="#6aad0a" stroke="#6aad0a" stroke-width="1.51"/><path d="M1144,109L1083,25L1015,78Z" fill="#5c990a" stroke="#5c990a" stroke-width="1.51"/><path d="M337,833L447,897L429,829Z" fill="#497f09" stroke="#497f09" stroke-width="1.51"/><path d="M1208,601L1121,436L1081,530Z" fill="#3f710a" stroke="#3f710a" stroke-width="1.51"/><path d="M907,763L1048,773L1033,688Z" fill="#386709" stroke="#386709" stroke-width="1.51"/><path d="M702,1023L759,921L632,882Z" fill="#386809" stroke="#386809" stroke-width="1.51"/><path d="M1260,241L1144,109L1151,234Z" fill="#50890a" stroke="#50890a" stroke-width="1.51"/><path d="M1151,234L1144,109L997,253Z" fill="#548e0a" stroke="#548e0a" stroke-width="1.51"/><path d="M1034,940L1048,773L907,763Z" fill="#336109" stroke="#336109" stroke-width="1.51"/><path d="M113,237L72,295L220,328Z" fill="#78bf09" stroke="#78bf09" stroke-width="1.51"/><path d="M-22,202L72,295L113,237Z" fill="#7ec807" stroke="#7ec807" stroke-width="1.51"/><path d="M463,-130L326,-125L425,-19Z" fill="#84d107" stroke="#84d107" stroke-width="1.51"/><path d="M692,-158L326,-125L463,-130Z" fill="#83cf07" stroke="#83cf07" stroke-width="1.51"/><path d="M72,295L47,479L169,424Z" fill="#73b709" stroke="#73b709" stroke-width="1.51"/><path d="M161,579L59,667L218,653Z" fill="#61a10a" stroke="#61a10a" stroke-width="1.51"/><path d="M47,479L73,579L161,579Z" fill="#69ab0a" stroke="#69ab0a" stroke-width="1.51"/><path d="M1106,-106L1037,-89L1083,25Z" fill="#65a50a" stroke="#65a50a" stroke-width="1.51"/><path d="M1083,25L1037,-89L994,20Z" fill="#64a40a" stroke="#64a40a" stroke-width="1.51"/><path d="M895,-128L1375,-162L768,-164Z" fill="#6eb109" stroke="#6eb109" stroke-width="1.51"/><path d="M1229,658L1208,601L1130,639Z" fill="#376609" stroke="#376609" stroke-width="1.51"/><path d="M1130,639L1208,601L1081,530Z" fill="#3b6c0a" stroke="#3b6c0a" stroke-width="1.51"/><path d="M164,82L81,116L195,217Z" fill="#80cb08" stroke="#80cb08" stroke-width="1.51"/><path d="M72,295L-29,338L47,479Z" fill="#77be09" stroke="#77be09" stroke-width="1.51"/><path d="M116,2L81,116L164,82Z" fill="#86d307" stroke="#86d307" stroke-width="1.51"/><path d="M759,921L866,947L765,806Z" fill="#376709" stroke="#376709" stroke-width="1.51"/><path d="M872,990L866,947L759,921Z" fill="#326009" stroke="#326009" stroke-width="1.51"/><path d="M1202,419L1261,368L1091,325Z" fill="#467b0a" stroke="#467b0a" stroke-width="1.51"/><path d="M1333,482L1261,368L1202,419Z" fill="#40720a" stroke="#40720a" stroke-width="1.51"/><path d="M59,667L164,770L218,653Z" fill="#5d9b0a" stroke="#5d9b0a" stroke-width="1.51"/><path d="M337,833L301,950L447,897Z" fill="#487e0a" stroke="#487e0a" stroke-width="1.51"/><path d="M166,-87L169,-36L331,-19Z" fill="#89d806" stroke="#89d806" stroke-width="1.51"/><path d="M1261,368L1260,241L1151,234Z" fill="#4a800a" stroke="#4a800a" stroke-width="1.51"/><path d="M1242,7L1106,-106L1083,25Z" fill="#609f0a" stroke="#609f0a" stroke-width="1.51"/><path d="M169,-36L116,2L164,82Z" fill="#88d607" stroke="#88d607" stroke-width="1.51"/><path d="M3,592L59,667L73,579Z" fill="#67a80a" stroke="#67a80a" stroke-width="1.51"/><path d="M73,579L59,667L161,579Z" fill="#65a60a" stroke="#65a60a" stroke-width="1.51"/><path d="M1333,482L1330,314L1261,368Z" fill="#407209" stroke="#407209" stroke-width="1.51"/><path d="M1163,772L1229,658L1130,639Z" fill="#346209" stroke="#346209" stroke-width="1.51"/><path d="M1163,772L1033,688L1048,773Z" fill="#346208" stroke="#346208" stroke-width="1.51"/><path d="M559,922L702,1023L632,882Z" fill="#3b6b09" stroke="#3b6b09" stroke-width="1.51"/><path d="M550,1064L702,1023L559,922Z" fill="#386809" stroke="#386809" stroke-width="1.51"/><path d="M550,1064L559,922L437,1046Z" fill="#3b6c09" stroke="#3b6c09" stroke-width="1.51"/><path d="M1125,939L1163,772L1048,773Z" fill="#2f5a09" stroke="#2f5a09" stroke-width="1.51"/><path d="M169,-36L166,-87L116,2Z" fill="#8cdc06" stroke="#8cdc06" stroke-width="1.51"/><path d="M326,-125L166,-87L331,-19Z" fill="#89d706" stroke="#89d706" stroke-width="1.51"/><path d="M866,947L1034,940L907,763Z" fill="#326009" stroke="#326009" stroke-width="1.51"/><path d="M755,1066L872,990L759,921Z" fill="#315f09" stroke="#315f09" stroke-width="1.51"/><path d="M1242,7L1083,25L1144,109Z" fill="#5a970a" stroke="#5a970a" stroke-width="1.51"/><path d="M1037,-89L1106,-106L895,-128Z" fill="#6bad09" stroke="#6bad09" stroke-width="1.51"/><path d="M1260,241L1243,78L1144,109Z" fill="#538c0a" stroke="#538c0a" stroke-width="1.51"/><path d="M-22,202L113,237L81,116Z" fill="#81cd07" stroke="#81cd07" stroke-width="1.51"/><path d="M-22,202L-29,338L72,295Z" fill="#7ec808" stroke="#7ec808" stroke-width="1.51"/><path d="M47,479L3,592L73,579Z" fill="#6bae0a" stroke="#6bae0a" stroke-width="1.51"/><path d="M209,924L301,950L337,833Z" fill="#4b820a" stroke="#4b820a" stroke-width="1.51"/><path d="M209,924L337,833L164,770Z" fill="#518a0a" stroke="#518a0a" stroke-width="1.51"/><path d="M-42,416L3,592L47,479Z" fill="#70b509" stroke="#70b509" stroke-width="1.51"/><path d="M1,120L81,116L-13,-23Z" fill="#8ad906" stroke="#8ad906" stroke-width="1.51"/><path d="M1,120L-22,202L81,116Z" fill="#86d307" stroke="#86d307" stroke-width="1.51"/><path d="M-182,301L-42,416L-29,338Z" fill="#7dc708" stroke="#7dc708" stroke-width="1.51"/><path d="M-29,338L-42,416L47,479Z" fill="#76bd09" stroke="#76bd09" stroke-width="1.51"/><path d="M-13,-23L81,116L116,2Z" fill="#8bda06" stroke="#8bda06" stroke-width="1.51"/><path d="M59,667L116,814L164,770Z" fill="#5b980a" stroke="#5b980a" stroke-width="1.51"/><path d="M2,793L116,814L59,667Z" fill="#5d9b0a" stroke="#5d9b0a" stroke-width="1.51"/><path d="M1260,241L1336,109L1243,78Z" fill="#50880a" stroke="#50880a" stroke-width="1.51"/><path d="M1261,368L1330,314L1260,241Z" fill="#467b0a" stroke="#467b0a" stroke-width="1.51"/><path d="M1333,482L1202,419L1208,601Z" fill="#3c6c09" stroke="#3c6c09" stroke-width="1.51"/><path d="M872,990L1034,940L866,947Z" fill="#2e5b09" stroke="#2e5b09" stroke-width="1.51"/><path d="M-137,535L-1,640L3,592Z" fill="#6db00a" stroke="#6db00a" stroke-width="1.51"/><path d="M3,592L-1,640L59,667Z" fill="#67a809" stroke="#67a809" stroke-width="1.51"/><path d="M702,1023L755,1066L759,921Z" fill="#336008" stroke="#336008" stroke-width="1.51"/><path d="M437,1046L559,922L447,897Z" fill="#40730a" stroke="#40730a" stroke-width="1.51"/><path d="M1392,592L1333,482L1208,601Z" fill="#366509" stroke="#366509" stroke-width="1.51"/><path d="M1392,592L1208,601L1229,658Z" fill="#346209" stroke="#346209" stroke-width="1.51"/><path d="M1243,78L1242,7L1144,109Z" fill="#57930a" stroke="#57930a" stroke-width="1.51"/><path d="M1336,109L1242,7L1243,78Z" fill="#558f0b" stroke="#558f0b" stroke-width="1.51"/><path d="M116,814L209,924L164,770Z" fill="#558e0b" stroke="#558e0b" stroke-width="1.51"/><path d="M301,950L437,1046L447,897Z" fill="#43770a" stroke="#43770a" stroke-width="1.51"/><path d="M550,1064L755,1066L702,1023Z" fill="#346109" stroke="#346109" stroke-width="1.51"/><path d="M1081,986L1125,939L1034,940Z" fill="#295208" stroke="#295208" stroke-width="1.51"/><path d="M324,1062L437,1046L301,950Z" fill="#427509" stroke="#427509" stroke-width="1.51"/><path d="M1163,772L1222,773L1229,658Z" fill="#305d08" stroke="#305d08" stroke-width="1.51"/><path d="M1238,932L1222,773L1163,772Z" fill="#2b5608" stroke="#2b5608" stroke-width="1.51"/><path d="M1330,314L1338,214L1260,241Z" fill="#487d09" stroke="#487d09" stroke-width="1.51"/><path d="M1447,258L1338,214L1330,314Z" fill="#457a0a" stroke="#457a0a" stroke-width="1.51"/><path d="M166,-87L107,-130L116,2Z" fill="#8fdf05" stroke="#8fdf05" stroke-width="1.51"/><path d="M326,-125L107,-130L166,-87Z" fill="#8fdf05" stroke="#8fdf05" stroke-width="1.51"/><path d="M692,-158L107,-130L326,-125Z" fill="#89d606" stroke="#89d606" stroke-width="1.51"/><path d="M-26,-137L107,-130L692,-158Z" fill="#8ede05" stroke="#8ede05" stroke-width="1.51"/><path d="M1338,214L1336,109L1260,241Z" fill="#4b830a" stroke="#4b830a" stroke-width="1.51"/><path d="M1047,1007L1034,940L872,990Z" fill="#2b5608" stroke="#2b5608" stroke-width="1.51"/><path d="M1034,940L1125,939L1048,773Z" fill="#2d5908" stroke="#2d5908" stroke-width="1.51"/><path d="M755,1066L1047,1007L872,990Z" fill="#2c5708" stroke="#2c5708" stroke-width="1.51"/><path d="M1047,1007L1081,986L1034,940Z" fill="#295208" stroke="#295208" stroke-width="1.51"/><path d="M437,1046L324,1062L550,1064Z" fill="#3c6d09" stroke="#3c6d09" stroke-width="1.51"/><path d="M550,1064L-184,1061L755,1066Z" fill="#3e7009" stroke="#3e7009" stroke-width="1.51"/><path d="M195,992L324,1062L301,950Z" fill="#467b09" stroke="#467b09" stroke-width="1.51"/><path d="M195,992L301,950L209,924Z" fill="#4a800a" stroke="#4a800a" stroke-width="1.51"/><path d="M107,-130L-13,-23L116,2Z" fill="#90e105" stroke="#90e105" stroke-width="1.51"/><path d="M-185,70L-125,251L-22,202Z" fill="#8ad806" stroke="#8ad806" stroke-width="1.51"/><path d="M-22,202L-125,251L-29,338Z" fill="#82cd08" stroke="#82cd08" stroke-width="1.51"/><path d="M82,942L209,924L116,814Z" fill="#528b0a" stroke="#528b0a" stroke-width="1.51"/><path d="M103,990L195,992L209,924Z" fill="#4c830a" stroke="#4c830a" stroke-width="1.51"/><path d="M-1,640L2,793L59,667Z" fill="#63a20a" stroke="#63a20a" stroke-width="1.51"/><path d="M-162,673L2,793L-1,640Z" fill="#66a60a" stroke="#66a60a" stroke-width="1.51"/><path d="M1242,7L1251,-100L1106,-106Z" fill="#609e0a" stroke="#609e0a" stroke-width="1.51"/><path d="M1106,-106L1375,-162L895,-128Z" fill="#67a80a" stroke="#67a80a" stroke-width="1.51"/><path d="M1362,-30L1251,-100L1242,7Z" fill="#5a980b" stroke="#5a980b" stroke-width="1.51"/><path d="M-185,70L-22,202L1,120Z" fill="#8bda06" stroke="#8bda06" stroke-width="1.51"/><path d="M-42,416L-137,535L3,592Z" fill="#72b709" stroke="#72b709" stroke-width="1.51"/><path d="M1333,482L1449,364L1330,314Z" fill="#3e6f09" stroke="#3e6f09" stroke-width="1.51"/><path d="M1338,214L1452,126L1336,109Z" fill="#4c820a" stroke="#4c820a" stroke-width="1.51"/><path d="M1384,655L1392,592L1229,658Z" fill="#315d08" stroke="#315d08" stroke-width="1.51"/><path d="M1384,655L1229,658L1355,809Z" fill="#2d5908" stroke="#2d5908" stroke-width="1.51"/><path d="M1355,809L1229,658L1222,773Z" fill="#2d5808" stroke="#2d5808" stroke-width="1.51"/><path d="M-159,478L-137,535L-42,416Z" fill="#76be09" stroke="#76be09" stroke-width="1.51"/><path d="M2,793L82,942L116,814Z" fill="#57930a" stroke="#57930a" stroke-width="1.51"/><path d="M195,992L103,990L324,1062Z" fill="#487d0a" stroke="#487d0a" stroke-width="1.51"/><path d="M103,990L82,942L-48,1041Z" fill="#4f880a" stroke="#4f880a" stroke-width="1.51"/><path d="M1336,109L1362,-30L1242,7Z" fill="#55900a" stroke="#55900a" stroke-width="1.51"/><path d="M1509,416L1449,364L1333,482Z" fill="#396a09" stroke="#396a09" stroke-width="1.51"/><path d="M1462,582L1333,482L1392,592Z" fill="#336109" stroke="#336109" stroke-width="1.51"/><path d="M-182,301L-159,478L-42,416Z" fill="#7cc508" stroke="#7cc508" stroke-width="1.51"/><path d="M1449,364L1447,258L1330,314Z" fill="#40730a" stroke="#40730a" stroke-width="1.51"/><path d="M1125,939L1238,932L1163,772Z" fill="#295308" stroke="#295308" stroke-width="1.51"/><path d="M1235,1023L1238,932L1125,939Z" fill="#244c07" stroke="#244c07" stroke-width="1.51"/><path d="M1235,1023L1125,939L1081,986Z" fill="#254d08" stroke="#254d08" stroke-width="1.51"/><path d="M82,942L103,990L209,924Z" fill="#4e870a" stroke="#4e870a" stroke-width="1.51"/><path d="M-21,917L82,942L2,793Z" fill="#57930a" stroke="#57930a" stroke-width="1.51"/><path d="M1452,126L1362,-30L1336,109Z" fill="#50880a" stroke="#50880a" stroke-width="1.51"/><path d="M-125,251L-182,301L-29,338Z" fill="#82ce07" stroke="#82ce07" stroke-width="1.51"/><path d="M-185,70L-182,301L-125,251Z" fill="#8ad906" stroke="#8ad906" stroke-width="1.51"/><path d="M1238,932L1355,809L1222,773Z" fill="#285108" stroke="#285108" stroke-width="1.51"/><path d="M1384,655L1462,582L1392,592Z" fill="#2f5b08" stroke="#2f5b08" stroke-width="1.51"/><path d="M-13,-23L-143,-5L1,120Z" fill="#90e205" stroke="#90e205" stroke-width="1.51"/><path d="M107,-130L-26,-137L-13,-23Z" fill="#95e904" stroke="#95e904" stroke-width="1.51"/><path d="M-185,-149L-26,-137L692,-158Z" fill="#93e404" stroke="#93e404" stroke-width="1.51"/><path d="M1447,258L1452,126L1338,214Z" fill="#477c09" stroke="#477c09" stroke-width="1.51"/><path d="M1494,29L1615,109L1573,28Z" fill="#497f0a" stroke="#497f0a" stroke-width="1.51"/><path d="M1443,695L1462,582L1384,655Z" fill="#2d5808" stroke="#2d5808" stroke-width="1.51"/><path d="M1563,339L1551,229L1447,258Z" fill="#3e7009" stroke="#3e7009" stroke-width="1.51"/><path d="M-137,535L-162,673L-1,640Z" fill="#6db00a" stroke="#6db00a" stroke-width="1.51"/><path d="M-159,478L-162,673L-137,535Z" fill="#73b909" stroke="#73b909" stroke-width="1.51"/><path d="M-182,301L-162,673L-159,478Z" fill="#78c008" stroke="#78c008" stroke-width="1.51"/><path d="M-112,900L-21,917L2,793Z" fill="#5b980a" stroke="#5b980a" stroke-width="1.51"/><path d="M1441,766L1443,695L1384,655Z" fill="#295308" stroke="#295308" stroke-width="1.51"/><path d="M1462,582L1509,416L1333,482Z" fill="#356309" stroke="#356309" stroke-width="1.51"/><path d="M1563,339L1509,416L1586,449Z" fill="#356408" stroke="#356408" stroke-width="1.51"/><path d="M-26,-137L-143,-5L-13,-23Z" fill="#97ea04" stroke="#97ea04" stroke-width="1.51"/><path d="M-143,-5L-185,70L1,120Z" fill="#91e205" stroke="#91e205" stroke-width="1.51"/><path d="M755,1066L1235,1023L1047,1007Z" fill="#275008" stroke="#275008" stroke-width="1.51"/><path d="M1047,1007L1235,1023L1081,986Z" fill="#254d07" stroke="#254d07" stroke-width="1.51"/><path d="M1238,932L1347,940L1355,809Z" fill="#234b07" stroke="#234b07" stroke-width="1.51"/><path d="M1355,809L1441,766L1384,655Z" fill="#285208" stroke="#285208" stroke-width="1.51"/><path d="M1445,914L1441,766L1355,809Z" fill="#234a07" stroke="#234a07" stroke-width="1.51"/><path d="M1605,555L1586,449L1462,582Z" fill="#2e5b08" stroke="#2e5b08" stroke-width="1.51"/><path d="M1362,-30L1375,-162L1251,-100Z" fill="#5c990a" stroke="#5c990a" stroke-width="1.51"/><path d="M1251,-100L1375,-162L1106,-106Z" fill="#62a10a" stroke="#62a10a" stroke-width="1.51"/><path d="M1481,-137L1375,-162L1362,-30Z" fill="#5a960b" stroke="#5a960b" stroke-width="1.51"/><path d="M1314,1006L1347,940L1238,932Z" fill="#204707" stroke="#204707" stroke-width="1.51"/><path d="M-184,1061L-154,828L-162,673Z" fill="#61a00a" stroke="#61a00a" stroke-width="1.51"/><path d="M-162,673L-154,828L2,793Z" fill="#64a409" stroke="#64a409" stroke-width="1.51"/><path d="M1551,229L1452,126L1447,258Z" fill="#44780a" stroke="#44780a" stroke-width="1.51"/><path d="M1452,126L1494,29L1362,-30Z" fill="#4f880a" stroke="#4f880a" stroke-width="1.51"/><path d="M1563,339L1447,258L1449,364Z" fill="#3d6e09" stroke="#3d6e09" stroke-width="1.51"/><path d="M1563,339L1449,364L1509,416Z" fill="#396909" stroke="#396909" stroke-width="1.51"/><path d="M-154,828L-112,900L2,793Z" fill="#5e9d0b" stroke="#5e9d0b" stroke-width="1.51"/><path d="M-21,917L-48,1041L82,942Z" fill="#538d09" stroke="#538d09" stroke-width="1.51"/><path d="M1586,449L1509,416L1462,582Z" fill="#326008" stroke="#326008" stroke-width="1.51"/><path d="M1235,1023L1314,1006L1238,932Z" fill="#204707" stroke="#204707" stroke-width="1.51"/><path d="M1347,940L1445,914L1355,809Z" fill="#214807" stroke="#214807" stroke-width="1.51"/><path d="M1605,555L1462,582L1624,694Z" fill="#2a5308" stroke="#2a5308" stroke-width="1.51"/><path d="M1615,109L1452,126L1551,229Z" fill="#44790a" stroke="#44790a" stroke-width="1.51"/><path d="M-184,1061L-48,1041L-112,900Z" fill="#56910a" stroke="#56910a" stroke-width="1.51"/><path d="M-112,900L-48,1041L-21,917Z" fill="#56920a" stroke="#56920a" stroke-width="1.51"/><path d="M103,990L-48,1041L324,1062Z" fill="#4a800a" stroke="#4a800a" stroke-width="1.51"/><path d="M1624,694L1462,582L1443,695Z" fill="#295308" stroke="#295308" stroke-width="1.51"/><path d="M1470,992L1445,914L1347,940Z" fill="#1c4106" stroke="#1c4106" stroke-width="1.51"/><path d="M-143,-5L-185,-149L-185,70Z" fill="#9aee03" stroke="#9aee03" stroke-width="1.51"/><path d="M-26,-137L-185,-149L-143,-5Z" fill="#9cf103" stroke="#9cf103" stroke-width="1.51"/><path d="M768,-164L-185,-149L692,-158Z" fill="#87d506" stroke="#87d506" stroke-width="1.51"/><path d="M1494,29L1481,-137L1362,-30Z" fill="#558e0a" stroke="#558e0a" stroke-width="1.51"/><path d="M1573,28L1481,-137L1494,29Z" fill="#50890a" stroke="#50890a" stroke-width="1.51"/><path d="M1615,109L1551,229L1563,339Z" fill="#3f710a" stroke="#3f710a" stroke-width="1.51"/><path d="M1624,694L1443,695L1624,757Z" fill="#244c07" stroke="#244c07" stroke-width="1.51"/><path d="M1615,109L1494,29L1452,126Z" fill="#497f09" stroke="#497f09" stroke-width="1.51"/><path d="M1615,109L1563,339L1586,449Z" fill="#3a6a09" stroke="#3a6a09" stroke-width="1.51"/><path d="M1605,555L1615,109L1586,449Z" fill="#356409" stroke="#356409" stroke-width="1.51"/><path d="M1605,555L1624,694L1615,109Z" fill="#305d08" stroke="#305d08" stroke-width="1.51"/><path d="M1624,757L1443,695L1441,766Z" fill="#254d08" stroke="#254d08" stroke-width="1.51"/><path d="M1579,871L1624,757L1441,766Z" fill="#204607" stroke="#204607" stroke-width="1.51"/><path d="M1314,1006L1470,992L1347,940Z" fill="#1c4106" stroke="#1c4106" stroke-width="1.51"/><path d="M1606,1047L1470,992L1314,1006Z" fill="#173a05" stroke="#173a05" stroke-width="1.51"/><path d="M1579,871L1441,766L1445,914Z" fill="#1f4506" stroke="#1f4506" stroke-width="1.51"/><path d="M1470,992L1579,871L1445,914Z" fill="#1b3f06" stroke="#1b3f06" stroke-width="1.51"/><path d="M-154,828L-184,1061L-112,900Z" fill="#5c9809" stroke="#5c9809" stroke-width="1.51"/><path d="M-48,1041L-184,1061L324,1062Z" fill="#4d840a" stroke="#4d840a" stroke-width="1.51"/><path d="M324,1062L-184,1061L550,1064Z" fill="#447809" stroke="#447809" stroke-width="1.51"/><path d="M-182,301L-184,1061L-162,673Z" fill="#6cb00a" stroke="#6cb00a" stroke-width="1.51"/><path d="M-185,70L-184,1061L-182,301Z" fill="#79c208" stroke="#79c208" stroke-width="1.51"/><path d="M1481,-137L1602,-161L1375,-162Z" fill="#59950a" stroke="#59950a" stroke-width="1.51"/><path d="M1573,28L1602,-161L1481,-137Z" fill="#528c0a" stroke="#528c0a" stroke-width="1.51"/><path d="M1615,109L1602,-161L1573,28Z" fill="#4c830a" stroke="#4c830a" stroke-width="1.51"/><path d="M1470,992L1606,1047L1579,871Z" fill="#163904" stroke="#163904" stroke-width="1.51"/><path d="M1579,871L1606,1047L1624,757Z" fill="#193d05" stroke="#193d05" stroke-width="1.51"/><path d="M1235,1023L1606,1047L1314,1006Z" fill="#1a3d06" stroke="#1a3d06" stroke-width="1.51"/><path d="M755,1066L1606,1047L1235,1023Z" fill="#1f4607" stroke="#1f4607" stroke-width="1.51"/></svg>